2464  1
    0      1     0     2    -1
    1      3     0     4    -1
    2      4     0     1    -1
    3      5     0     3    -1
    4      6     0     5    -1
    5      2     0     6    -1
    6      7     1     2    -1
    7     10     8     1    -1
    8      9     4     8    -1
    9      8     4     1    -1
   10     10     1     7    -1
   11     11     7     2    -1
   12     12     7    11    -1
   13     49    10     7    -1
   14     13     9    14    -1
   15     14     8    10    -1
   16     14     9     8    -1
   17     15     3    16    -1
   18     16     3     4    -1
   19      5     3    17    -1
   20     17     3    15    -1
   21     18    16     9    -1
   22      9    16     4    -1
   23     19    18    13    -1
   24     13    18     9    -1
   25     16    21    15    -1
   26     15    21    20    -1
   27     17    15    22    -1
   28     27    22    15    -1
   29     23    21    18    -1
   30     18    21    16    -1
   31     23    18    24    -1
   32     24    18    19    -1
   33     26    25    21    -1
   34     21    25    20    -1
   35     27    15    20    -1
   36     25    32    27    -1
   37     26    21    28    -1
   38     28    21    23    -1
   39     29    28    24    -1
   40     24    28    23    -1
   41     26    31    25    -1
   42     25    31    30    -1
   43     25    27    20    -1
   44     36    32    25    -1
   45     31    26    33    -1
   46     33    26    28    -1
   47     33    28    34    -1
   48     34    28    29    -1
   49     31    37    30    -1
   50     36    25    30    -1
   51     74    36    30    -1
   52     35    37    31    -1
   53     35    31    38    -1
   54     38    31    33    -1
   55     38    33    39    -1
   56     39    33    34    -1
   57     77    37    35    -1
   58     40    35    41    -1
   59     41    35    38    -1
   60     43    42    44    -1
   61     11    42    12    -1
   62     12    42    43    -1
   63     45    42    11    -1
   64     46    42    45    -1
   65     44    42    46    -1
   66     47    43    44    -1
   67     52    48    43    -1
   68     49    12    48    -1
   69     48    12    43    -1
   70     51    50    44    -1
   71     52    43    47    -1
   72     44    50    47    -1
   73     55    52    47    -1
   74     53    50    51    -1
   75     54    50    53    -1
   76    100    55    50    -1
   77     55    47    50    -1
   78     56    49    57    -1
   79    107    57    48    -1
   80     57    49    48    -1
   81      6     5    58    -1
   82     59     5    17    -1
   83     58     5    59    -1
   84      2     6    60    -1
   85     60     6    61    -1
   86     61     6    58    -1
   87     11     2    60    -1
   88     45    11    60    -1
   89     49     7    12    -1
   90     62    10    56    -1
   91     56    10    49    -1
   92     14    10    62    -1
   93     14    62    63    -1
   94    112    64    62    -1
   95     63    62    64    -1
   96     65    13    63    -1
   97     63    13    14    -1
   98     59    17    66    -1
   99     68    66    17    -1
  100     65    67    13    -1
  101     13    67    19    -1
  102     68    17    22    -1
  103     27    70    68    -1
  104     24    19    69    -1
  105     69    19    67    -1
  106     27    68    22    -1
  107     72    70    27    -1
  108     29    24    71    -1
  109     71    24    69    -1
  110     72    27    32    -1
  111     75    72    32    -1
  112     73    34    71    -1
  113     71    34    29    -1
  114     37    74    30    -1
  115     75    32    36    -1
  116     78    75    36    -1
  117     39    34    76    -1
  118     76    34    73    -1
  119     37    79    74    -1
  120     78    36    74    -1
  121    130    78    74    -1
  122     77    79    37    -1
  123     40    77    35    -1
  124     41    38    80    -1
  125     80    38    39    -1
  126     80    39    81    -1
  127     81    39    76    -1
  128     40    83    77    -1
  129    132    79    77    -1
  130     82    83    40    -1
  131     82    40    84    -1
  132     84    40    41    -1
  133     84    41    85    -1
  134     85    41    80    -1
  135    160    83    82    -1
  136     86    82    87    -1
  137     87    82    84    -1
  138     88    46    89    -1
  139     89    45    60    -1
  140     89    46    45    -1
  141     90    46    91    -1
  142     51    44    46    -1
  143     91    46    88    -1
  144     92    90    93    -1
  145     51    46    90    -1
  146     51    90    92    -1
  147     93    90    91    -1
  148     51    92    53    -1
  149     53    92    94    -1
  150     94    92    95    -1
  151     95    92    93    -1
  152     96    53    94    -1
  153     54    53    96    -1
  154     54    96    97    -1
  155     97    96    98    -1
  156     98    96    99    -1
  157     99    96    94    -1
  158    101   100    54    -1
  159    100    50    54    -1
  160    105   101    97    -1
  161    101    54    97    -1
  162    102    97    98    -1
  163    103   100   104    -1
  164    104   100   101    -1
  165    102   105    97    -1
  166    206   104   101    -1
  167    106    55   103    -1
  168    103    55   100    -1
  169    107    52   106    -1
  170    106    52    55    -1
  171    107    48    52    -1
  172    108   106   109    -1
  173    208   109   103    -1
  174    109   106   103    -1
  175    110   107   108    -1
  176    108   107   106    -1
  177    111    57   110    -1
  178    110    57   107    -1
  179    112    56   111    -1
  180    111    56    57    -1
  181    113    58   114    -1
  182    119   114    59    -1
  183    114    58    59    -1
  184    115    61   113    -1
  185    113    61    58    -1
  186     89    60    61    -1
  187    112    62    56    -1
  188    116    63   117    -1
  189    117    63    64    -1
  190    117    64   112    -1
  191     65    63   118    -1
  192    118    63   116    -1
  193    119    59    66    -1
  194    121   119    66    -1
  195    120    67   118    -1
  196    118    67    65    -1
  197    121    66    68    -1
  198     70   123   121    -1
  199     69    67   122    -1
  200    122    67   120    -1
  201     70   121    68    -1
  202    123    70    72    -1
  203     71    69   124    -1
  204    124    69   122    -1
  205    123    72   125    -1
  206    125    72    75    -1
  207    126    73   124    -1
  208    124    73    71    -1
  209    125    75   127    -1
  210    127    75    78    -1
  211    126   128    73    -1
  212     73   128    76    -1
  213    127    78   129    -1
  214     79   130    74    -1
  215    129    78   130    -1
  216    131    81   128    -1
  217    128    81    76    -1
  218     83   132    77    -1
  219    161   130    79    -1
  220    139   133   134    -1
  221    134   133   135    -1
  222    135   133   136    -1
  223    141   136   133    -1
  224    137   133   138    -1
  225    138   133   139    -1
  226    148   140   136    -1
  227    137   141   133    -1
  228    142   136   140    -1
  229    135   136   142    -1
  230    143   142   140    -1
  231    144   142   143    -1
  232    135   142   145    -1
  233    145   142   144    -1
  234    146   140   147    -1
  235    141   148   136    -1
  236    147   140   148    -1
  237    146   149   140    -1
  238    140   149   143    -1
  239    144   143   150    -1
  240    150   143   151    -1
  241    151   143   149    -1
  242    146   154   149    -1
  243    153   151   154    -1
  244    152   154   146    -1
  245    154   151   149    -1
  246    152   146   155    -1
  247    155   146   147    -1
  248    232   154   152    -1
  249    157   156   155    -1
  250    155   156   152    -1
  251     85    80   158    -1
  252    158    80    81    -1
  253    160   159    83    -1
  254     83   159   132    -1
  255    161    79   132    -1
  256    164   161   132    -1
  257    163   162   160    -1
  258    160   162   159    -1
  259    164   132   159    -1
  260    167   164   159    -1
  261    166   165   163    -1
  262    163   165   162    -1
  263    167   159   162    -1
  264    169   167   162    -1
  265    168   165   166    -1
  266    169   162   165    -1
  267    169   165   170    -1
  268    170   165   168    -1
  269    141   137   171    -1
  270    137   172   171    -1
  271    138   172   137    -1
  272     86   160    82    -1
  273    173   163    86    -1
  274     86   163   160    -1
  275    174   166   173    -1
  276    173   166   163    -1
  277    175   168   174    -1
  278    174   168   166    -1
  279    176   141   171    -1
  280    148   141   176    -1
  281    176   168   177    -1
  282    177   168   175    -1
  283    170   168   176    -1
  284    148   176   177    -1
  285    170   176   171    -1
  286    150   179   144    -1
  287    145   144   179    -1
  288    178   179   150    -1
  289    180   147   148    -1
  290    180   177   175    -1
  291    180   148   177    -1
  292    180   175   181    -1
  293    181   175   174    -1
  294    181   174   182    -1
  295    182   174   173    -1
  296    173    86   183    -1
  297    183    86    87    -1
  298    182   173   183    -1
  299    246   179   178    -1
  300    184   178   185    -1
  301    185   178   186    -1
  302    186   178   150    -1
  303    186   150   151    -1
  304    186   151   187    -1
  305    187   151   153    -1
  306    155   147   188    -1
  307    188   147   180    -1
  308    188   180   181    -1
  309    188   181   189    -1
  310    189   181   182    -1
  311    190   182   183    -1
  312    189   182   190    -1
  313    190   183   191    -1
  314    191   183    87    -1
  315    191    87   192    -1
  316    192    87    84    -1
  317    192    84    85    -1
  318    256   157   155    -1
  319    189   190   193    -1
  320    193   190   194    -1
  321    195   194   190    -1
  322    195   190   191    -1
  323    195   191   192    -1
  324    195   192   196    -1
  325    158   196   192    -1
  326    158   192    85    -1
  327    198   197    89    -1
  328    115   198    89    -1
  329     89   197    88    -1
  330    199    91   197    -1
  331    197    91    88    -1
  332    200    93   199    -1
  333    199    93    91    -1
  334    201    95   200    -1
  335    200    95    93    -1
  336    202    94    95    -1
  337     99    94   202    -1
  338    102    98   203    -1
  339    204    98    99    -1
  340    203    98   204    -1
  341    207   105   102    -1
  342    205   102   203    -1
  343    206   101   105    -1
  344    272   206   105    -1
  345    205   207   102    -1
  346    208   103   104    -1
  347    271   208   104    -1
  348    108   109   209    -1
  349    210   109   208    -1
  350    209   109   210    -1
  351    110   108   211    -1
  352    211   108   209    -1
  353    111   110   212    -1
  354    212   110   211    -1
  355    112   111   213    -1
  356    213   111   212    -1
  357    214   113   215    -1
  358    218   215   114    -1
  359    215   113   114    -1
  360    115    89    61    -1
  361    117   112   213    -1
  362    118   116   216    -1
  363    217   116   117    -1
  364    216   116   217    -1
  365    218   114   119    -1
  366    220   218   119    -1
  367    120   118   219    -1
  368    219   118   216    -1
  369    220   119   121    -1
  370    222   220   121    -1
  371    221   122   219    -1
  372    219   122   120    -1
  373    222   121   123    -1
  374    222   123   125    -1
  375    223   124   221    -1
  376    221   124   122    -1
  377    222   125   224    -1
  378    224   125   127    -1
  379    225   126   223    -1
  380    223   126   124    -1
  381    224   127   226    -1
  382    226   127   129    -1
  383    227   128   225    -1
  384    225   128   126    -1
  385    129   130   228    -1
  386    228   130   161    -1
  387    230   229   134    -1
  388    134   229   139    -1
  389    138   139   229    -1
  390    230   134   231    -1
  391    231   134   135    -1
  392    231   135   145    -1
  393    156   232   152    -1
  394    153   154   233    -1
  395    233   154   232    -1
  396    234   232   235    -1
  397    235   232   156    -1
  398    233   232   234    -1
  399    235   156   157    -1
  400    236   158   131    -1
  401    131   158    81    -1
  402    228   161   237    -1
  403    237   161   164    -1
  404    237   164   238    -1
  405    238   164   167    -1
  406    238   167   239    -1
  407    241   239   167    -1
  408    240   169   170    -1
  409    241   167   169    -1
  410    241   169   240    -1
  411    242   172   243    -1
  412    243   138   229    -1
  413    243   172   138    -1
  414    171   172   170    -1
  415    170   172   240    -1
  416    241   240   244    -1
  417    242   244   240    -1
  418    242   240   172    -1
  419    245   145   179    -1
  420    231   145   245    -1
  421    179   248   245    -1
  422    231   245   247    -1
  423    300   247   245    -1
  424    246   248   179    -1
  425    184   246   178    -1
  426    302   248   246    -1
  427    250   249   184    -1
  428    184   249   246    -1
  429    250   184   251    -1
  430    251   184   185    -1
  431    251   185   252    -1
  432    252   185   253    -1
  433    253   185   186    -1
  434    253   186   187    -1
  435    253   187   254    -1
  436    254   187   255    -1
  437    255   187   153    -1
  438    255   153   233    -1
  439    256   188   189    -1
  440    256   155   188    -1
  441    256   189   193    -1
  442    257   157   258    -1
  443    258   256   193    -1
  444    258   157   256    -1
  445    258   193   259    -1
  446    260   259   193    -1
  447    235   157   257    -1
  448    260   193   194    -1
  449    261   260   194    -1
  450    261   194   195    -1
  451    262   261   195    -1
  452    262   195   196    -1
  453    236   262   196    -1
  454    236   196   158    -1
  455    263   197   264    -1
  456    281   264   198    -1
  457    264   197   198    -1
  458    265   199   263    -1
  459    263   199   197    -1
  460    266   200   265    -1
  461    265   200   199    -1
  462    267   201   266    -1
  463    266   201   200    -1
  464    268   202   201    -1
  465    201   202    95    -1
  466     99   202   269    -1
  467    270   269   268    -1
  468    268   269   202    -1
  469    204    99   269    -1
  470    274   271   206    -1
  471    271   104   206    -1
  472    207   272   105    -1
  473    208   271   273    -1
  474    272   274   206    -1
  475    275   271   274    -1
  476    273   271   275    -1
  477    210   208   273    -1
  478    209   210   276    -1
  479    277   210   273    -1
  480    276   210   277    -1
  481    211   209   278    -1
  482    278   209   276    -1
  483    212   211   279    -1
  484    279   211   278    -1
  485    213   212   280    -1
  486    280   212   279    -1
  487    281   115   214    -1
  488    214   115   113    -1
  489    281   198   115    -1
  490    117   213   282    -1
  491    282   213   280    -1
  492    217   117   282    -1
  493    226   129   283    -1
  494    283   129   228    -1
  495    284   131   227    -1
  496    227   131   128    -1
  497    283   228   285    -1
  498    285   228   237    -1
  499    243   229   286    -1
  500    286   229   230    -1
  501    287   230   231    -1
  502    286   230   288    -1
  503    288   230   287    -1
  504    233   234   289    -1
  505    289   234   290    -1
  506    290   234   291    -1
  507    291   234   235    -1
  508    291   235   257    -1
  509    292   236   284    -1
  510    284   236   131    -1
  511    285   237   293    -1
  512    293   237   238    -1
  513    293   238   294    -1
  514    294   238   239    -1
  515    294   239   295    -1
  516    295   239   241    -1
  517    295   241   296    -1
  518    296   241   244    -1
  519    297   242   298    -1
  520    298   243   286    -1
  521    298   242   243    -1
  522    296   244   299    -1
  523    242   297   299    -1
  524    242   299   244    -1
  525    287   231   247    -1
  526    248   300   245    -1
  527    287   247   301    -1
  528    301   247   300    -1
  529    248   304   300    -1
  530    301   300   303    -1
  531    303   300   304    -1
  532    302   304   248    -1
  533    249   302   246    -1
  534    374   304   302    -1
  535    306   305   249    -1
  536    249   305   302    -1
  537    307   306   250    -1
  538    250   306   249    -1
  539    307   250   308    -1
  540    308   250   251    -1
  541    308   251   309    -1
  542    309   251   252    -1
  543    309   252   310    -1
  544    310   252   311    -1
  545    311   252   253    -1
  546    311   253   254    -1
  547    312   311   313    -1
  548    313   311   254    -1
  549    314   313   254    -1
  550    314   254   255    -1
  551    314   255   233    -1
  552    314   233   289    -1
  553    257   258   315    -1
  554    317   316   258    -1
  555    315   258   316    -1
  556    317   258   259    -1
  557    318   317   259    -1
  558    291   257   315    -1
  559    318   259   260    -1
  560    319   318   260    -1
  561    319   260   261    -1
  562    320   319   261    -1
  563    320   261   262    -1
  564    292   320   262    -1
  565    292   262   236    -1
  566    321   263   322    -1
  567    335   322   264    -1
  568    322   263   264    -1
  569    323   265   321    -1
  570    321   265   263    -1
  571    324   268   267    -1
  572    267   268   201    -1
  573    324   270   268    -1
  574    325   270   324    -1
  575    204   269   326    -1
  576    326   269   270    -1
  577    203   204   326    -1
  578    205   203   326    -1
  579    207   205   326    -1
  580    272   207   326    -1
  581    274   272   326    -1
  582    275   274   327    -1
  583    327   274   326    -1
  584    273   275   328    -1
  585    329   275   327    -1
  586    328   275   329    -1
  587    277   273   328    -1
  588    279   278   330    -1
  589    331   278   276    -1
  590    330   278   331    -1
  591    280   279   332    -1
  592    332   279   330    -1
  593    333   214   334    -1
  594    339   334   215    -1
  595    334   214   215    -1
  596    335   281   333    -1
  597    333   281   214    -1
  598    335   264   281    -1
  599    282   280   336    -1
  600    336   280   332    -1
  601    217   282   337    -1
  602    337   282   336    -1
  603    216   217   338    -1
  604    338   217   337    -1
  605    402   218   220    -1
  606    403   218   402    -1
  607    403   339   215    -1
  608    403   215   218    -1
  609    219   216   344    -1
  610    344   216   340    -1
  611    340   216   338    -1
  612    402   220   341    -1
  613    341   220   342    -1
  614    222   350   650    -1
  615    342   220   650    -1
  616    221   219   343    -1
  617    343   219   344    -1
  618    345   344   346    -1
  619    343   344   345    -1
  620    346   344   340    -1
  621    343   345   347    -1
  622    347   345   348    -1
  623    348   345   349    -1
  624    349   345   346    -1
  625    222   650   220    -1
  626    350   222   224    -1
  627    352   351   347    -1
  628    347   351   343    -1
  629    353   351   352    -1
  630    221   351   223    -1
  631    343   351   221    -1
  632    223   351   353    -1
  633    354   352   347    -1
  634    353   352   355    -1
  635    355   352   356    -1
  636    356   352   354    -1
  637    354   347   348    -1
  638    350   224   357    -1
  639    357   224   226    -1
  640    358   225   353    -1
  641    353   225   223    -1
  642    356   354   359    -1
  643    360   354   348    -1
  644    359   354   360    -1
  645    357   226   361    -1
  646    361   226   283    -1
  647    362   227   358    -1
  648    358   227   225    -1
  649    361   283   363    -1
  650    283   367   363    -1
  651    364   284   362    -1
  652    362   284   227    -1
  653    365   285   473    -1
  654    473   285   483    -1
  655    366   483   293    -1
  656    365   367   283    -1
  657    285   365   283    -1
  658    293   483   285    -1
  659    368   292   364    -1
  660    364   292   284    -1
  661    366   293   369    -1
  662    369   293   294    -1
  663    288   287   370    -1
  664    370   287   301    -1
  665    370   301   371    -1
  666    371   301   303    -1
  667    372   303   304    -1
  668    371   303   373    -1
  669    373   303   372    -1
  670    374   372   304    -1
  671    373   372   375    -1
  672    375   372   376    -1
  673    376   372   374    -1
  674    305   374   302    -1
  675    376   374   377    -1
  676    305   378   374    -1
  677    374   378   377    -1
  678    379   378   306    -1
  679    306   378   305    -1
  680    380   379   307    -1
  681    307   379   306    -1
  682    380   307   381    -1
  683    381   307   308    -1
  684    381   308   382    -1
  685    382   308   309    -1
  686    383   382   310    -1
  687    310   382   309    -1
  688    312   384   310    -1
  689    384   385   310    -1
  690    310   385   383    -1
  691    312   310   311    -1
  692    386   384   387    -1
  693    387   384   312    -1
  694    388   387   312    -1
  695    388   312   313    -1
  696    389   388   313    -1
  697    389   313   314    -1
  698    390   389   314    -1
  699    390   314   289    -1
  700    390   289   290    -1
  701    391   320   368    -1
  702    368   320   292    -1
  703    392   266   323    -1
  704    323   266   265    -1
  705    393   267   392    -1
  706    392   267   266    -1
  707    394   324   393    -1
  708    393   324   267    -1
  709    395   325   394    -1
  710    394   325   324    -1
  711    270   325   326    -1
  712    326   325   395    -1
  713    396   327   326    -1
  714    329   327   396    -1
  715    329   396   397    -1
  716    398   396   326    -1
  717    397   396   398    -1
  718    328   329   399    -1
  719    399   329   397    -1
  720    277   328   400    -1
  721    400   328   399    -1
  722    276   277   401    -1
  723    401   277   400    -1
  724    331   276   401    -1
  725    406   403   402    -1
  726    405   404   341    -1
  727    341   404   402    -1
  728    404   406   402    -1
  729    409   339   403    -1
  730    346   340   407    -1
  731    407   340   338    -1
  732    409   406   413    -1
  733    411   410   412    -1
  734    412   410   408    -1
  735    404   412   408    -1
  736    413   408   410    -1
  737    413   406   408    -1
  738    404   408   406    -1
  739    409   403   406    -1
  740    414   412   405    -1
  741    405   412   404    -1
  742    414   405   415    -1
  743    342   416   405    -1
  744    415   405   416    -1
  745    342   405   341    -1
  746    349   346   417    -1
  747    417   346   407    -1
  748    418   410   419    -1
  749    419   410   411    -1
  750    413   410   420    -1
  751    420   410   418    -1
  752    414   421   411    -1
  753    419   411   422    -1
  754    422   411   421    -1
  755    412   414   411    -1
  756    422   421   423    -1
  757    423   421   424    -1
  758    424   421   414    -1
  759    424   414   415    -1
  760    360   348   425    -1
  761    425   348   349    -1
  762    425   349   426    -1
  763    426   349   417    -1
  764    427   418   428    -1
  765    428   418   419    -1
  766    420   418   429    -1
  767    429   418   427    -1
  768    428   419   430    -1
  769    430   419   422    -1
  770    430   422   431    -1
  771    431   422   423    -1
  772    358   353   432    -1
  773    432   353   355    -1
  774    433   355   356    -1
  775    432   355   434    -1
  776    434   355   433    -1
  777    435   433   436    -1
  778    436   433   356    -1
  779    434   433   437    -1
  780    437   433   435    -1
  781    436   356   359    -1
  782    359   360   438    -1
  783    439   360   425    -1
  784    438   360   439    -1
  785    439   425   440    -1
  786    440   425   426    -1
  787    442   427   446    -1
  788    428   443   441    -1
  789    444   441   445    -1
  790    445   441   443    -1
  791    446   441   444    -1
  792    446   427   441    -1
  793    428   441   427    -1
  794    429   427   442    -1
  795    430   447   443    -1
  796    445   443   448    -1
  797    448   443   447    -1
  798    430   443   428    -1
  799    448   447   449    -1
  800    450   447   430    -1
  801    449   447   450    -1
  802    450   430   431    -1
  803    451   435   452    -1
  804    452   435   436    -1
  805    437   435   453    -1
  806    453   435   451    -1
  807    452   436   454    -1
  808    454   436   359    -1
  809    454   359   438    -1
  810    438   439   455    -1
  811    455   439   456    -1
  812    456   439   440    -1
  813    457   444   458    -1
  814    458   444   445    -1
  815    446   444   459    -1
  816    459   444   457    -1
  817    458   445   460    -1
  818    460   445   448    -1
  819    458   462   457    -1
  820    461   462   458    -1
  821    459   457   463    -1
  822    463   457   462    -1
  823    460   448   464    -1
  824    464   448   449    -1
  825    465   461   460    -1
  826    460   461   458    -1
  827    465   460   466    -1
  828    466   460   464    -1
  829    465   468   461    -1
  830    479   462   461    -1
  831    467   468   465    -1
  832    467   465   469    -1
  833    469   465   466    -1
  834    470   467   471    -1
  835    472   468   467    -1
  836    471   467   469    -1
  837    365   470   367    -1
  838    472   467   470    -1
  839    472   470   365    -1
  840    367   470   471    -1
  841    472   365   473    -1
  842    474   451   452    -1
  843    453   451   475    -1
  844    475   451   476    -1
  845    476   451   474    -1
  846    474   452   477    -1
  847    477   452   454    -1
  848    477   454   478    -1
  849    478   454   438    -1
  850    478   438   455    -1
  851    468   479   461    -1
  852    463   462   480    -1
  853    480   462   479    -1
  854    472   481   468    -1
  855    468   481   479    -1
  856    480   479   482    -1
  857    484   482   479    -1
  858    473   481   472    -1
  859    483   481   473    -1
  860    484   479   481    -1
  861    484   481   483    -1
  862    484   483   366    -1
  863    298   286   485    -1
  864    485   286   288    -1
  865    485   288   486    -1
  866    486   288   370    -1
  867    390   290   487    -1
  868    487   290   488    -1
  869    488   290   291    -1
  870    488   291   315    -1
  871    490   489   477    -1
  872    477   489   474    -1
  873    476   474   489    -1
  874    490   477   491    -1
  875    491   477   478    -1
  876    491   478   492    -1
  877    492   478   455    -1
  878    369   294   493    -1
  879    493   294   295    -1
  880    493   295   494    -1
  881    494   295   296    -1
  882    494   296   495    -1
  883    495   296   299    -1
  884    496   297   497    -1
  885    497   298   485    -1
  886    497   297   298    -1
  887    495   299   498    -1
  888    498   299   297    -1
  889    498   297   496    -1
  890    486   370   499    -1
  891    499   370   371    -1
  892    499   371   500    -1
  893    500   371   373    -1
  894    500   373   501    -1
  895    501   373   375    -1
  896    502   375   376    -1
  897    501   375   503    -1
  898    503   375   502    -1
  899    504   502   376    -1
  900    503   502   505    -1
  901    505   502   506    -1
  902    506   502   504    -1
  903    504   376   377    -1
  904    507   385   386    -1
  905    386   385   384    -1
  906    510   508   386    -1
  907    509   507   508    -1
  908    508   507   386    -1
  909    510   386   387    -1
  910    511   510   387    -1
  911    511   387   388    -1
  912    512   511   388    -1
  913    512   388   389    -1
  914    513   512   389    -1
  915    513   389   390    -1
  916    513   390   487    -1
  917    315   316   514    -1
  918    516   515   316    -1
  919    514   316   515    -1
  920    516   316   317    -1
  921    517   516   317    -1
  922    488   315   514    -1
  923    517   317   318    -1
  924    518   517   318    -1
  925    518   318   319    -1
  926    391   518   319    -1
  927    391   319   320    -1
  928    520   519   490    -1
  929    490   519   489    -1
  930    476   489   521    -1
  931    524   521   489    -1
  932    523   522   520    -1
  933    520   522   519    -1
  934    524   489   519    -1
  935    527   524   519    -1
  936    526   525   523    -1
  937    523   525   522    -1
  938    527   519   522    -1
  939    528   527   522    -1
  940    528   522   525    -1
  941    806   528   525    -1
  942    529   525   530    -1
  943    530   525   526    -1
  944    531   520   491    -1
  945    491   520   490    -1
  946    523   520   532    -1
  947    532   520   531    -1
  948    526   523   533    -1
  949    533   523   532    -1
  950    530   526   534    -1
  951    534   526   533    -1
  952    535   531   492    -1
  953    492   531   491    -1
  954    532   531   536    -1
  955    536   531   535    -1
  956    533   532   537    -1
  957    537   532   536    -1
  958    534   533   538    -1
  959    538   533   537    -1
  960    539   504   377    -1
  961    506   504   540    -1
  962    540   504   539    -1
  963    541   539   378    -1
  964    378   539   377    -1
  965    542   541   379    -1
  966    379   541   378    -1
  967    544   543   545    -1
  968    546   543   547    -1
  969    547   543   544    -1
  970    576   548   543    -1
  971    548   545   543    -1
  972    549   545   548    -1
  973    550   539   541    -1
  974    540   539   545    -1
  975    545   539   550    -1
  976    550   544   545    -1
  977    551   544   550    -1
  978    547   544   552    -1
  979    552   544   551    -1
  980    553   550   542    -1
  981    542   550   541    -1
  982    542   379   554    -1
  983    554   379   380    -1
  984    551   550   553    -1
  985    555   551   553    -1
  986    552   551   556    -1
  987    556   551   555    -1
  988    553   542   557    -1
  989    557   542   554    -1
  990    555   553   557    -1
  991    554   380   558    -1
  992    558   380   381    -1
  993    557   554   559    -1
  994    559   554   558    -1
  995    560   555   559    -1
  996    559   555   557    -1
  997    556   555   561    -1
  998    561   555   560    -1
  999    560   559   562    -1
 1000    563   559   558    -1
 1001    562   559   563    -1
 1002    563   558   564    -1
 1003    564   558   381    -1
 1004    561   560   565    -1
 1005    565   560   562    -1
 1006    566   562   567    -1
 1007    567   562   563    -1
 1008    567   563   564    -1
 1009    564   381   382    -1
 1010    568   564   382    -1
 1011    567   564   568    -1
 1012    569   565   566    -1
 1013    566   565   562    -1
 1014    383   568   382    -1
 1015    567   568   570    -1
 1016    570   568   571    -1
 1017    385   571   568    -1
 1018    569   566   572    -1
 1019    572   566   573    -1
 1020    573   566   567    -1
 1021    385   568   383    -1
 1022    574   571   507    -1
 1023    507   571   385    -1
 1024    576   575   577    -1
 1025    578   575   576    -1
 1026    579   575   580    -1
 1027    580   575   578    -1
 1028    581   575   579    -1
 1029    577   575   581    -1
 1030    578   576   546    -1
 1031    543   546   576    -1
 1032    582   576   577    -1
 1033    548   576   582    -1
 1034    583   580   584    -1
 1035    584   578   546    -1
 1036    584   580   578    -1
 1037    581   579   585    -1
 1038    585   579   586    -1
 1039    586   579   580    -1
 1040    584   546   547    -1
 1041    586   580   583    -1
 1042    587   583   588    -1
 1043    588   584   547    -1
 1044    588   583   584    -1
 1045    588   547   552    -1
 1046    586   583   587    -1
 1047    589   587   590    -1
 1048    590   587   588    -1
 1049    590   588   552    -1
 1050    590   552   556    -1
 1051    586   587   589    -1
 1052    591   589   590    -1
 1053    586   589   591    -1
 1054    592   590   561    -1
 1055    561   590   556    -1
 1056    591   590   592    -1
 1057    593   591   592    -1
 1058    586   591   593    -1
 1059    592   561   594    -1
 1060    594   561   565    -1
 1061    593   592   594    -1
 1062    595   593   594    -1
 1063    586   593   595    -1
 1064    594   565   596    -1
 1065    596   565   569    -1
 1066    595   594   596    -1
 1067    598   597   595    -1
 1068    586   595   597    -1
 1069    596   569   598    -1
 1070    598   569   572    -1
 1071    596   598   595    -1
 1072    586   597   599    -1
 1073    600   599   597    -1
 1074    598   572   600    -1
 1075    601   572   573    -1
 1076    600   572   601    -1
 1077    600   597   598    -1
 1078    321   322   602    -1
 1079    603   322   335    -1
 1080    602   322   603    -1
 1081    323   321   604    -1
 1082    604   321   602    -1
 1083    392   323   605    -1
 1084    605   323   604    -1
 1085    393   392   606    -1
 1086    606   392   605    -1
 1087    394   393   607    -1
 1088    607   393   606    -1
 1089    395   394   608    -1
 1090    608   394   607    -1
 1091    326   395   608    -1
 1092    398   326   609    -1
 1093    610   326   608    -1
 1094    611   326   612    -1
 1095    609   326   611    -1
 1096    613   326   610    -1
 1097    614   326   613    -1
 1098    615   326   614    -1
 1099    616   326   615    -1
 1100    617   326   616    -1
 1101    618   326   617    -1
 1102    612   326   618    -1
 1103    619   397   609    -1
 1104    609   397   398    -1
 1105    620   399   619    -1
 1106    619   399   397    -1
 1107    621   400   620    -1
 1108    620   400   399    -1
 1109    622   401   621    -1
 1110    621   401   400    -1
 1111    623   331   622    -1
 1112    622   331   401    -1
 1113    624   330   623    -1
 1114    623   330   331    -1
 1115    625   332   624    -1
 1116    624   332   330    -1
 1117    333   334   626    -1
 1118    634   334   339    -1
 1119    627   334   634    -1
 1120    628   334   627    -1
 1121    626   334   628    -1
 1122    335   333   629    -1
 1123    629   333   626    -1
 1124    603   335   629    -1
 1125    630   336   625    -1
 1126    625   336   332    -1
 1127    631   337   630    -1
 1128    630   337   336    -1
 1129    338   337   632    -1
 1130    632   337   631    -1
 1131    634   633   627    -1
 1132    627   633   635    -1
 1133    636   633   413    -1
 1134    413   633   409    -1
 1135    409   633   634    -1
 1136    635   633   636    -1
 1137    409   634   339    -1
 1138    628   627   637    -1
 1139    637   627   635    -1
 1140    639   338   632    -1
 1141    407   338   638    -1
 1142    638   338   639    -1
 1143    417   407   640    -1
 1144    640   407   638    -1
 1145    641   636   642    -1
 1146    635   636   641    -1
 1147    642   636   420    -1
 1148    420   636   413    -1
 1149    635   641   643    -1
 1150    644   641   642    -1
 1151    645   641   644    -1
 1152    643   641   645    -1
 1153    637   635   643    -1
 1154    646   416   342    -1
 1155    415   416   647    -1
 1156    647   416   646    -1
 1157    646   648   649    -1
 1158    650   648   646    -1
 1159    653   648   650    -1
 1160    649   648   651    -1
 1161    652   648   653    -1
 1162    651   648   652    -1
 1163    650   646   342    -1
 1164    647   646   649    -1
 1165    653   650   654    -1
 1166    662   654   650    -1
 1167    652   653   655    -1
 1168    655   653   654    -1
 1169    644   642   656    -1
 1170    656   642   429    -1
 1171    429   642   420    -1
 1172    657   644   656    -1
 1173    645   644   658    -1
 1174    658   644   657    -1
 1175    647   649   659    -1
 1176    659   649   660    -1
 1177    660   649   651    -1
 1178    424   415   661    -1
 1179    661   415   647    -1
 1180    661   647   659    -1
 1181    662   650   350    -1
 1182    357   673   662    -1
 1183    426   417   663    -1
 1184    663   417   640    -1
 1185    657   656   664    -1
 1186    664   656   442    -1
 1187    442   656   429    -1
 1188    665   657   664    -1
 1189    658   657   666    -1
 1190    666   657   665    -1
 1191    668   667   669    -1
 1192    659   667   661    -1
 1193    661   667   668    -1
 1194    669   667   670    -1
 1195    671   667   659    -1
 1196    670   667   671    -1
 1197    668   423   424    -1
 1198    431   423   672    -1
 1199    672   423   668    -1
 1200    661   668   424    -1
 1201    672   668   669    -1
 1202    671   659   660    -1
 1203    357   662   350    -1
 1204    689   673   357    -1
 1205    674   432   434    -1
 1206    358   432   674    -1
 1207    674   434   675    -1
 1208    675   434   437    -1
 1209    440   426   676    -1
 1210    676   426   663    -1
 1211    442   446   677    -1
 1212    678   677   679    -1
 1213    664   677   665    -1
 1214    665   677   678    -1
 1215    679   677   459    -1
 1216    459   677   446    -1
 1217    664   442   677    -1
 1218    665   678   680    -1
 1219    681   678   679    -1
 1220    682   678   681    -1
 1221    680   678   682    -1
 1222    666   665   680    -1
 1223    669   683   672    -1
 1224    684   683   685    -1
 1225    672   683   684    -1
 1226    685   683   686    -1
 1227    687   683   669    -1
 1228    686   683   687    -1
 1229    684   450   431    -1
 1230    449   450   688    -1
 1231    688   450   684    -1
 1232    687   669   670    -1
 1233    684   431   672    -1
 1234    688   684   685    -1
 1235    689   357   361    -1
 1236    712   689   361    -1
 1237    362   358   690    -1
 1238    691   358   674    -1
 1239    690   358   691    -1
 1240    675   437   692    -1
 1241    692   437   453    -1
 1242    692   453   693    -1
 1243    693   453   475    -1
 1244    694   440   676    -1
 1245    456   440   694    -1
 1246    681   679   695    -1
 1247    695   679   463    -1
 1248    463   679   459    -1
 1249    696   681   695    -1
 1250    682   681   697    -1
 1251    697   681   696    -1
 1252    688   685   698    -1
 1253    698   685   699    -1
 1254    699   685   686    -1
 1255    464   449   700    -1
 1256    700   449   688    -1
 1257    700   688   698    -1
 1258    466   464   701    -1
 1259    701   464   700    -1
 1260    700   698   702    -1
 1261    702   698   703    -1
 1262    703   698   699    -1
 1263    701   700   702    -1
 1264    469   466   704    -1
 1265    704   466   701    -1
 1266    701   702   705    -1
 1267    705   702   706    -1
 1268    706   702   703    -1
 1269    704   701   705    -1
 1270    471   469   707    -1
 1271    707   469   704    -1
 1272    704   705   708    -1
 1273    708   705   709    -1
 1274    709   705   706    -1
 1275    707   704   708    -1
 1276    710   471   707    -1
 1277    367   471   710    -1
 1278    707   708   711    -1
 1279    711   708   713    -1
 1280    713   708   709    -1
 1281    710   707   711    -1
 1282    710   363   367    -1
 1283    711   363   710    -1
 1284    712   361   363    -1
 1285    712   363   711    -1
 1286    712   711   713    -1
 1287    364   362   714    -1
 1288    714   362   690    -1
 1289    715   475   476    -1
 1290    693   475   716    -1
 1291    716   475   715    -1
 1292    696   695   717    -1
 1293    717   695   480    -1
 1294    480   695   463    -1
 1295    718   696   717    -1
 1296    697   696   719    -1
 1297    719   696   718    -1
 1298    718   717   720    -1
 1299    720   717   482    -1
 1300    482   717   480    -1
 1301    721   718   720    -1
 1302    719   718   722    -1
 1303    722   718   721    -1
 1304    721   720   723    -1
 1305    723   720   484    -1
 1306    484   720   482    -1
 1307    724   721   723    -1
 1308    722   721   725    -1
 1309    725   721   724    -1
 1310    724   723   727    -1
 1311    366   727   484    -1
 1312    484   727   723    -1
 1313    728   724   727    -1
 1314    725   724   726    -1
 1315    730   726   724    -1
 1316    728   727   369    -1
 1317    369   727   366    -1
 1318    774   729   730    -1
 1319    728   774   730    -1
 1320    730   724   728    -1
 1321    731   485   732    -1
 1322    732   485   486    -1
 1323    497   485   733    -1
 1324    733   485   731    -1
 1325    732   486   734    -1
 1326    734   486   499    -1
 1327    513   487   735    -1
 1328    736   487   488    -1
 1329    735   487   736    -1
 1330    737   488   738    -1
 1331    738   488   514    -1
 1332    736   488   737    -1
 1333    368   364   739    -1
 1334    739   364   714    -1
 1335    740   715   741    -1
 1336    741   715   521    -1
 1337    521   715   476    -1
 1338    716   715   740    -1
 1339    742   740   741    -1
 1340    716   740   743    -1
 1341    743   740   744    -1
 1342    744   740   742    -1
 1343    746   745   747    -1
 1344    746   752   748    -1
 1345    746   748   745    -1
 1346    747   745   748    -1
 1347    750   746   751    -1
 1348    750   752   746    -1
 1349    751   746   747    -1
 1350    750   749   752    -1
 1351    747   748   753    -1
 1352    753   748   752    -1
 1353    754   750   755    -1
 1354    749   750   754    -1
 1355    755   750   751    -1
 1356    756   752   749    -1
 1357    753   752   757    -1
 1358    757   752   756    -1
 1359    758   492   456    -1
 1360    456   492   455    -1
 1361    456   694   759    -1
 1362    759   694   760    -1
 1363    761   694   676    -1
 1364    760   694   761    -1
 1365    749   754   762    -1
 1366    762   754   763    -1
 1367    763   754   755    -1
 1368    764   756   749    -1
 1369    757   756   765    -1
 1370    765   756   764    -1
 1371    767   766   764    -1
 1372    749   762   764    -1
 1373    768   766   767    -1
 1374    764   762   767    -1
 1375    758   456   759    -1
 1376    767   762   769    -1
 1377    769   762   763    -1
 1378    765   764   770    -1
 1379    770   764   766    -1
 1380    768   767   771    -1
 1381    771   767   769    -1
 1382    770   766   772    -1
 1383    772   766   768    -1
 1384    772   768   773    -1
 1385    773   768   771    -1
 1386    369   774   728    -1
 1387    775   774   369    -1
 1388    776   775   493    -1
 1389    775   369   493    -1
 1390    776   493   494    -1
 1391    777   776   494    -1
 1392    777   494   495    -1
 1393    779   777   495    -1
 1394    496   497   778    -1
 1395    778   497   733    -1
 1396    779   495   498    -1
 1397    778   779   498    -1
 1398    778   498   496    -1
 1399    780   734   499    -1
 1400    780   499   500    -1
 1401    781   780   500    -1
 1402    781   500   501    -1
 1403    782   781   501    -1
 1404    782   501   503    -1
 1405    784   782   503    -1
 1406    783   505   506    -1
 1407    784   503   505    -1
 1408    836   784   505    -1
 1409    785   508   786    -1
 1410    509   508   785    -1
 1411    786   508   510    -1
 1412    786   510   787    -1
 1413    787   510   511    -1
 1414    787   511   788    -1
 1415    788   511   512    -1
 1416    788   512   789    -1
 1417    789   512   513    -1
 1418    789   513   735    -1
 1419    738   514   790    -1
 1420    790   515   516    -1
 1421    790   514   515    -1
 1422    790   516   791    -1
 1423    791   516   517    -1
 1424    791   517   792    -1
 1425    792   517   518    -1
 1426    792   518   793    -1
 1427    793   518   391    -1
 1428    793   391   794    -1
 1429    794   391   368    -1
 1430    794   368   739    -1
 1431    742   741   795    -1
 1432    795   741   524    -1
 1433    524   741   521    -1
 1434    796   742   795    -1
 1435    744   742   797    -1
 1436    797   742   796    -1
 1437    798   795   527    -1
 1438    796   795   798    -1
 1439    527   795   524    -1
 1440    796   798   799    -1
 1441    528   800   527    -1
 1442    799   798   800    -1
 1443    527   800   798    -1
 1444    797   796   801    -1
 1445    801   796   799    -1
 1446    751   747   802    -1
 1447    802   747   803    -1
 1448    803   747   753    -1
 1449    799   800   804    -1
 1450    806   805   528    -1
 1451    804   800   805    -1
 1452    528   805   800    -1
 1453    803   753   807    -1
 1454    807   753   757    -1
 1455    808   751   802    -1
 1456    755   751   808    -1
 1457    809   805   803    -1
 1458    808   802   805    -1
 1459    803   805   802    -1
 1460    801   799   810    -1
 1461    810   799   804    -1
 1462    808   805   806    -1
 1463    804   805   809    -1
 1464    755   808   811    -1
 1465    811   808   806    -1
 1466    809   803   812    -1
 1467    812   803   807    -1
 1468    529   806   525    -1
 1469    813   804   809    -1
 1470    810   804   813    -1
 1471    811   806   529    -1
 1472    813   809   812    -1
 1473    763   755   811    -1
 1474    807   757   814    -1
 1475    814   757   765    -1
 1476    763   811   815    -1
 1477    815   811   529    -1
 1478    812   807   816    -1
 1479    816   807   814    -1
 1480    810   813   817    -1
 1481    817   813   818    -1
 1482    816   818   813    -1
 1483    815   529   530    -1
 1484    816   813   812    -1
 1485    769   763   815    -1
 1486    814   765   819    -1
 1487    819   765   770    -1
 1488    769   815   820    -1
 1489    820   815   530    -1
 1490    821   816   819    -1
 1491    819   816   814    -1
 1492    771   769   820    -1
 1493    819   770   822    -1
 1494    822   770   772    -1
 1495    820   530   534    -1
 1496    821   818   816    -1
 1497    823   818   821    -1
 1498    773   771   824    -1
 1499    824   771   820    -1
 1500    822   772   825    -1
 1501    825   772   773    -1
 1502    824   820   534    -1
 1503    821   819   826    -1
 1504    826   819   822    -1
 1505    825   773   824    -1
 1506    824   534   538    -1
 1507    827   823   826    -1
 1508    826   823   821    -1
 1509    535   492   828    -1
 1510    828   492   758    -1
 1511    758   759   829    -1
 1512    829   759   830    -1
 1513    830   759   760    -1
 1514    831   823   827    -1
 1515    818   823   832    -1
 1516    832   823   831    -1
 1517    825   824   538    -1
 1518    826   822   833    -1
 1519    833   822   825    -1
 1520    828   758   829    -1
 1521    833   825   538    -1
 1522    536   535   834    -1
 1523    834   535   828    -1
 1524    831   829   832    -1
 1525    828   829   831    -1
 1526    832   829   830    -1
 1527    833   538   537    -1
 1528    827   826   835    -1
 1529    835   826   833    -1
 1530    537   536   835    -1
 1531    835   536   834    -1
 1532    828   831   834    -1
 1533    834   831   827    -1
 1534    833   537   835    -1
 1535    834   827   835    -1
 1536    836   783   837    -1
 1537    837   783   838    -1
 1538    838   783   506    -1
 1539    836   505   783    -1
 1540    838   506   540    -1
 1541    839   836   837    -1
 1542    840   784   841    -1
 1543    841   784   836    -1
 1544    841   836   839    -1
 1545    843   842   844    -1
 1546    582   842   845    -1
 1547    845   842   846    -1
 1548    846   842   843    -1
 1549    844   842   577    -1
 1550    577   842   582    -1
 1551    847   843   848    -1
 1552    846   843   849    -1
 1553    849   843   847    -1
 1554    848   843   844    -1
 1555    548   582   850    -1
 1556    850   582   845    -1
 1557    849   847   851    -1
 1558    851   847   852    -1
 1559    852   847   853    -1
 1560    853   847   848    -1
 1561    549   548   850    -1
 1562    846   839   837    -1
 1563    845   837   850    -1
 1564    850   837   838    -1
 1565    854   839   846    -1
 1566    845   846   837    -1
 1567    841   839   854    -1
 1568    850   838   549    -1
 1569    549   838   540    -1
 1570    849   854   846    -1
 1571    855   841   856    -1
 1572    856   841   854    -1
 1573    856   854   849    -1
 1574    549   540   545    -1
 1575    856   849   851    -1
 1576    856   851   857    -1
 1577    857   851   858    -1
 1578    974   858   851    -1
 1579    860   859   861    -1
 1580    862   859   860    -1
 1581    863   859   864    -1
 1582    865   859   863    -1
 1583    864   859   862    -1
 1584    861   859   865    -1
 1585    573   567   570    -1
 1586    866   860   867    -1
 1587    862   860   868    -1
 1588    868   860   866    -1
 1589    867   860   861    -1
 1590    571   574   869    -1
 1591    573   570   870    -1
 1592    870   570   869    -1
 1593    871   866   872    -1
 1594    868   866   873    -1
 1595    873   866   871    -1
 1596    872   866   867    -1
 1597    871   869   574    -1
 1598    570   571   869    -1
 1599    870   869   874    -1
 1600    874   869   871    -1
 1601    873   871   574    -1
 1602    874   871   872    -1
 1603    785   862   868    -1
 1604    862   875   959    -1
 1605    875   862   785    -1
 1606    785   868   509    -1
 1607    509   868   873    -1
 1608    873   574   507    -1
 1609    509   873   507    -1
 1610    878   872   867    -1
 1611    861   876   867    -1
 1612    877   876   861    -1
 1613    601   573   870    -1
 1614    879   874   872    -1
 1615    876   878   867    -1
 1616    601   870   879    -1
 1617    879   870   874    -1
 1618    878   879   872    -1
 1619    875   785   786    -1
 1620    883   881   880    -1
 1621    581   880   844    -1
 1622    844   880   848    -1
 1623    848   880   881    -1
 1624    882   880   585    -1
 1625    585   880   581    -1
 1626    848   881   853    -1
 1627    882   883   880    -1
 1628    884   881   883    -1
 1629    853   881   884    -1
 1630    577   581   844    -1
 1631    883   882   586    -1
 1632    586   882   585    -1
 1633    884   883   885    -1
 1634    885   883   586    -1
 1635    886   586   887    -1
 1636    887   586   599    -1
 1637    885   586   888    -1
 1638    888   586   889    -1
 1639    889   586   890    -1
 1640    890   586   891    -1
 1641    891   586   892    -1
 1642    892   586   893    -1
 1643    893   586   894    -1
 1644    894   586   895    -1
 1645    895   586   886    -1
 1646    896   886   897    -1
 1647    897   886   887    -1
 1648    895   886   896    -1
 1649    897   887   599    -1
 1650    600   897   599    -1
 1651    897   879   878    -1
 1652    898   896   876    -1
 1653    876   896   878    -1
 1654    600   601   897    -1
 1655    897   601   879    -1
 1656    896   897   878    -1
 1657    895   896   898    -1
 1658    605   604   899    -1
 1659    900   604   602    -1
 1660    899   604   900    -1
 1661    606   605   901    -1
 1662    901   605   899    -1
 1663    607   606   902    -1
 1664    902   606   901    -1
 1665    608   607   610    -1
 1666    610   607   902    -1
 1667    613   610   902    -1
 1668    619   609   611    -1
 1669    904   903   612    -1
 1670    612   903   611    -1
 1671    903   619   611    -1
 1672    905   620   903    -1
 1673    903   620   619    -1
 1674    906   621   905    -1
 1675    905   621   620    -1
 1676    907   622   906    -1
 1677    906   622   621    -1
 1678    908   623   907    -1
 1679    907   623   622    -1
 1680    643   910   637    -1
 1681    909   910   643    -1
 1682    655   910   909    -1
 1683    637   910   911    -1
 1684    654   911   910    -1
 1685    628   637   911    -1
 1686    638   639   912    -1
 1687    912   639   632    -1
 1688    643   645   909    -1
 1689    909   645   913    -1
 1690    913   645   658    -1
 1691    652   909   913    -1
 1692    655   909   652    -1
 1693    651   652   913    -1
 1694    654   910   655    -1
 1695    914   638   915    -1
 1696    640   638   914    -1
 1697    915   638   912    -1
 1698    916   658   666    -1
 1699    913   658   916    -1
 1700    660   916   917    -1
 1701    913   916   651    -1
 1702    651   916   660    -1
 1703    917   916   666    -1
 1704    671   660   917    -1
 1705    640   914   918    -1
 1706    918   914   919    -1
 1707    919   914   920    -1
 1708    920   914   915    -1
 1709    663   640   918    -1
 1710    917   666   680    -1
 1711    671   917   921    -1
 1712    921   917   680    -1
 1713    670   671   921    -1
 1714    923   674   675    -1
 1715    922   674   923    -1
 1716    691   674   922    -1
 1717    923   675   924    -1
 1718    924   675   692    -1
 1719    925   692   693    -1
 1720    924   692   925    -1
 1721    926   925   693    -1
 1722    924   925   927    -1
 1723    927   925   920    -1
 1724    920   925   926    -1
 1725    663   918   928    -1
 1726    929   918   919    -1
 1727    928   918   929    -1
 1728    676   663   928    -1
 1729    680   682   921    -1
 1730    930   682   697    -1
 1731    921   682   930    -1
 1732    921   930   670    -1
 1733    687   930   931    -1
 1734    670   930   687    -1
 1735    931   930   697    -1
 1736    686   687   931    -1
 1737    926   693   716    -1
 1738    919   926   743    -1
 1739    743   926   716    -1
 1740    920   926   919    -1
 1741    929   919   743    -1
 1742    761   676   928    -1
 1743    931   697   719    -1
 1744    686   931   932    -1
 1745    932   931   719    -1
 1746    932   719   722    -1
 1747    699   686   932    -1
 1748    699   932   933    -1
 1749    933   932   722    -1
 1750    703   699   933    -1
 1751    703   933   934    -1
 1752    725   933   722    -1
 1753    934   933   725    -1
 1754    706   703   934    -1
 1755    709   706   935    -1
 1756    935   706   934    -1
 1757    936   713   935    -1
 1758    935   713   709    -1
 1759    712   713   729    -1
 1760    729   713   936    -1
 1761    929   743   744    -1
 1762    928   929   937    -1
 1763    937   929   744    -1
 1764    761   928   937    -1
 1765    934   725   726    -1
 1766    935   934   726    -1
 1767    936   935   726    -1
 1768    730   936   726    -1
 1769    729   936   730    -1
 1770    733   731   938    -1
 1771    938   731   939    -1
 1772    939   731   940    -1
 1773    940   731   732    -1
 1774    941   732   734    -1
 1775    940   732   941    -1
 1776    735   736   942    -1
 1777    942   736   943    -1
 1778    943   736   737    -1
 1779    945   737   944    -1
 1780    944   737   738    -1
 1781    943   737   945    -1
 1782    937   744   797    -1
 1783    761   937   946    -1
 1784    946   937   797    -1
 1785    760   761   946    -1
 1786    947   774   948    -1
 1787    948   774   775    -1
 1788    949   948   775    -1
 1789    949   775   776    -1
 1790    950   949   776    -1
 1791    950   776   777    -1
 1792    952   950   777    -1
 1793    778   733   951    -1
 1794    951   733   938    -1
 1795    952   777   779    -1
 1796    951   952   779    -1
 1797    951   779   778    -1
 1798    941   734   780    -1
 1799    941   780   953    -1
 1800    954   953   780    -1
 1801    954   780   781    -1
 1802    955   954   781    -1
 1803    955   781   782    -1
 1804    840   955   782    -1
 1805    840   782   784    -1
 1806    956   955   957    -1
 1807    957   955   840    -1
 1808    855   957   840    -1
 1809    786   958   875    -1
 1810    787   958   786    -1
 1811    960   875   958    -1
 1812    959   875   960    -1
 1813    960   958   961    -1
 1814    961   958   787    -1
 1815    961   787   788    -1
 1816    961   788   962    -1
 1817    962   788   789    -1
 1818    962   789   963    -1
 1819    963   789   735    -1
 1820    963   735   942    -1
 1821    944   738   964    -1
 1822    791   965   964    -1
 1823    964   738   790    -1
 1824    791   964   790    -1
 1825    965   791   792    -1
 1826    965   792   966    -1
 1827    966   792   793    -1
 1828    966   793   967    -1
 1829    967   793   794    -1
 1830    967   794   968    -1
 1831    968   794   739    -1
 1832    946   797   801    -1
 1833    946   801   969    -1
 1834    969   801   810    -1
 1835    969   810   817    -1
 1836    760   946   969    -1
 1837    760   969   830    -1
 1838    830   969   817    -1
 1839    830   817   832    -1
 1840    832   817   818    -1
 1841    855   840   841    -1
 1842    970   855   856    -1
 1843    957   855   971    -1
 1844    971   855   970    -1
 1845    857   970   856    -1
 1846    972   970   857    -1
 1847    971   970   973    -1
 1848    973   970   972    -1
 1849    974   852   975    -1
 1850    974   851   852    -1
 1851    975   852   853    -1
 1852    976   858   977    -1
 1853    984   977   974    -1
 1854    977   858   974    -1
 1855    978   974   975    -1
 1856    972   857   979    -1
 1857    979   857   858    -1
 1858    980   972   979    -1
 1859    973   972   981    -1
 1860    981   972   980    -1
 1861    979   858   976    -1
 1862    976   977   982    -1
 1863    982   977   983    -1
 1864    989   983   977    -1
 1865    978   984   974    -1
 1866    985   979   976    -1
 1867    980   979   985    -1
 1868    985   976   982    -1
 1869    985   982   986    -1
 1870    987   982   983    -1
 1871    986   982   987    -1
 1872    987   983   988    -1
 1873    988   983   989    -1
 1874    984   989   977    -1
 1875    980   985   990    -1
 1876    990   985   986    -1
 1877    991   981   990    -1
 1878    990   981   980    -1
 1879    992   986   863    -1
 1880    863   987   988    -1
 1881    863   986   987    -1
 1882    990   986   993    -1
 1883    993   986   992    -1
 1884    863   988   865    -1
 1885    865   988   994    -1
 1886    994   988   989    -1
 1887    992   863   864    -1
 1888    995   991   993    -1
 1889    993   991   990    -1
 1890    993   992   959    -1
 1891    959   992   864    -1
 1892    861   865   996    -1
 1893    996   865   994    -1
 1894    864   862   959    -1
 1895    877   861   996    -1
 1896    960   995   959    -1
 1897    959   995   993    -1
 1898    853   884   975    -1
 1899    888   997   884    -1
 1900    975   884   997    -1
 1901    975   997   978    -1
 1902    885   888   884    -1
 1903    998   997   888    -1
 1904    978   997   998    -1
 1905    998   888   889    -1
 1906    984   978   999    -1
 1907    999   998   889    -1
 1908    999   978   998    -1
 1909    999   889   890    -1
 1910    989   984  1000    -1
 1911   1000   984   999    -1
 1912   1000   999   890    -1
 1913   1000   890   891    -1
 1914    994   989  1000    -1
 1915    994  1000  1001    -1
 1916    892  1001  1000    -1
 1917    892  1000   891    -1
 1918   1001   892  1002    -1
 1919   1002   892   893    -1
 1920    996   994  1001    -1
 1921    996  1001  1002    -1
 1922   1002   893  1003    -1
 1923   1003   893   894    -1
 1924    877   996  1002    -1
 1925    877  1002  1003    -1
 1926   1003   894   898    -1
 1927    898   894   895    -1
 1928    898   876   877    -1
 1929    898   877  1003    -1
 1930    602   603  1004    -1
 1931   1005   603   629    -1
 1932   1004   603  1005    -1
 1933    900   602  1004    -1
 1934    902   901  1006    -1
 1935   1007   901   899    -1
 1936   1006   901  1007    -1
 1937    613   902  1006    -1
 1938   1008   614   613    -1
 1939   1009   615   614    -1
 1940   1006  1008   613    -1
 1941   1010   616   615    -1
 1942   1008  1009   614    -1
 1943    617   616  1010    -1
 1944   1009  1010   615    -1
 1945    618   617  1011    -1
 1946   1011   617  1010    -1
 1947    612   618  1012    -1
 1948   1012   618  1011    -1
 1949    904   612  1012    -1
 1950   1013   905   904    -1
 1951    904   905   903    -1
 1952   1014   906  1013    -1
 1953   1013   906   905    -1
 1954   1015   624   908    -1
 1955    908   624   623    -1
 1956   1016   625  1015    -1
 1957   1015   625   624    -1
 1958    626   628  1017    -1
 1959   1017   628  1018    -1
 1960   1018   628   911    -1
 1961    629   626  1019    -1
 1962   1019   626  1017    -1
 1963   1005   629  1019    -1
 1964   1020   630  1016    -1
 1965   1016   630   625    -1
 1966    631   630  1021    -1
 1967   1021   630  1020    -1
 1968    632   631  1022    -1
 1969   1022   631  1021    -1
 1970   1018   911  1023    -1
 1971   1023   911   654    -1
 1972   1025  1024  1022    -1
 1973    912   632  1024    -1
 1974   1022  1024   632    -1
 1975   1023   654  1026    -1
 1976    662  1030  1026    -1
 1977    912  1024  1029    -1
 1978   1027  1024  1028    -1
 1979   1029  1024  1027    -1
 1980   1028  1024  1025    -1
 1981    915   912  1029    -1
 1982    927   915  1029    -1
 1983    920   915   927    -1
 1984    662  1026   654    -1
 1985   1032  1030   662    -1
 1986   1027   923  1029    -1
 1987    922   923  1027    -1
 1988   1029   923   927    -1
 1989    927   923   924    -1
 1990    922  1027  1031    -1
 1991   1031  1027  1028    -1
 1992   1032   662   673    -1
 1993   1034  1032   673    -1
 1994    691   922  1033    -1
 1995   1033   922  1031    -1
 1996   1034   673   689    -1
 1997   1036  1034   689    -1
 1998    690   691  1035    -1
 1999   1035   691  1033    -1
 2000   1038  1036   712    -1
 2001   1036   689   712    -1
 2002    714   690  1037    -1
 2003   1037   690  1035    -1
 2004   1038   712   729    -1
 2005    947  1038   729    -1
 2006    739   714  1039    -1
 2007   1039   714  1037    -1
 2008    947   729   774    -1
 2009    940   941  1040    -1
 2010   1040   941   953    -1
 2011   1040   953  1041    -1
 2012   1042  1041   953    -1
 2013   1042   953   954    -1
 2014    956  1042   954    -1
 2015    956   954   955    -1
 2016   1042   956  1043    -1
 2017   1043   956  1044    -1
 2018   1044   956   957    -1
 2019   1044   957   971    -1
 2020   1044   971  1045    -1
 2021   1045   971   973    -1
 2022   1045   973  1046    -1
 2023   1046   973   981    -1
 2024   1047  1046   991    -1
 2025    991  1046   981    -1
 2026   1048  1047   995    -1
 2027    995  1047   991    -1
 2028    960  1048   995    -1
 2029   1049  1048   960    -1
 2030   1049   960   961    -1
 2031    962  1049   961    -1
 2032   1094  1048  1049    -1
 2033   1050  1049   962    -1
 2034   1050   962   963    -1
 2035   1050   963  1051    -1
 2036   1051   963   942    -1
 2037   1051   942  1052    -1
 2038   1052   942   943    -1
 2039    968   739  1039    -1
 2040   1053  1004  1054    -1
 2041   1054  1005  1019    -1
 2042   1054  1004  1005    -1
 2043    900  1004  1055    -1
 2044   1055  1004  1053    -1
 2045    899   900  1056    -1
 2046   1056   900  1055    -1
 2047   1007   899  1056    -1
 2048   1008  1006  1057    -1
 2049   1057  1006  1007    -1
 2050   1106  1057  1007    -1
 2051   1107  1009  1008    -1
 2052    904  1012  1058    -1
 2053   1058  1012  1059    -1
 2054   1059  1012  1011    -1
 2055   1013   904  1058    -1
 2056   1014  1013  1060    -1
 2057   1060  1013  1058    -1
 2058   1061   907  1014    -1
 2059   1014   907   906    -1
 2060   1062   908  1061    -1
 2061   1061   908   907    -1
 2062   1063  1015  1062    -1
 2063   1062  1015   908    -1
 2064   1064  1016  1063    -1
 2065   1063  1016  1015    -1
 2066   1019  1017  1065    -1
 2067   1065  1017  1066    -1
 2068   1066  1017  1018    -1
 2069   1054  1019  1065    -1
 2070   1067  1020  1064    -1
 2071   1064  1020  1016    -1
 2072   1067  1068  1020    -1
 2073   1020  1068  1021    -1
 2074   1070  1069  1036    -1
 2075   1036  1069  1034    -1
 2076   1073  1070  1036    -1
 2077   1037  1035  1071    -1
 2078   1071  1035  1072    -1
 2079   1072  1035  1033    -1
 2080   1081  1073  1038    -1
 2081   1073  1036  1038    -1
 2082   1074   938  1075    -1
 2083   1075   938   939    -1
 2084   1076  1075   939    -1
 2085   1076   939   940    -1
 2086   1076   940  1040    -1
 2087   1052   943  1077    -1
 2088   1077   943   945    -1
 2089   1077   945  1078    -1
 2090    944  1079   945    -1
 2091    945  1079  1078    -1
 2092   1039  1037  1080    -1
 2093   1080  1037  1071    -1
 2094   1081  1038   947    -1
 2095   1082  1081   947    -1
 2096   1082   947   948    -1
 2097   1083  1082   948    -1
 2098   1083   948   949    -1
 2099    950  1084  1083    -1
 2100    950  1083   949    -1
 2101   1086  1084   950    -1
 2102    951   938  1085    -1
 2103   1085   938  1074    -1
 2104   1086   950   952    -1
 2105   1085  1086   952    -1
 2106   1085   952   951    -1
 2107   1076  1040  1087    -1
 2108   1087  1040  1088    -1
 2109   1088  1040  1041    -1
 2110   1088  1041  1089    -1
 2111   1089  1041  1042    -1
 2112   1089  1042  1043    -1
 2113   1089  1043  1090    -1
 2114   1090  1043  1091    -1
 2115   1091  1043  1044    -1
 2116   1091  1044  1045    -1
 2117   1091  1045  1092    -1
 2118   1092  1045  1046    -1
 2119   1093  1092  1047    -1
 2120   1047  1092  1046    -1
 2121   1048  1093  1047    -1
 2122   1094  1093  1048    -1
 2123   1050  1094  1049    -1
 2124   1050  1095  1094    -1
 2125   1147  1093  1094    -1
 2126   1051  1095  1050    -1
 2127   1095  1051  1052    -1
 2128   1096  1052  1077    -1
 2129   1095  1052  1097    -1
 2130   1097  1052  1096    -1
 2131   1079   944  1098    -1
 2132   1099  1098   964    -1
 2133   1098   944   964    -1
 2134   1099   964   965    -1
 2135   1099   965   966    -1
 2136   1099   966  1100    -1
 2137   1100   966   967    -1
 2138   1100   967  1101    -1
 2139   1101   967   968    -1
 2140   1101   968  1102    -1
 2141   1102   968  1039    -1
 2142   1102  1039  1080    -1
 2143   1104  1103  1054    -1
 2144   1115  1104  1054    -1
 2145   1054  1103  1053    -1
 2146   1105  1055  1103    -1
 2147   1103  1055  1053    -1
 2148   1106  1056  1105    -1
 2149   1105  1056  1055    -1
 2150   1106  1007  1056    -1
 2151   1107  1008  1057    -1
 2152   1161  1107  1057    -1
 2153   1108  1010  1009    -1
 2154   1011  1010  1108    -1
 2155   1107  1108  1009    -1
 2156   1059  1011  1108    -1
 2157   1109  1058  1059    -1
 2158   1060  1058  1109    -1
 2159   1061  1014  1110    -1
 2160   1110  1014  1060    -1
 2161   1111  1062  1110    -1
 2162   1110  1062  1061    -1
 2163   1063  1062  1112    -1
 2164   1112  1062  1111    -1
 2165   1064  1063  1113    -1
 2166   1113  1063  1112    -1
 2167   1114  1018  1023    -1
 2168   1066  1018  1114    -1
 2169   1115  1054  1065    -1
 2170   1170  1115  1065    -1
 2171   1067  1064  1116    -1
 2172   1116  1064  1113    -1
 2173   1117  1022  1068    -1
 2174   1068  1022  1021    -1
 2175   1114  1023  1118    -1
 2176   1118  1023  1026    -1
 2177   1117  1119  1022    -1
 2178   1022  1119  1025    -1
 2179   1118  1026  1120    -1
 2180   1122  1120  1026    -1
 2181   1121  1028  1119    -1
 2182   1119  1028  1025    -1
 2183   1122  1026  1030    -1
 2184   1124  1122  1030    -1
 2185   1031  1028  1123    -1
 2186   1123  1028  1121    -1
 2187   1124  1030  1032    -1
 2188   1069  1124  1032    -1
 2189   1125  1033  1123    -1
 2190   1123  1033  1031    -1
 2191   1069  1032  1034    -1
 2192   1072  1033  1125    -1
 2193   1070  1073  1126    -1
 2194   1127  1073  1081    -1
 2195   1126  1073  1127    -1
 2196   1128  1075  1076    -1
 2197   1074  1075  1128    -1
 2198   1128  1076  1087    -1
 2199   1128  1087  1188    -1
 2200   1188  1087  1129    -1
 2201   1129  1087  1088    -1
 2202   1077  1131  1096    -1
 2203   1148  1097  1096    -1
 2204   1193  1130  1096    -1
 2205   1078  1131  1077    -1
 2206   1079  1151  1131    -1
 2207   1132  1080  1133    -1
 2208   1185  1133  1071    -1
 2209   1133  1080  1071    -1
 2210   1127  1081  1134    -1
 2211   1134  1081  1082    -1
 2212   1134  1082  1135    -1
 2213   1135  1082  1083    -1
 2214   1135  1083  1136    -1
 2215   1136  1083  1084    -1
 2216   1136  1084  1137    -1
 2217   1140  1137  1084    -1
 2218   1085  1074  1138    -1
 2219   1138  1074  1139    -1
 2220   1139  1074  1128    -1
 2221   1138  1140  1086    -1
 2222   1140  1084  1086    -1
 2223   1138  1086  1085    -1
 2224   1141  1137  1142    -1
 2225   1142  1137  1140    -1
 2226   1142  1140  1138    -1
 2227   1142  1138  1143    -1
 2228   1189  1143  1138    -1
 2229   1129  1088  1144    -1
 2230   1144  1088  1089    -1
 2231   1144  1089  1090    -1
 2232   1144  1090  1145    -1
 2233   1145  1090  1146    -1
 2234   1146  1090  1091    -1
 2235   1146  1091  1092    -1
 2236   1093  1146  1092    -1
 2237   1147  1146  1093    -1
 2238   1095  1147  1094    -1
 2239   1095  1148  1147    -1
 2240   1145  1146  1147    -1
 2241   1097  1148  1095    -1
 2242   1130  1148  1096    -1
 2243   1099  1150  1098    -1
 2244   1098  1149  1151    -1
 2245   1098  1150  1149    -1
 2246   1154  1152  1149    -1
 2247   1153  1149  1152    -1
 2248   1151  1149  1153    -1
 2249   1099  1155  1150    -1
 2250   1154  1149  1150    -1
 2251   1206  1154  1150    -1
 2252   1100  1155  1099    -1
 2253   1079  1098  1151    -1
 2254   1079  1131  1078    -1
 2255   1156  1155  1100    -1
 2256   1156  1100  1101    -1
 2257   1157  1156  1101    -1
 2258   1157  1101  1102    -1
 2259   1157  1102  1080    -1
 2260   1157  1080  1132    -1
 2261   1158  1103  1159    -1
 2262   1159  1103  1104    -1
 2263   1172  1159  1104    -1
 2264   1105  1103  1160    -1
 2265   1160  1103  1158    -1
 2266   1161  1106  1160    -1
 2267   1160  1106  1105    -1
 2268   1161  1057  1106    -1
 2269   1162  1160  1163    -1
 2270   1168  1163  1158    -1
 2271   1163  1160  1158    -1
 2272   1164  1161  1162    -1
 2273   1162  1161  1160    -1
 2274   1108  1107  1164    -1
 2275   1164  1107  1161    -1
 2276   1108  1164  1059    -1
 2277   1059  1164  1109    -1
 2278   1109  1164  1162    -1
 2279   1165  1109  1162    -1
 2280   1060  1109  1165    -1
 2281   1166  1165  1163    -1
 2282   1060  1165  1110    -1
 2283   1110  1165  1166    -1
 2284   1163  1165  1162    -1
 2285   1110  1166  1111    -1
 2286   1111  1166  1167    -1
 2287   1163  1167  1166    -1
 2288   1168  1167  1163    -1
 2289   1112  1111  1167    -1
 2290   1113  1112  1169    -1
 2291   1169  1112  1167    -1
 2292   1170  1066  1171    -1
 2293   1176  1171  1114    -1
 2294   1171  1066  1114    -1
 2295   1170  1065  1066    -1
 2296   1172  1104  1115    -1
 2297   1210  1172  1115    -1
 2298   1173  1113  1169    -1
 2299   1116  1113  1173    -1
 2300   1068  1067  1174    -1
 2301   1174  1067  1116    -1
 2302   1117  1068  1175    -1
 2303   1175  1068  1174    -1
 2304   1176  1114  1118    -1
 2305   1178  1176  1118    -1
 2306   1119  1117  1177    -1
 2307   1177  1117  1175    -1
 2308   1178  1118  1120    -1
 2309   1178  1120  1122    -1
 2310   1179  1121  1177    -1
 2311   1177  1121  1119    -1
 2312   1178  1122  1180    -1
 2313   1182  1180  1122    -1
 2314   1181  1123  1179    -1
 2315   1179  1123  1121    -1
 2316   1182  1122  1124    -1
 2317   1182  1124  1069    -1
 2318   1181  1183  1123    -1
 2319   1123  1183  1125    -1
 2320   1182  1069  1184    -1
 2321   1184  1069  1070    -1
 2322   1185  1072  1183    -1
 2323   1183  1072  1125    -1
 2324   1184  1070  1126    -1
 2325   1185  1071  1072    -1
 2326   1126  1127  1186    -1
 2327   1186  1127  1187    -1
 2328   1187  1127  1134    -1
 2329   1189  1139  1128    -1
 2330   1189  1128  1188    -1
 2331   1192  1189  1188    -1
 2332   1190  1188  1129    -1
 2333   1191  1129  1144    -1
 2334   1190  1129  1191    -1
 2335   1192  1188  1190    -1
 2336   1192  1190  1153    -1
 2337   1153  1190  1193    -1
 2338   1193  1190  1130    -1
 2339   1130  1191  1148    -1
 2340   1130  1190  1191    -1
 2341   1145  1191  1144    -1
 2342   1148  1191  1145    -1
 2343   1131  1193  1096    -1
 2344   1153  1193  1151    -1
 2345   1151  1193  1131    -1
 2346   1195  1132  1133    -1
 2347   1194  1132  1195    -1
 2348   1225  1195  1133    -1
 2349   1196  1134  1135    -1
 2350   1187  1134  1196    -1
 2351   1196  1135  1197    -1
 2352   1197  1135  1136    -1
 2353   1197  1136  1198    -1
 2354   1198  1136  1137    -1
 2355   1198  1137  1141    -1
 2356   1189  1138  1139    -1
 2357   1187  1196  1199    -1
 2358   1199  1196  1200    -1
 2359   1200  1196  1197    -1
 2360   1201  1197  1198    -1
 2361   1200  1197  1201    -1
 2362   1202  1198  1141    -1
 2363   1201  1198  1202    -1
 2364   1203  1141  1142    -1
 2365   1202  1141  1203    -1
 2366   1204  1143  1192    -1
 2367   1192  1143  1189    -1
 2368   1204  1205  1142    -1
 2369   1203  1142  1205    -1
 2370   1204  1142  1143    -1
 2371   1204  1192  1152    -1
 2372   1152  1192  1153    -1
 2373   1154  1205  1152    -1
 2374   1152  1205  1204    -1
 2375   1206  1203  1154    -1
 2376   1154  1203  1205    -1
 2377   1207  1202  1206    -1
 2378   1206  1202  1203    -1
 2379   1208  1201  1207    -1
 2380   1207  1201  1202    -1
 2381   1208  1200  1201    -1
 2382   1194  1200  1208    -1
 2383   1147  1148  1145    -1
 2384   1155  1206  1150    -1
 2385   1156  1207  1155    -1
 2386   1155  1207  1206    -1
 2387   1157  1208  1156    -1
 2388   1156  1208  1207    -1
 2389   1132  1194  1157    -1
 2390   1157  1194  1208    -1
 2391   1199  1200  1194    -1
 2392   1209  1168  1159    -1
 2393   1168  1158  1159    -1
 2394   1167  1168  1209    -1
 2395   1172  1209  1159    -1
 2396   1169  1167  1209    -1
 2397   1210  1170  1211    -1
 2398   1211  1170  1171    -1
 2399   1216  1211  1171    -1
 2400   1210  1115  1170    -1
 2401   1209  1172  1212    -1
 2402   1212  1172  1210    -1
 2403   1214  1212  1210    -1
 2404   1169  1209  1212    -1
 2405   1173  1169  1212    -1
 2406   1116  1173  1213    -1
 2407   1214  1173  1212    -1
 2408   1213  1173  1214    -1
 2409   1174  1116  1213    -1
 2410   1175  1174  1215    -1
 2411   1215  1174  1213    -1
 2412   1216  1171  1176    -1
 2413   1218  1216  1176    -1
 2414   1177  1175  1217    -1
 2415   1217  1175  1215    -1
 2416   1218  1176  1178    -1
 2417   1218  1178  1180    -1
 2418   1219  1179  1217    -1
 2419   1217  1179  1177    -1
 2420   1218  1180  1220    -1
 2421   1222  1220  1180    -1
 2422   1219  1221  1179    -1
 2423   1179  1221  1181    -1
 2424   1222  1180  1182    -1
 2425   1222  1182  1184    -1
 2426   1223  1183  1221    -1
 2427   1221  1183  1181    -1
 2428   1222  1184  1224    -1
 2429   1224  1184  1126    -1
 2430   1223  1185  1183    -1
 2431   1225  1185  1223    -1
 2432   1224  1126  1186    -1
 2433   1224  1186  1226    -1
 2434   1226  1186  1227    -1
 2435   1227  1186  1187    -1
 2436   1133  1185  1225    -1
 2437   1227  1195  1225    -1
 2438   1199  1195  1227    -1
 2439   1226  1227  1225    -1
 2440   1227  1187  1199    -1
 2441   1194  1195  1199    -1
 2442   1228  1214  1211    -1
 2443   1214  1210  1211    -1
 2444   1213  1214  1228    -1
 2445   1216  1228  1211    -1
 2446   1215  1213  1228    -1
 2447   1229  1228  1216    -1
 2448   1215  1228  1229    -1
 2449   1218  1229  1216    -1
 2450   1217  1215  1229    -1
 2451   1230  1229  1218    -1
 2452   1230  1219  1217    -1
 2453   1220  1230  1218    -1
 2454   1229  1230  1217    -1
 2455   1230  1220  1222    -1
 2456   1221  1219  1230    -1
 2457   1231  1230  1222    -1
 2458   1231  1221  1230    -1
 2459   1226  1231  1222    -1
 2460   1223  1221  1231    -1
 2461   1224  1226  1222    -1
 2462   1226  1223  1231    -1
 2463   1225  1223  1226    -1
# Generated by ./tetgen /home/yuzhang/repos/Gaia/Data/mesh_models/UnitTest/Teapot/teapot.ply 
