1232  3  0  0
   0    -0.16029399999999999  0.57572900000000005  0.166654
   1    -3.8000000000000002e-05  0.59672899999999995  0.166654
   2    -0.149894  0.53874500000000003  0.122654
   3    -0.16819400000000001  0.60422900000000002  0.22120899999999999
   4    -3.8000000000000002e-05  0.62632900000000002  0.22120899999999999
   5    -0.30324899999999999  0.51634500000000005  0.166654
   6    -0.28374899999999997  0.483045  0.122654
   7    -3.8000000000000002e-05  0.55832899999999996  0.122654
   8    0.160217  0.57572900000000005  0.166654
   9    0.16821700000000001  0.60422900000000002  0.22120899999999999
  10    0.14993999999999999  0.53874500000000003  0.122654
  11    -0.139594  0.50164500000000001  0.088654999999999998
  12    -3.8000000000000002e-05  0.51994499999999999  0.088654999999999998
  13    0.31829499999999999  0.54184500000000002  0.22120899999999999
  14    0.30329499999999998  0.51634500000000005  0.166654
  15    -0.17139399999999999  0.61562899999999998  0.287163
  16    -3.8000000000000002e-05  0.63812899999999995  0.287163
  17    -0.318249  0.54184500000000002  0.22120899999999999
  18    0.171317  0.61562899999999998  0.287163
  19    0.324295  0.552145  0.287163
  20    -0.16969400000000001  0.60962899999999998  0.36081800000000003
  21    -3.8000000000000002e-05  0.63182899999999997  0.36081800000000003
  22    -0.32424900000000001  0.552145  0.287163
  23    0.16961699999999999  0.60962899999999998  0.36081800000000003
  24    0.32109500000000002  0.54664500000000005  0.36081800000000003
  25    -0.164994  0.59282900000000005  0.43787300000000001
  26    -3.8000000000000002e-05  0.61452899999999999  0.43787300000000001
  27    -0.32104899999999997  0.54664500000000005  0.36081800000000003
  28    0.165017  0.59282900000000005  0.43787300000000001
  29    0.31229499999999999  0.53164500000000003  0.43787300000000001
  30    -0.157994  0.56752899999999995  0.51752699999999996
  31    -3.8000000000000002e-05  0.588229  0.51752699999999996
  32    -0.312249  0.53164500000000003  0.43787300000000001
  33    0.157917  0.56752899999999995  0.51752699999999996
  34    0.29889500000000002  0.50894499999999998  0.51752699999999996
  35    -3.8000000000000002e-05  0.55542899999999995  0.59918199999999999
  36    -0.29894900000000002  0.50894499999999998  0.51752699999999996
  37    -0.149094  0.53584500000000002  0.59918199999999999
  38    0.14913899999999999  0.53584500000000002  0.59918199999999999
  39    0.28219499999999997  0.480545  0.59918199999999999
  40    -3.8000000000000002e-05  0.51814499999999997  0.68213599999999996
  41    0.13914000000000001  0.49984499999999998  0.68213599999999996
  42    -0.13169400000000001  0.47314499999999998  0.063899999999999998
  43    -3.8000000000000002e-05  0.49044500000000002  0.063899999999999998
  44    -0.128494  0.46176099999999998  0.047899999999999998
  45    -0.249172  0.424261  0.063899999999999998
  46    -0.243172  0.41406100000000001  0.047899999999999998
  47    -3.8000000000000002e-05  0.47864499999999999  0.047899999999999998
  48    0.13163900000000001  0.47314499999999998  0.063899999999999998
  49    0.13963900000000001  0.50164500000000001  0.088654999999999998
  50    -3.8000000000000002e-05  0.47474499999999997  0.035999999999999997
  51    -0.127494  0.458061  0.035999999999999997
  52    0.12853999999999999  0.46176099999999998  0.047899999999999998
  53    -0.122294  0.43956099999999998  0.024799999999999999
  54    -3.8000000000000002e-05  0.45556099999999999  0.024799999999999999
  55    0.127439  0.458061  0.035999999999999997
  56    0.26419500000000001  0.44986100000000001  0.088654999999999998
  57    0.249195  0.424261  0.063899999999999998
  58    -0.39642699999999997  0.39646100000000001  0.122654
  59    -0.42372700000000002  0.42366100000000001  0.166654
  60    -0.26417200000000002  0.44986100000000001  0.088654999999999998
  61    -0.36912699999999998  0.36917699999999998  0.088654999999999998
  62    0.28369499999999997  0.483045  0.122654
  63    0.42375099999999999  0.42366100000000001  0.166654
  64    0.39647300000000002  0.39646100000000001  0.122654
  65    0.44465100000000002  0.44466099999999997  0.22120899999999999
  66    -0.44470500000000002  0.44466099999999997  0.22120899999999999
  67    0.45305099999999998  0.45306099999999999  0.287163
  68    -0.45310499999999998  0.45306099999999999  0.287163
  69    0.44865100000000002  0.44866099999999998  0.36081800000000003
  70    -0.44860499999999998  0.44866099999999998  0.36081800000000003
  71    0.436251  0.43626100000000001  0.43787300000000001
  72    -0.43632700000000002  0.43626100000000001  0.43787300000000001
  73    0.41765099999999999  0.417661  0.51752699999999996
  74    -0.28224900000000003  0.480545  0.59918199999999999
  75    -0.41762700000000003  0.417661  0.51752699999999996
  76    0.39437299999999997  0.39436100000000002  0.59918199999999999
  77    -0.139094  0.49984499999999998  0.68213599999999996
  78    -0.39432699999999998  0.39436100000000002  0.59918199999999999
  79    -0.26327200000000001  0.44826100000000002  0.68213599999999996
  80    0.263295  0.44826100000000002  0.68213599999999996
  81    0.36787300000000001  0.36787700000000001  0.68213599999999996
  82    -3.8000000000000002e-05  0.47864499999999999  0.765791
  83    -0.128494  0.46176099999999998  0.765791
  84    0.12853999999999999  0.46176099999999998  0.765791
  85    0.24319499999999999  0.41406100000000001  0.765791
  86    -3.8000000000000002e-05  0.46796100000000002  0.78319000000000005
  87    0.125639  0.451461  0.78319000000000005
  88    -0.33984900000000001  0.339777  0.047899999999999998
  89    -0.34814899999999999  0.34817700000000001  0.063899999999999998
  90    -0.24127199999999999  0.41076099999999999  0.035999999999999997
  91    -0.33704899999999999  0.33707700000000002  0.035999999999999997
  92    -0.23147200000000001  0.39416099999999998  0.024799999999999999
  93    -0.32344899999999999  0.32347700000000001  0.024799999999999999
  94    -0.20827200000000001  0.35457699999999998  0.014999999999999999
  95    -0.29094900000000001  0.29099399999999997  0.014999999999999999
  96    -0.10999399999999999  0.39536100000000002  0.014999999999999999
  97    -3.8000000000000002e-05  0.40976099999999999  0.014999999999999999
  98    -0.087615999999999999  0.31467699999999998  0.0071000000000000004
  99    -0.16569400000000001  0.282194  0.0071000000000000004
 100    0.12234  0.43956099999999998  0.024799999999999999
 101    0.11004  0.39536100000000002  0.014999999999999999
 102    -3.8000000000000002e-05  0.32617699999999999  0.0071000000000000004
 103    0.231517  0.39416099999999998  0.024799999999999999
 104    0.20821700000000001  0.35457699999999998  0.014999999999999999
 105    0.087540000000000007  0.31467699999999998  0.0071000000000000004
 106    0.24119499999999999  0.41076099999999999  0.035999999999999997
 107    0.24319499999999999  0.41406100000000001  0.047899999999999998
 108    0.33707300000000001  0.33707700000000002  0.035999999999999997
 109    0.32339499999999999  0.32347700000000001  0.024799999999999999
 110    0.33977299999999999  0.339777  0.047899999999999998
 111    0.34817300000000001  0.34817700000000001  0.063899999999999998
 112    0.36917299999999997  0.36917699999999998  0.088654999999999998
 113    -0.48310500000000001  0.283694  0.122654
 114    -0.51630500000000001  0.30327700000000002  0.166654
 115    -0.449905  0.26419399999999998  0.088654999999999998
 116    0.51632900000000004  0.30327700000000002  0.166654
 117    0.48305100000000001  0.283694  0.122654
 118    0.54182900000000001  0.31827699999999998  0.22120899999999999
 119    -0.541883  0.31827699999999998  0.22120899999999999
 120    0.55212899999999998  0.32427699999999998  0.287163
 121    -0.55208299999999999  0.32427699999999998  0.287163
 122    0.54662900000000003  0.321077  0.36081800000000003
 123    -0.54668300000000003  0.321077  0.36081800000000003
 124    0.53162900000000002  0.31227700000000003  0.43787300000000001
 125    -0.53168300000000002  0.31227700000000003  0.43787300000000001
 126    0.50892899999999996  0.29897699999999999  0.51752699999999996
 127    -0.50900500000000004  0.29897699999999999  0.51752699999999996
 128    0.48055100000000001  0.282194  0.59918199999999999
 129    -0.48050500000000002  0.282194  0.59918199999999999
 130    -0.36782700000000002  0.36787700000000001  0.68213599999999996
 131    0.44825100000000001  0.26329399999999997  0.68213599999999996
 132    -0.243172  0.41406100000000001  0.765791
 133    -0.23017199999999999  0.391961  0.75003600000000004
 134    -0.30534899999999998  0.30537700000000001  0.75083599999999995
 135    -0.21857199999999999  0.37207699999999999  0.75083599999999995
 136    -0.12159399999999999  0.43706099999999998  0.75003600000000004
 137    -0.22697200000000001  0.386461  0.765791
 138    -0.31714900000000001  0.31717699999999999  0.765791
 139    -0.32164900000000002  0.32167699999999999  0.75003600000000004
 140    -3.8000000000000002e-05  0.45306099999999999  0.75003600000000004
 141    -0.119994  0.43096099999999998  0.765791
 142    -0.115494  0.41496100000000002  0.75083599999999995
 143    -3.8000000000000002e-05  0.43006100000000003  0.75083599999999995
 144    -0.11139400000000001  0.40016099999999999  0.765791
 145    -0.21077199999999999  0.358877  0.765791
 146    0.121639  0.43706099999999998  0.75003600000000004
 147    0.119939  0.43096099999999998  0.765791
 148    -3.8000000000000002e-05  0.44666099999999997  0.765791
 149    0.11544  0.41496100000000002  0.75083599999999995
 150    -3.8000000000000002e-05  0.41476099999999999  0.765791
 151    0.11133899999999999  0.40016099999999999  0.765791
 152    0.230217  0.391961  0.75003600000000004
 153    0.210817  0.358877  0.765791
 154    0.21851699999999999  0.37207699999999999  0.75083599999999995
 155    0.227017  0.386461  0.765791
 156    0.32159500000000002  0.32167699999999999  0.75003600000000004
 157    0.317195  0.31717699999999999  0.765791
 158    0.33977299999999999  0.339777  0.765791
 159    -0.23777200000000001  0.40486100000000003  0.78319000000000005
 160    -0.125694  0.451461  0.78319000000000005
 161    -0.33984900000000001  0.339777  0.765791
 162    -0.23227200000000001  0.39546100000000001  0.79369100000000004
 163    -0.122694  0.44096099999999999  0.79369100000000004
 164    -0.33224900000000002  0.332177  0.78319000000000005
 165    -0.22747200000000001  0.38736100000000001  0.79718999999999995
 166    -0.120194  0.43196099999999998  0.79718999999999995
 167    -0.32444899999999999  0.32447700000000002  0.79369100000000004
 168    -0.118594  0.42616100000000001  0.79369100000000004
 169    -0.31784899999999999  0.31787700000000002  0.79718999999999995
 170    -0.224472  0.382077  0.79369100000000004
 171    -0.223972  0.38127699999999998  0.78319000000000005
 172    -0.31294899999999998  0.31297700000000001  0.78319000000000005
 173    -3.8000000000000002e-05  0.457061  0.79369100000000004
 174    -3.8000000000000002e-05  0.44766099999999998  0.79718999999999995
 175    -3.8000000000000002e-05  0.44166100000000003  0.79369100000000004
 176    -0.118394  0.425261  0.78319000000000005
 177    -3.8000000000000002e-05  0.44076100000000001  0.78319000000000005
 178    -3.8000000000000002e-05  0.39326100000000003  0.78608999999999996
 179    -0.10559399999999999  0.37937700000000002  0.78608999999999996
 180    0.118339  0.425261  0.78319000000000005
 181    0.11863899999999999  0.42616100000000001  0.79369100000000004
 182    0.120239  0.43196099999999998  0.79718999999999995
 183    0.122739  0.44096099999999999  0.79369100000000004
 184    -3.8000000000000002e-05  0.33797700000000003  0.80118999999999996
 185    0.090740000000000001  0.32607700000000001  0.80118999999999996
 186    0.10553999999999999  0.37937700000000002  0.78608999999999996
 187    0.19981699999999999  0.34017700000000001  0.78608999999999996
 188    0.223917  0.38127699999999998  0.78319000000000005
 189    0.22441700000000001  0.382077  0.79369100000000004
 190    0.227517  0.38736100000000001  0.79718999999999995
 191    0.23221700000000001  0.39546100000000001  0.79369100000000004
 192    0.237817  0.40486100000000003  0.78319000000000005
 193    0.31359500000000001  0.31357699999999999  0.79369100000000004
 194    0.31789499999999998  0.31787700000000002  0.79718999999999995
 195    0.32449499999999998  0.32447700000000002  0.79369100000000004
 196    0.33227299999999999  0.332177  0.78319000000000005
 197    -0.41402699999999998  0.24319399999999999  0.047899999999999998
 198    -0.42432700000000001  0.249194  0.063899999999999998
 199    -0.41072700000000001  0.24119399999999999  0.035999999999999997
 200    -0.39412700000000001  0.23149400000000001  0.024799999999999999
 201    -0.354549  0.20821000000000001  0.014999999999999999
 202    -0.231572  0.23159399999999999  0.0071000000000000004
 203    -0.051915999999999997  0.18651000000000001  0.0019
 204    -0.098215999999999998  0.16721  0.0019
 205    -3.8000000000000002e-05  0.19331000000000001  0.0019
 206    0.165717  0.282194  0.0071000000000000004
 207    0.051861999999999998  0.18651000000000001  0.0019
 208    0.290995  0.29099399999999997  0.014999999999999999
 209    0.41075099999999998  0.24119399999999999  0.035999999999999997
 210    0.394173  0.23149400000000001  0.024799999999999999
 211    0.414051  0.24319399999999999  0.047899999999999998
 212    0.42425099999999999  0.249194  0.063899999999999998
 213    0.449851  0.26419399999999998  0.088654999999999998
 214    -0.53868300000000002  0.14990999999999999  0.122654
 215    -0.57578300000000004  0.16020999999999999  0.166654
 216    0.60430600000000001  0.16821  0.22120899999999999
 217    0.57572900000000005  0.16020999999999999  0.166654
 218    -0.60428300000000001  0.16821  0.22120899999999999
 219    0.61570599999999998  0.17130999999999999  0.287163
 220    -0.61566100000000001  0.17130999999999999  0.287163
 221    0.60960599999999998  0.16971  0.36081800000000003
 222    -0.60958299999999999  0.16971  0.36081800000000003
 223    0.59290600000000004  0.16500999999999999  0.43787300000000001
 224    -0.59288300000000005  0.16500999999999999  0.43787300000000001
 225    0.56752899999999995  0.15801000000000001  0.51752699999999996
 226    -0.56758299999999995  0.15801000000000001  0.51752699999999996
 227    0.535829  0.14910999999999999  0.59918199999999999
 228    -0.44830500000000001  0.26329399999999997  0.68213599999999996
 229    -0.39192700000000003  0.23019400000000001  0.75003600000000004
 230    -0.37212699999999999  0.21859400000000001  0.75083599999999995
 231    -0.29444900000000002  0.29449399999999998  0.765791
 232    0.30539500000000003  0.30537700000000001  0.75083599999999995
 233    0.29449500000000001  0.29449399999999998  0.765791
 234    0.37207299999999999  0.21859400000000001  0.75083599999999995
 235    0.39197300000000002  0.23019400000000001  0.75003600000000004
 236    0.414051  0.24319399999999999  0.765791
 237    -0.41402699999999998  0.24319399999999999  0.765791
 238    -0.40482699999999999  0.23779400000000001  0.78319000000000005
 239    -0.39542699999999997  0.23219400000000001  0.79369100000000004
 240    -0.31354900000000002  0.31357699999999999  0.79369100000000004
 241    -0.38732699999999998  0.227494  0.79718999999999995
 242    -0.38132700000000003  0.223994  0.78319000000000005
 243    -0.38642700000000002  0.226994  0.765791
 244    -0.38212699999999999  0.22439400000000001  0.79369100000000004
 245    -0.19977200000000001  0.34017700000000001  0.78608999999999996
 246    -0.090716000000000005  0.32607700000000001  0.80118999999999996
 247    -0.27914899999999998  0.279194  0.78608999999999996
 248    -0.17169400000000001  0.29239399999999999  0.80118999999999996
 249    -0.070716000000000001  0.253994  0.81359099999999995
 250    -3.8000000000000002e-05  0.26319399999999998  0.81359099999999995
 251    0.070638999999999993  0.253994  0.81359099999999995
 252    0.13374  0.22769400000000001  0.81359099999999995
 253    0.17171700000000001  0.29239399999999999  0.80118999999999996
 254    0.23999500000000001  0.23999400000000001  0.80118999999999996
 255    0.27919500000000003  0.279194  0.78608999999999996
 256    0.31289499999999998  0.31297700000000001  0.78319000000000005
 257    0.38647300000000001  0.226994  0.765791
 258    0.38137300000000002  0.223994  0.78319000000000005
 259    0.38217299999999998  0.22439400000000001  0.79369100000000004
 260    0.38737300000000002  0.227494  0.79718999999999995
 261    0.39537299999999997  0.23219400000000001  0.79369100000000004
 262    0.40487299999999998  0.23779400000000001  0.78319000000000005
 263    -0.46180500000000002  0.12851000000000001  0.047899999999999998
 264    -0.47320499999999999  0.13170999999999999  0.063899999999999998
 265    -0.458005  0.12742600000000001  0.035999999999999997
 266    -0.439527  0.122326  0.024799999999999999
 267    -0.39542699999999997  0.110026  0.014999999999999999
 268    -0.28214899999999998  0.16571  0.0071000000000000004
 269    -0.137294  0.13721  0.0019
 270    -0.167294  0.098225999999999994  0.0019
 271    0.23161699999999999  0.23159399999999999  0.0071000000000000004
 272    0.098239999999999994  0.16721  0.0019
 273    0.35457300000000003  0.20821000000000001  0.014999999999999999
 274    0.13724  0.13721  0.0019
 275    0.28219499999999997  0.16571  0.0071000000000000004
 276    0.45805099999999999  0.12742600000000001  0.035999999999999997
 277    0.43955100000000003  0.122326  0.024799999999999999
 278    0.46175100000000002  0.12851000000000001  0.047899999999999998
 279    0.47315099999999999  0.13170999999999999  0.063899999999999998
 280    0.50162899999999999  0.13961000000000001  0.088654999999999998
 281    -0.50170499999999996  0.13961000000000001  0.088654999999999998
 282    0.53872900000000001  0.14990999999999999  0.122654
 283    -0.535883  0.14910999999999999  0.59918199999999999
 284    0.49992900000000001  0.13911000000000001  0.68213599999999996
 285    -0.49990499999999999  0.13911000000000001  0.68213599999999996
 286    -0.437027  0.121626  0.75003600000000004
 287    -0.35882700000000001  0.21081  0.765791
 288    -0.41492699999999999  0.115526  0.75083599999999995
 289    0.358873  0.21081  0.765791
 290    0.41495100000000001  0.115526  0.75083599999999995
 291    0.43705100000000002  0.121626  0.75003600000000004
 292    0.46175100000000002  0.12851000000000001  0.765791
 293    -0.46180500000000002  0.12851000000000001  0.765791
 294    -0.45150499999999999  0.12562599999999999  0.78319000000000005
 295    -0.44092700000000001  0.122726  0.79369100000000004
 296    -0.43192700000000001  0.120226  0.79718999999999995
 297    -0.42522700000000002  0.118326  0.78319000000000005
 298    -0.430927  0.119926  0.765791
 299    -0.42612699999999998  0.118626  0.79369100000000004
 300    -0.23997199999999999  0.23999400000000001  0.80118999999999996
 301    -0.34024900000000002  0.19980999999999999  0.78608999999999996
 302    -0.133794  0.22769400000000001  0.81359099999999995
 303    -0.29244900000000001  0.17171  0.80118999999999996
 304    -0.186894  0.18690999999999999  0.81359099999999995
 305    -0.093116000000000004  0.15851000000000001  0.82599
 306    -0.049216000000000003  0.17671000000000001  0.82599
 307    -3.8000000000000002e-05  0.18321000000000001  0.82599
 308    0.049161999999999997  0.17671000000000001  0.82599
 309    0.093038999999999997  0.15851000000000001  0.82599
 310    0.13003899999999999  0.13000999999999999  0.82599
 311    0.186917  0.18690999999999999  0.81359099999999995
 312    0.227717  0.13371  0.81359099999999995
 313    0.29239500000000002  0.17171  0.80118999999999996
 314    0.340173  0.19980999999999999  0.78608999999999996
 315    0.43095099999999997  0.119926  0.765791
 316    0.42525099999999999  0.118326  0.78319000000000005
 317    0.426151  0.118626  0.79369100000000004
 318    0.43195099999999997  0.120226  0.79718999999999995
 319    0.44095099999999998  0.122726  0.79369100000000004
 320    0.45145099999999999  0.12562599999999999  0.78319000000000005
 321    -0.478605  4.1999999999999998e-05  0.047899999999999998
 322    -0.49040499999999998  4.1999999999999998e-05  0.063899999999999998
 323    -0.47470499999999999  4.1999999999999998e-05  0.035999999999999997
 324    -0.31464900000000001  0.087625999999999996  0.0071000000000000004
 325    -0.18649399999999999  0.051926  0.0019
 326    -3.8000000000000002e-05  4.1999999999999998e-05  0
 327    0.167217  0.098225999999999994  0.0019
 328    0.39537299999999997  0.110026  0.014999999999999999
 329    0.314695  0.087625999999999996  0.0071000000000000004
 330    0.49045100000000003  4.1999999999999998e-05  0.063899999999999998
 331    0.478551  4.1999999999999998e-05  0.047899999999999998
 332    0.51992899999999997  4.1999999999999998e-05  0.088654999999999998
 333    -0.55838299999999996  4.1999999999999998e-05  0.122654
 334    -0.59678299999999995  4.1999999999999998e-05  0.166654
 335    -0.52000500000000005  4.1999999999999998e-05  0.088654999999999998
 336    0.55832899999999996  4.1999999999999998e-05  0.122654
 337    0.59680599999999995  4.1999999999999998e-05  0.166654
 338    0.625606  4.1999999999999998e-05  0.21990899999999999
 339    -0.60888299999999995  0.039842000000000002  0.198709
 340    0.61770599999999998  0.085926000000000002  0.23590900000000001
 341    -0.624861  0.063825999999999994  0.25956400000000002
 342    -0.63116099999999997  0.039842000000000002  0.27756399999999998
 343    0.61330600000000002  0.15431  0.34171800000000002
 344    0.61940600000000001  0.13721  0.283163
 345    0.70018400000000003  0.13391  0.30776300000000001
 346    0.71108400000000005  0.083725999999999995  0.26696399999999998
 347    0.68618400000000002  0.15071000000000001  0.36081800000000003
 348    0.787462  0.117826  0.389318
 349    0.80316200000000004  0.073625999999999997  0.35811799999999999
 350    -0.63186100000000001  4.1999999999999998e-05  0.36081800000000003
 351    0.60510600000000003  0.13730999999999999  0.39971800000000002
 352    0.67208400000000001  0.13391  0.41391800000000001
 353    0.60100600000000004  0.085725999999999997  0.44477299999999997
 354    0.76696200000000003  0.13250999999999999  0.42987300000000001
 355    0.66120599999999996  0.083725999999999995  0.45477299999999998
 356    0.74648400000000004  0.117826  0.47037299999999999
 357    -0.614483  4.1999999999999998e-05  0.43787300000000001
 358    0.588306  4.1999999999999998e-05  0.51752699999999996
 359    0.80966199999999999  0.108926  0.51752699999999996
 360    0.83266200000000001  0.096825999999999995  0.49007299999999998
 361    -0.588283  4.1999999999999998e-05  0.51752699999999996
 362    0.55542899999999995  4.1999999999999998e-05  0.59918199999999999
 363    -0.55538299999999996  4.1999999999999998e-05  0.59918199999999999
 364    0.51812899999999995  4.1999999999999998e-05  0.68213599999999996
 365    -0.51760499999999998  0.063825999999999994  0.664682
 366    -0.49850499999999998  0.039842000000000002  0.71253599999999995
 367    -0.52670499999999998  0.039842000000000002  0.65138200000000002
 368    0.478551  4.1999999999999998e-05  0.765791
 369    -0.478605  4.1999999999999998e-05  0.765791
 370    -0.400227  0.111426  0.765791
 371    -0.37942700000000001  0.105626  0.78608999999999996
 372    -0.227772  0.13371  0.81359099999999995
 373    -0.32604899999999998  0.090726000000000001  0.80118999999999996
 374    -0.13009399999999999  0.13000999999999999  0.82599
 375    -0.25397199999999998  0.070725999999999997  0.81359099999999995
 376    -0.158494  0.093126  0.82599
 377    -0.079516000000000003  0.079525999999999999  0.84104500000000004
 378    -0.056916000000000001  0.096825999999999995  0.84104500000000004
 379    -0.030016000000000001  0.108026  0.84104500000000004
 380    -3.8000000000000002e-05  0.111926  0.84104500000000004
 381    0.030061999999999998  0.108026  0.84104500000000004
 382    0.056862000000000003  0.096825999999999995  0.84104500000000004
 383    0.07954  0.079525999999999999  0.84104500000000004
 384    0.15851699999999999  0.093126  0.82599
 385    0.096839999999999996  0.056925999999999997  0.84104500000000004
 386    0.17671700000000001  0.049225999999999999  0.82599
 387    0.25399500000000003  0.070725999999999997  0.81359099999999995
 388    0.326073  0.090726000000000001  0.80118999999999996
 389    0.37937300000000002  0.105626  0.78608999999999996
 390    0.400173  0.111426  0.765791
 391    0.46795100000000001  4.1999999999999998e-05  0.78319000000000005
 392    -0.45550499999999999  4.1999999999999998e-05  0.024799999999999999
 393    -0.409827  4.1999999999999998e-05  0.014999999999999999
 394    -0.32614900000000002  4.1999999999999998e-05  0.0071000000000000004
 395    -0.19337199999999999  4.1999999999999998e-05  0.0019
 396    0.18651699999999999  0.051926  0.0019
 397    0.32617299999999999  4.1999999999999998e-05  0.0071000000000000004
 398    0.19331699999999999  4.1999999999999998e-05  0.0019
 399    0.409773  4.1999999999999998e-05  0.014999999999999999
 400    0.45555099999999998  4.1999999999999998e-05  0.024799999999999999
 401    0.47475099999999998  4.1999999999999998e-05  0.035999999999999997
 402    -0.61996099999999998  0.071826000000000001  0.23810899999999999
 403    -0.61556100000000002  0.063825999999999994  0.216809
 404    -0.71263799999999999  0.071826000000000001  0.28776400000000002
 405    -0.71143800000000001  0.063825999999999994  0.30736400000000003
 406    -0.71393799999999996  0.063825999999999994  0.26826299999999997
 407    0.71538400000000002  4.1999999999999998e-05  0.25060900000000003
 408    -0.79411600000000004  0.063825999999999994  0.32506299999999999
 409    -0.71493799999999996  0.039842000000000002  0.25326399999999999
 410    -0.85541599999999995  0.063825999999999994  0.38531799999999999
 411    -0.84051600000000004  0.071826000000000001  0.40011799999999997
 412    -0.78523799999999999  0.071826000000000001  0.34211799999999998
 413    -0.80081599999999997  0.039842000000000002  0.311863
 414    -0.77643799999999996  0.063825999999999994  0.35921799999999998
 415    -0.76963800000000004  0.039842000000000002  0.37231799999999998
 416    -0.71043800000000001  0.039842000000000002  0.32236300000000001
 417    0.80946200000000001  4.1999999999999998e-05  0.34561799999999998
 418    -0.898594  0.063825999999999994  0.44777299999999998
 419    -0.87919400000000003  0.071826000000000001  0.45957300000000001
 420    -0.86691600000000002  0.039842000000000002  0.37391799999999997
 421    -0.82561600000000002  0.063825999999999994  0.41481800000000002
 422    -0.85981600000000002  0.063825999999999994  0.471273
 423    -0.84501599999999999  0.039842000000000002  0.48027300000000001
 424    -0.81421600000000005  0.039842000000000002  0.42617300000000002
 425    0.85043999999999997  0.060526000000000003  0.46907300000000002
 426    0.85743999999999998  4.1999999999999998e-05  0.460673
 427    -0.92399399999999998  0.063825999999999994  0.51122699999999999
 428    -0.90189399999999997  0.071826000000000001  0.51832699999999998
 429    -0.91339400000000004  0.039842000000000002  0.43877300000000002
 430    -0.87979399999999996  0.063825999999999994  0.52542699999999998
 431    -0.86281600000000003  0.039842000000000002  0.53092700000000004
 432    0.60590599999999994  4.1999999999999998e-05  0.46377299999999999
 433    0.730684  0.073625999999999997  0.50157200000000002
 434    0.65690599999999999  4.1999999999999998e-05  0.47107300000000002
 435    0.76886200000000005  0.060526000000000003  0.56592699999999996
 436    0.78656199999999998  0.096825999999999995  0.54482699999999995
 437    0.72438400000000003  4.1999999999999998e-05  0.51402700000000001
 438    0.86463999999999996  0.075826000000000005  0.59598200000000001
 439    0.88434000000000001  0.047326  0.58432700000000004
 440    0.89224000000000003  4.1999999999999998e-05  0.579627
 441    -0.93239399999999995  0.063825999999999994  0.57432700000000003
 442    -0.940994  0.039842000000000002  0.50572700000000004
 443    -0.90929400000000005  0.071826000000000001  0.57432700000000003
 444    -0.919794  0.063825999999999994  0.62698200000000004
 445    -0.89739400000000002  0.071826000000000001  0.61968199999999996
 446    -0.95009399999999999  0.039842000000000002  0.57432700000000003
 447    -0.88629400000000003  0.063825999999999994  0.57432700000000003
 448    -0.87509400000000004  0.063825999999999994  0.61238199999999998
 449    -0.85791600000000001  0.039842000000000002  0.60678200000000004
 450    -0.86851599999999995  0.039842000000000002  0.57432700000000003
 451    0.79376199999999997  0.047326  0.63788199999999995
 452    0.81346200000000002  0.075826000000000005  0.62628200000000001
 453    0.76176200000000005  4.1999999999999998e-05  0.57432700000000003
 454    0.83904000000000001  0.085225999999999996  0.61108200000000001
 455    0.93651700000000004  0.037241999999999997  0.68833599999999995
 456    0.94641699999999995  4.1999999999999998e-05  0.68663600000000002
 457    -0.88229400000000002  0.063825999999999994  0.66228200000000004
 458    -0.862016  0.071826000000000001  0.65008200000000005
 459    -0.93699399999999999  0.039842000000000002  0.63258199999999998
 460    -0.841916  0.063825999999999994  0.63788199999999995
 461    -0.803616  0.071826000000000001  0.66858200000000001
 462    -0.82001599999999997  0.063825999999999994  0.68363600000000002
 463    -0.89779399999999998  0.039842000000000002  0.67163600000000001
 464    -0.82631600000000005  0.039842000000000002  0.62858199999999997
 465    -0.78731600000000002  0.063825999999999994  0.65338200000000002
 466    -0.77473800000000004  0.039842000000000002  0.64178199999999996
 467    -0.71213800000000005  0.063825999999999994  0.66138200000000003
 468    -0.722638  0.071826000000000001  0.67803599999999997
 469    -0.70403800000000005  0.039842000000000002  0.64858199999999999
 470    -0.61686099999999999  0.063825999999999994  0.66428200000000004
 471    -0.61488299999999996  0.039842000000000002  0.65108200000000005
 472    -0.61946100000000004  0.071826000000000001  0.68153600000000003
 473    -0.50870499999999996  0.071725999999999998  0.68213599999999996
 474    0.84794000000000003  0.059625999999999998  0.70353600000000005
 475    0.78586199999999995  4.1999999999999998e-05  0.64258199999999999
 476    0.82336200000000004  0.037241999999999997  0.70773600000000003
 477    0.87994000000000006  0.067126000000000005  0.69803599999999999
 478    0.91193999999999997  0.059625999999999998  0.69253600000000004
 479    -0.73313799999999996  0.063825999999999994  0.69463600000000003
 480    -0.83251600000000003  0.039842000000000002  0.69533599999999995
 481    -0.62206099999999998  0.063825999999999994  0.69873600000000002
 482    -0.74123799999999995  0.039842000000000002  0.70743599999999995
 483    -0.50170499999999996  0.063825999999999994  0.69923599999999997
 484    -0.62406099999999998  0.039842000000000002  0.71193600000000001
 485    -0.45300499999999999  4.1999999999999998e-05  0.75003600000000004
 486    -0.43012699999999998  4.1999999999999998e-05  0.75083599999999995
 487    0.43005100000000002  4.1999999999999998e-05  0.75083599999999995
 488    0.45305099999999998  4.1999999999999998e-05  0.75003600000000004
 489    0.91113999999999995  0.053226000000000002  0.765791
 490    0.95721699999999998  0.059825999999999997  0.765791
 491    1.00332  0.053226000000000002  0.765791
 492    1.0387  0.033242000000000001  0.765791
 493    -0.46790500000000002  4.1999999999999998e-05  0.78319000000000005
 494    -0.45700499999999999  4.1999999999999998e-05  0.79369100000000004
 495    -0.44770500000000002  4.1999999999999998e-05  0.79718999999999995
 496    -0.44072699999999998  4.1999999999999998e-05  0.78319000000000005
 497    -0.44670500000000002  4.1999999999999998e-05  0.765791
 498    -0.44162699999999999  4.1999999999999998e-05  0.79369100000000004
 499    -0.414827  4.1999999999999998e-05  0.765791
 500    -0.39322699999999999  4.1999999999999998e-05  0.78608999999999996
 501    -0.337949  4.1999999999999998e-05  0.80118999999999996
 502    -0.17669399999999999  0.049225999999999999  0.82599
 503    -0.26327200000000001  4.1999999999999998e-05  0.81359099999999995
 504    -0.096916000000000002  0.056925999999999997  0.84104500000000004
 505    -0.183194  4.1999999999999998e-05  0.82599
 506    -0.10799400000000001  0.030041999999999999  0.84104500000000004
 507    0.108039  0.030041999999999999  0.84104500000000004
 508    0.183117  4.1999999999999998e-05  0.82599
 509    0.111939  4.1999999999999998e-05  0.84104500000000004
 510    0.26319500000000001  4.1999999999999998e-05  0.81359099999999995
 511    0.33797300000000002  4.1999999999999998e-05  0.80118999999999996
 512    0.39317299999999999  4.1999999999999998e-05  0.78608999999999996
 513    0.41475099999999998  4.1999999999999998e-05  0.765791
 514    0.44665100000000002  4.1999999999999998e-05  0.765791
 515    0.440751  4.1999999999999998e-05  0.78319000000000005
 516    0.44165100000000002  4.1999999999999998e-05  0.79369100000000004
 517    0.44765100000000002  4.1999999999999998e-05  0.79718999999999995
 518    0.45705099999999999  4.1999999999999998e-05  0.79369100000000004
 519    0.93001699999999998  0.051625999999999998  0.77649100000000004
 520    0.97911700000000002  0.058026000000000001  0.77719099999999997
 521    0.87563999999999997  0.033242000000000001  0.765791
 522    0.94371700000000003  0.047626000000000002  0.78308999999999995
 523    0.99261699999999997  0.053626  0.78439099999999995
 524    0.89224000000000003  0.032242  0.77598999999999996
 525    0.95121699999999998  0.042526000000000001  0.78549100000000005
 526    0.99761699999999998  0.047826  0.78708999999999996
 527    0.90603999999999996  0.029742000000000001  0.78208999999999995
 528    0.91564000000000001  0.026542  0.78419000000000005
 529    0.95161700000000005  0.037442000000000003  0.78339099999999995
 530    0.99351699999999998  0.042141999999999999  0.78498999999999997
 531    1.0282  0.051625999999999998  0.777891
 532    1.0416000000000001  0.047626000000000002  0.78569
 533    1.0439000000000001  0.042526000000000001  0.78869100000000003
 534    1.0355000000000001  0.037442000000000003  0.78659100000000004
 535    1.0659000000000001  0.032242  0.77839100000000006
 536    1.0791999999999999  0.029742000000000001  0.78659100000000004
 537    1.0794999999999999  0.026542  0.78989100000000001
 538    1.0678000000000001  0.023342000000000002  0.78788999999999998
 539    -0.045316000000000002  0.045325999999999998  0.86144500000000002
 540    -0.055216000000000001  0.032441999999999999  0.86144500000000002
 541    -0.032416  0.055225999999999997  0.86144500000000002
 542    -0.017115999999999999  0.061525999999999997  0.86144500000000002
 543    -0.053716  0.053726000000000003  0.91994500000000001
 544    -0.038516000000000002  0.065425999999999998  0.91994500000000001
 545    -0.038816000000000003  0.038842000000000002  0.88874500000000001
 546    -0.073716000000000004  0.073726  0.95120000000000005
 547    -0.052816000000000002  0.089726  0.95120000000000005
 548    -0.065416000000000002  0.038542  0.91994500000000001
 549    -0.047315999999999997  0.027841999999999999  0.88874500000000001
 550    -0.027816  0.047326  0.88874500000000001
 551    -0.020316000000000001  0.073025999999999994  0.91994500000000001
 552    -0.027916  0.100026  0.95120000000000005
 553    -0.014737999999999999  0.052726000000000002  0.88874500000000001
 554    -3.8000000000000002e-05  0.063825999999999994  0.86144500000000002
 555    -3.8000000000000002e-05  0.075625999999999999  0.91994500000000001
 556    -3.8000000000000002e-05  0.103726  0.95120000000000005
 557    -3.8000000000000002e-05  0.054626000000000001  0.88874500000000001
 558    0.017162  0.061525999999999997  0.86144500000000002
 559    0.014662  0.052726000000000002  0.88874500000000001
 560    0.020362000000000002  0.073025999999999994  0.91994500000000001
 561    0.027962000000000001  0.100026  0.95120000000000005
 562    0.038462000000000003  0.065425999999999998  0.91994500000000001
 563    0.027761999999999998  0.047326  0.88874500000000001
 564    0.032461999999999998  0.055225999999999997  0.86144500000000002
 565    0.052762000000000003  0.089726  0.95120000000000005
 566    0.053761999999999997  0.053726000000000003  0.91994500000000001
 567    0.038862000000000001  0.038842000000000002  0.88874500000000001
 568    0.045261999999999997  0.045325999999999998  0.86144500000000002
 569    0.073738999999999999  0.073726  0.95120000000000005
 570    0.047261999999999998  0.027841999999999999  0.88874500000000001
 571    0.055162000000000003  0.032441999999999999  0.86144500000000002
 572    0.08974  0.052825999999999998  0.95120000000000005
 573    0.065462000000000006  0.038542  0.91994500000000001
 574    0.061561999999999999  0.017142000000000001  0.86144500000000002
 575    -0.100216  0.058925999999999999  0.97850000000000004
 576    -0.089815999999999993  0.052825999999999998  0.95120000000000005
 577    -0.10001599999999999  0.027942000000000002  0.95120000000000005
 578    -0.082316  0.082325999999999996  0.97850000000000004
 579    -0.077016000000000001  0.045325999999999998  0.997699
 580    -0.063215999999999994  0.063226000000000004  0.997699
 581    -0.111794  0.031241999999999999  0.97850000000000004
 582    -0.073015999999999998  0.020341999999999999  0.91994500000000001
 583    -0.045316000000000002  0.077025999999999997  0.997699
 584    -0.059015999999999999  0.100226  0.97850000000000004
 585    -0.085816000000000003  0.023942000000000001  0.997699
 586    -3.8000000000000002e-05  4.1999999999999998e-05  1.0051000000000001
 587    -0.023916  0.085826  0.997699
 588    -0.031216000000000001  0.11172600000000001  0.97850000000000004
 589    -3.8000000000000002e-05  0.088926000000000005  0.997699
 590    -3.8000000000000002e-05  0.115826  0.97850000000000004
 591    0.023962000000000001  0.085826  0.997699
 592    0.031161999999999999  0.11172600000000001  0.97850000000000004
 593    0.045261999999999997  0.077025999999999997  0.997699
 594    0.058962000000000001  0.100226  0.97850000000000004
 595    0.063261999999999999  0.063226000000000004  0.997699
 596    0.082339999999999997  0.082325999999999996  0.97850000000000004
 597    0.076939999999999995  0.045325999999999998  0.997699
 598    0.10024  0.058925999999999999  0.97850000000000004
 599    0.08584  0.023942000000000001  0.997699
 600    0.11174000000000001  0.031241999999999999  0.97850000000000004
 601    0.100039  0.027942000000000002  0.95120000000000005
 602    -0.46180500000000002  -0.128526  0.047899999999999998
 603    -0.47320499999999999  -0.13172600000000001  0.063899999999999998
 604    -0.458005  -0.127442  0.035999999999999997
 605    -0.439527  -0.12234200000000001  0.024799999999999999
 606    -0.39542699999999997  -0.110042  0.014999999999999999
 607    -0.31464900000000001  -0.087541999999999995  0.0071000000000000004
 608    -0.18649399999999999  -0.051942000000000002  0.0019
 609    0.18651699999999999  -0.051942000000000002  0.0019
 610    -0.167294  -0.098241999999999996  0.0019
 611    0.167217  -0.098241999999999996  0.0019
 612    0.13724  -0.13722599999999999  0.0019
 613    -0.137294  -0.13722599999999999  0.0019
 614    -0.098215999999999998  -0.16722600000000001  0.0019
 615    -0.051915999999999997  -0.186526  0.0019
 616    -3.8000000000000002e-05  -0.193326  0.0019
 617    0.051861999999999998  -0.186526  0.0019
 618    0.098239999999999994  -0.16722600000000001  0.0019
 619    0.314695  -0.087541999999999995  0.0071000000000000004
 620    0.39537299999999997  -0.110042  0.014999999999999999
 621    0.43955100000000003  -0.12234200000000001  0.024799999999999999
 622    0.45805099999999999  -0.127442  0.035999999999999997
 623    0.46175100000000002  -0.128526  0.047899999999999998
 624    0.47315099999999999  -0.13172600000000001  0.063899999999999998
 625    0.50162899999999999  -0.139626  0.088653999999999997
 626    -0.53868300000000002  -0.149926  0.122654
 627    -0.60888299999999995  -0.039857999999999998  0.198709
 628    -0.57578300000000004  -0.16022600000000001  0.166654
 629    -0.50170499999999996  -0.139626  0.088653999999999997
 630    0.53872900000000001  -0.149926  0.122654
 631    0.57572900000000005  -0.16022600000000001  0.166654
 632    0.60430600000000001  -0.16822599999999999  0.22120899999999999
 633    -0.71533800000000003  4.1999999999999998e-05  0.24720900000000001
 634    -0.61168299999999998  4.1999999999999998e-05  0.19420899999999999
 635    -0.71493799999999996  -0.039857999999999998  0.25326399999999999
 636    -0.803616  4.1999999999999998e-05  0.30666399999999999
 637    -0.61546100000000004  -0.063542000000000001  0.216609
 638    0.71108400000000005  -0.083741999999999997  0.26696399999999998
 639    0.61770599999999998  -0.085942000000000005  0.23590900000000001
 640    0.80316200000000004  -0.073641999999999999  0.35811799999999999
 641    -0.80081599999999997  -0.039857999999999998  0.311863
 642    -0.87141599999999997  4.1999999999999998e-05  0.36941800000000002
 643    -0.71393799999999996  -0.063841999999999996  0.26826299999999997
 644    -0.86691600000000002  -0.039857999999999998  0.37391799999999997
 645    -0.79411600000000004  -0.063841999999999996  0.32506299999999999
 646    -0.71003799999999995  4.1999999999999998e-05  0.32836399999999999
 647    -0.76693800000000001  4.1999999999999998e-05  0.37751800000000002
 648    -0.71043800000000001  -0.039857999999999998  0.32236300000000001
 649    -0.76963800000000004  -0.039857999999999998  0.37231799999999998
 650    -0.63816099999999998  4.1999999999999998e-05  0.287163
 651    -0.77643799999999996  -0.063841999999999996  0.35921799999999998
 652    -0.71143800000000001  -0.063841999999999996  0.30736400000000003
 653    -0.63116099999999997  -0.039857999999999998  0.27756399999999998
 654    -0.61566100000000001  -0.17132600000000001  0.287163
 655    -0.624861  -0.063841999999999996  0.25956400000000002
 656    -0.91939400000000004  4.1999999999999998e-05  0.43517299999999998
 657    -0.91339400000000004  -0.039857999999999998  0.43877300000000002
 658    -0.85541599999999995  -0.063841999999999996  0.38531799999999999
 659    -0.81421600000000005  -0.039857999999999998  0.42617300000000002
 660    -0.82561600000000002  -0.063841999999999996  0.41481800000000002
 661    -0.809616  4.1999999999999998e-05  0.43077300000000002
 662    -0.60958299999999999  -0.169626  0.36081800000000003
 663    0.85043999999999997  -0.060442000000000003  0.46907300000000002
 664    -0.94779400000000003  4.1999999999999998e-05  0.50362700000000005
 665    -0.940994  -0.039857999999999998  0.50572700000000004
 666    -0.898594  -0.063841999999999996  0.44777299999999998
 667    -0.84501599999999999  -0.039857999999999998  0.48027300000000001
 668    -0.83901599999999998  4.1999999999999998e-05  0.483873
 669    -0.86281600000000003  -0.039857999999999998  0.53092700000000004
 670    -0.87979399999999996  -0.063841999999999996  0.52542699999999998
 671    -0.85981600000000002  -0.063841999999999996  0.471273
 672    -0.856016  4.1999999999999998e-05  0.53312700000000002
 673    -0.59288300000000005  -0.16502600000000001  0.43787300000000001
 674    0.60100600000000004  -0.085741999999999999  0.44477299999999997
 675    0.66120599999999996  -0.083741999999999997  0.45477299999999998
 676    0.88434000000000001  -0.047342000000000002  0.58432700000000004
 677    -0.95719399999999999  4.1999999999999998e-05  0.57432700000000003
 678    -0.95009399999999999  -0.039857999999999998  0.57432700000000003
 679    -0.94389400000000001  4.1999999999999998e-05  0.63478199999999996
 680    -0.92399399999999998  -0.063841999999999996  0.51122699999999999
 681    -0.93699399999999999  -0.039857999999999998  0.63258199999999998
 682    -0.93239399999999995  -0.063841999999999996  0.57432700000000003
 683    -0.86851599999999995  -0.039857999999999998  0.57432700000000003
 684    -0.86151599999999995  4.1999999999999998e-05  0.57432700000000003
 685    -0.85791600000000001  -0.039857999999999998  0.60678200000000004
 686    -0.87509400000000004  -0.063841999999999996  0.61238199999999998
 687    -0.88629400000000003  -0.063841999999999996  0.57432700000000003
 688    -0.85101599999999999  4.1999999999999998e-05  0.60458199999999995
 689    -0.56758299999999995  -0.15792600000000001  0.51752699999999996
 690    0.535829  -0.14912600000000001  0.59918199999999999
 691    0.56752899999999995  -0.15792600000000001  0.51752699999999996
 692    0.730684  -0.073641999999999999  0.50157200000000002
 693    0.76886200000000005  -0.060442000000000003  0.56592699999999996
 694    0.93651700000000004  -0.037257999999999999  0.68833599999999995
 695    -0.90399399999999996  4.1999999999999998e-05  0.67533600000000005
 696    -0.89779399999999998  -0.039857999999999998  0.67163600000000001
 697    -0.919794  -0.063841999999999996  0.62698200000000004
 698    -0.82631600000000005  -0.039857999999999998  0.62858199999999997
 699    -0.841916  -0.063841999999999996  0.63788199999999995
 700    -0.82011599999999996  4.1999999999999998e-05  0.62488200000000005
 701    -0.76973800000000003  4.1999999999999998e-05  0.63708200000000004
 702    -0.77473800000000004  -0.039857999999999998  0.64178199999999996
 703    -0.78731600000000002  -0.063841999999999996  0.65338200000000002
 704    -0.70073799999999997  4.1999999999999998e-05  0.643482
 705    -0.70403800000000005  -0.039857999999999998  0.64858199999999999
 706    -0.71213800000000005  -0.063841999999999996  0.66138200000000003
 707    -0.61408300000000005  4.1999999999999998e-05  0.64578199999999997
 708    -0.61488299999999996  -0.039857999999999998  0.65108200000000005
 709    -0.61686099999999999  -0.063841999999999996  0.66428200000000004
 710    -0.53428299999999995  4.1999999999999998e-05  0.64598199999999995
 711    -0.52670499999999998  -0.039857999999999998  0.65138200000000002
 712    -0.535883  -0.14912600000000001  0.59918199999999999
 713    -0.51760499999999998  -0.063841999999999996  0.664682
 714    0.49992900000000001  -0.139126  0.68213599999999996
 715    0.81346200000000002  4.1999999999999998e-05  0.70943599999999996
 716    0.79376199999999997  -0.047342000000000002  0.63788199999999995
 717    -0.83751600000000004  4.1999999999999998e-05  0.699936
 718    -0.83251600000000003  -0.039857999999999998  0.69533599999999995
 719    -0.88229400000000002  -0.063841999999999996  0.66228200000000004
 720    -0.74443800000000004  4.1999999999999998e-05  0.71253599999999995
 721    -0.74123799999999995  -0.039857999999999998  0.70743599999999995
 722    -0.82001599999999997  -0.063841999999999996  0.68363600000000002
 723    -0.624861  4.1999999999999998e-05  0.71723599999999998
 724    -0.62406099999999998  -0.039857999999999998  0.71193600000000001
 725    -0.73313799999999996  -0.063841999999999996  0.69463600000000003
 726    -0.62206099999999998  -0.063841999999999996  0.69873600000000002
 727    -0.50120500000000001  4.1999999999999998e-05  0.71783600000000003
 728    -0.49850499999999998  -0.039857999999999998  0.71253599999999995
 729    -0.49990499999999999  -0.139126  0.68213599999999996
 730    -0.50170499999999996  -0.063841999999999996  0.69923599999999997
 731    -0.437027  -0.121642  0.75003600000000004
 732    -0.41492699999999999  -0.115442  0.75083599999999995
 733    -0.430927  -0.11994199999999999  0.765791
 734    -0.400227  -0.111342  0.765791
 735    0.400173  -0.111342  0.765791
 736    0.41495100000000001  -0.115442  0.75083599999999995
 737    0.43705100000000002  -0.121642  0.75003600000000004
 738    0.43095099999999997  -0.11994199999999999  0.765791
 739    0.46175100000000002  -0.128526  0.765791
 740    0.82336200000000004  -0.037257999999999999  0.70773600000000003
 741    0.86143999999999998  4.1999999999999998e-05  0.765791
 742    0.87563999999999997  -0.033258000000000003  0.765791
 743    0.81346200000000002  -0.075742000000000004  0.62628200000000001
 744    0.84794000000000003  -0.059642000000000001  0.70353600000000005
 745    0.87763999999999998  0.00054199999999999995  0.75093600000000005
 746    0.88644000000000001  0.019042  0.75093600000000005
 747    0.89334000000000002  4.1999999999999998e-05  0.765791
 748    0.88644000000000001  -0.014858  0.75093600000000005
 749    0.93681700000000001  0.0073419999999999996  0.75093600000000005
 750    0.90834000000000004  0.030141999999999999  0.75093600000000005
 751    0.90283999999999998  0.019942000000000001  0.765791
 752    0.90834000000000004  -0.019158000000000001  0.75093600000000005
 753    0.90283999999999998  -0.016657999999999999  0.765791
 754    0.93681700000000001  0.033841999999999997  0.75093600000000005
 755    0.92651700000000003  0.031941999999999998  0.765791
 756    0.93681700000000001  -0.016057999999999999  0.75093600000000005
 757    0.92651700000000003  -0.021257999999999999  0.765791
 758    1.0528999999999999  4.1999999999999998e-05  0.765791
 759    1.0387  -0.033258000000000003  0.765791
 760    1.00332  -0.053142000000000002  0.765791
 761    0.91193999999999997  -0.059642000000000001  0.69253600000000004
 762    0.96521699999999999  0.030141999999999999  0.75093600000000005
 763    0.95721699999999998  0.035942000000000002  0.765791
 764    0.96521699999999999  -0.009358  0.75093600000000005
 765    0.95721699999999998  -0.017957999999999998  0.765791
 766    0.98711700000000002  -0.0025579999999999999  0.75093600000000005
 767    0.98711700000000002  0.019042  0.75093600000000005
 768    0.99591700000000005  0.00054199999999999995  0.75093600000000005
 769    0.98791700000000005  0.031941999999999998  0.765791
 770    0.98791700000000005  -0.010658000000000001  0.765791
 771    1.0116000000000001  0.019942000000000001  0.765791
 772    1.0116000000000001  -0.0033579999999999999  0.765791
 773    1.0209999999999999  4.1999999999999998e-05  0.765791
 774    -0.46180500000000002  -0.128526  0.765791
 775    -0.45150499999999999  -0.125642  0.78319000000000005
 776    -0.44092700000000001  -0.122742  0.79369100000000004
 777    -0.43192700000000001  -0.120242  0.79718999999999995
 778    -0.42522700000000002  -0.118342  0.78319000000000005
 779    -0.42612699999999998  -0.118642  0.79369100000000004
 780    -0.37942700000000001  -0.105542  0.78608999999999996
 781    -0.32604899999999998  -0.090742000000000003  0.80118999999999996
 782    -0.25397199999999998  -0.070641999999999996  0.81359099999999995
 783    -0.111994  4.1999999999999998e-05  0.84104500000000004
 784    -0.17669399999999999  -0.049141999999999998  0.82599
 785    0.108039  -0.030058000000000001  0.84104500000000004
 786    0.17671700000000001  -0.049141999999999998  0.82599
 787    0.25399500000000003  -0.070641999999999996  0.81359099999999995
 788    0.326073  -0.090742000000000003  0.80118999999999996
 789    0.37937300000000002  -0.105542  0.78608999999999996
 790    0.42525099999999999  -0.118342  0.78319000000000005
 791    0.426151  -0.118642  0.79369100000000004
 792    0.43195099999999997  -0.120242  0.79718999999999995
 793    0.44095099999999998  -0.122742  0.79369100000000004
 794    0.45145099999999999  -0.125642  0.78319000000000005
 795    0.87714000000000003  4.1999999999999998e-05  0.77568999999999999
 796    0.89224000000000003  -0.032258000000000002  0.77598999999999996
 797    0.91113999999999995  -0.053142000000000002  0.765791
 798    0.89104000000000005  4.1999999999999998e-05  0.78169
 799    0.90603999999999996  -0.029658  0.78208999999999995
 800    0.90134000000000003  4.1999999999999998e-05  0.78369100000000003
 801    0.93001699999999998  -0.051541999999999998  0.77649100000000004
 802    0.90434000000000003  4.1999999999999998e-05  0.77568999999999999
 803    0.91554000000000002  -0.018957999999999999  0.77609099999999998
 804    0.91564000000000001  -0.026158000000000001  0.78419000000000005
 805    0.90634000000000003  4.1999999999999998e-05  0.78169
 806    0.91934000000000005  0.023342000000000002  0.78219099999999997
 807    0.94361700000000004  -0.027358  0.776891
 808    0.91554000000000002  0.020941999999999999  0.77609099999999998
 809    0.91934000000000005  -0.022357999999999999  0.78219099999999997
 810    0.94371700000000003  -0.047241999999999999  0.78308999999999995
 811    0.94361700000000004  0.033442  0.776891
 812    0.95161700000000005  -0.034257999999999997  0.78339099999999995
 813    0.95121699999999998  -0.041258000000000003  0.78549100000000005
 814    0.980217  -0.027258000000000001  0.77799099999999999
 815    0.980217  0.037642000000000002  0.77799099999999999
 816    0.99351699999999998  -0.036757999999999999  0.78498999999999997
 817    0.99261699999999997  -0.052942000000000003  0.78439099999999995
 818    0.99761699999999998  -0.045642000000000002  0.78708999999999996
 819    1.0166999999999999  -0.021158  0.77909099999999998
 820    1.0166999999999999  0.033442  0.77909099999999998
 821    1.0355000000000001  -0.031158000000000002  0.78659100000000004
 822    1.0448  -0.011358  0.77998999999999996
 823    1.0439000000000001  -0.039857999999999998  0.78869100000000003
 824    1.0448  0.020941999999999999  0.77998999999999996
 825    1.0561  4.1999999999999998e-05  0.78029000000000004
 826    1.0678000000000001  -0.018457999999999999  0.78788999999999998
 827    1.0794999999999999  -0.024558  0.78989100000000001
 828    1.081  4.1999999999999998e-05  0.77859100000000003
 829    1.0659000000000001  -0.032157999999999999  0.77839100000000006
 830    1.0282  -0.051541999999999998  0.777891
 831    1.0791999999999999  -0.029158  0.78659100000000004
 832    1.0416000000000001  -0.046842000000000002  0.78569
 833    1.0807  4.1999999999999998e-05  0.78839099999999995
 834    1.0943000000000001  4.1999999999999998e-05  0.786991
 835    1.0938000000000001  4.1999999999999998e-05  0.79039000000000004
 836    -0.10799400000000001  -0.030058000000000001  0.84104500000000004
 837    -0.063815999999999998  4.1999999999999998e-05  0.86144500000000002
 838    -0.061615999999999997  0.017142000000000001  0.86144500000000002
 839    -0.061615999999999997  -0.017158  0.86144500000000002
 840    -0.158494  -0.093042  0.82599
 841    -0.096916000000000002  -0.056942  0.84104500000000004
 842    -0.075616000000000003  4.1999999999999998e-05  0.91994500000000001
 843    -0.073015999999999998  -0.020358000000000001  0.91994500000000001
 844    -0.10369399999999999  4.1999999999999998e-05  0.95120000000000005
 845    -0.054615999999999998  4.1999999999999998e-05  0.88874500000000001
 846    -0.052715999999999999  -0.014657999999999999  0.88874500000000001
 847    -0.065416000000000002  -0.038457999999999999  0.91994500000000001
 848    -0.10001599999999999  -0.027958  0.95120000000000005
 849    -0.047315999999999997  -0.027758000000000001  0.88874500000000001
 850    -0.052715999999999999  0.014642000000000001  0.88874500000000001
 851    -0.038816000000000003  -0.038857999999999997  0.88874500000000001
 852    -0.053716  -0.053741999999999998  0.91994500000000001
 853    -0.089815999999999993  -0.052842  0.95120000000000005
 854    -0.055216000000000001  -0.032458000000000001  0.86144500000000002
 855    -0.079516000000000003  -0.079542000000000002  0.84104500000000004
 856    -0.045316000000000002  -0.045342  0.86144500000000002
 857    -0.032416  -0.055241999999999999  0.86144500000000002
 858    -0.027816  -0.047342000000000002  0.88874500000000001
 859    0.038862000000000001  -0.038857999999999997  0.88874500000000001
 860    0.047261999999999998  -0.027758000000000001  0.88874500000000001
 861    0.053761999999999997  -0.053741999999999998  0.91994500000000001
 862    0.055162000000000003  -0.032458000000000001  0.86144500000000002
 863    0.027761999999999998  -0.047342000000000002  0.88874500000000001
 864    0.045261999999999997  -0.045342  0.86144500000000002
 865    0.038462000000000003  -0.065442  0.91994500000000001
 866    0.052762000000000003  -0.014657999999999999  0.88874500000000001
 867    0.065462000000000006  -0.038457999999999999  0.91994500000000001
 868    0.061561999999999999  -0.017158  0.86144500000000002
 869    0.052762000000000003  0.014642000000000001  0.88874500000000001
 870    0.072940000000000005  0.020341999999999999  0.91994500000000001
 871    0.054662000000000002  4.1999999999999998e-05  0.88874500000000001
 872    0.072940000000000005  -0.020358000000000001  0.91994500000000001
 873    0.063862000000000002  4.1999999999999998e-05  0.86144500000000002
 874    0.075639999999999999  4.1999999999999998e-05  0.91994500000000001
 875    0.096839999999999996  -0.056942  0.84104500000000004
 876    0.08974  -0.052842  0.95120000000000005
 877    0.073738999999999999  -0.073742000000000002  0.95120000000000005
 878    0.100039  -0.027958  0.95120000000000005
 879    0.10374  4.1999999999999998e-05  0.95120000000000005
 880    -0.11579399999999999  4.1999999999999998e-05  0.97850000000000004
 881    -0.111794  -0.031158000000000002  0.97850000000000004
 882    -0.088915999999999995  4.1999999999999998e-05  0.997699
 883    -0.085816000000000003  -0.023958  0.997699
 884    -0.100216  -0.058942000000000001  0.97850000000000004
 885    -0.077016000000000001  -0.045241999999999997  0.997699
 886    0.08584  -0.023958  0.997699
 887    0.088940000000000005  4.1999999999999998e-05  0.997699
 888    -0.063215999999999994  -0.063242000000000007  0.997699
 889    -0.045316000000000002  -0.076941999999999997  0.997699
 890    -0.023916  -0.085842000000000002  0.997699
 891    -3.8000000000000002e-05  -0.088941999999999993  0.997699
 892    0.023962000000000001  -0.085842000000000002  0.997699
 893    0.045261999999999997  -0.076941999999999997  0.997699
 894    0.063261999999999999  -0.063242000000000007  0.997699
 895    0.076939999999999995  -0.045241999999999997  0.997699
 896    0.11174000000000001  -0.031158000000000002  0.97850000000000004
 897    0.115839  4.1999999999999998e-05  0.97850000000000004
 898    0.10024  -0.058942000000000001  0.97850000000000004
 899    -0.39412700000000001  -0.23150999999999999  0.024799999999999999
 900    -0.41072700000000001  -0.24121000000000001  0.035999999999999997
 901    -0.354549  -0.20822599999999999  0.014999999999999999
 902    -0.28214899999999998  -0.16572600000000001  0.0071000000000000004
 903    0.28219499999999997  -0.16572600000000001  0.0071000000000000004
 904    0.23161699999999999  -0.23161000000000001  0.0071000000000000004
 905    0.35457300000000003  -0.20822599999999999  0.014999999999999999
 906    0.394173  -0.23150999999999999  0.024799999999999999
 907    0.41075099999999998  -0.24121000000000001  0.035999999999999997
 908    0.414051  -0.24321000000000001  0.047899999999999998
 909    -0.71263799999999999  -0.071742  0.28776400000000002
 910    -0.61996099999999998  -0.071742  0.23810899999999999
 911    -0.60428300000000001  -0.16822599999999999  0.22120899999999999
 912    0.61940600000000001  -0.13722599999999999  0.283163
 913    -0.78523799999999999  -0.071742  0.34211799999999998
 914    0.787462  -0.117742  0.389318
 915    0.70018400000000003  -0.13392599999999999  0.30776300000000001
 916    -0.84051600000000004  -0.071742  0.40011799999999997
 917    -0.87919400000000003  -0.071742  0.45957300000000001
 918    0.83266200000000001  -0.096741999999999995  0.49007299999999998
 919    0.80966199999999999  -0.10884199999999999  0.51752699999999996
 920    0.76696200000000003  -0.132526  0.42987300000000001
 921    -0.90189399999999997  -0.071742  0.51832699999999998
 922    0.59290600000000004  -0.16502600000000001  0.43787300000000001
 923    0.60510600000000003  -0.13722599999999999  0.39971800000000002
 924    0.67208400000000001  -0.13392599999999999  0.41391800000000001
 925    0.74648400000000004  -0.117742  0.47037299999999999
 926    0.78656199999999998  -0.096741999999999995  0.54482699999999995
 927    0.68618400000000002  -0.15062600000000001  0.36081800000000003
 928    0.86463999999999996  -0.075742000000000004  0.59598200000000001
 929    0.83904000000000001  -0.085241999999999998  0.61108200000000001
 930    -0.90929400000000005  -0.071742  0.57432700000000003
 931    -0.89739400000000002  -0.071742  0.61968199999999996
 932    -0.862016  -0.071742  0.65008200000000005
 933    -0.803616  -0.071742  0.66858200000000001
 934    -0.722638  -0.071742  0.67803599999999997
 935    -0.61946100000000004  -0.071742  0.68153600000000003
 936    -0.50870499999999996  -0.071742  0.68213599999999996
 937    0.87994000000000006  -0.067141999999999993  0.69803599999999999
 938    -0.38642700000000002  -0.22700999999999999  0.765791
 939    -0.39192700000000003  -0.23021  0.75003600000000004
 940    -0.37212699999999999  -0.21851000000000001  0.75083599999999995
 941    -0.35882700000000001  -0.210726  0.765791
 942    0.358873  -0.210726  0.765791
 943    0.37207299999999999  -0.21851000000000001  0.75083599999999995
 944    0.38647300000000001  -0.22700999999999999  0.765791
 945    0.39197300000000002  -0.23021  0.75003600000000004
 946    0.95721699999999998  -0.059841999999999999  0.765791
 947    -0.41402699999999998  -0.24321000000000001  0.765791
 948    -0.40482699999999999  -0.23780999999999999  0.78319000000000005
 949    -0.39542699999999997  -0.23221  0.79369100000000004
 950    -0.38732699999999998  -0.22750999999999999  0.79718999999999995
 951    -0.38132700000000003  -0.22400999999999999  0.78319000000000005
 952    -0.38212699999999999  -0.22441  0.79369100000000004
 953    -0.34024900000000002  -0.199826  0.78608999999999996
 954    -0.29244900000000001  -0.17172599999999999  0.80118999999999996
 955    -0.227772  -0.13372600000000001  0.81359099999999995
 956    -0.186894  -0.18692600000000001  0.81359099999999995
 957    -0.13009399999999999  -0.130026  0.82599
 958    0.15851699999999999  -0.093042  0.82599
 959    0.07954  -0.079542000000000002  0.84104500000000004
 960    0.13003899999999999  -0.130026  0.82599
 961    0.227717  -0.13372600000000001  0.81359099999999995
 962    0.29239500000000002  -0.17172599999999999  0.80118999999999996
 963    0.340173  -0.199826  0.78608999999999996
 964    0.38137300000000002  -0.22400999999999999  0.78319000000000005
 965    0.38217299999999998  -0.22441  0.79369100000000004
 966    0.38737300000000002  -0.22750999999999999  0.79718999999999995
 967    0.39537299999999997  -0.23221  0.79369100000000004
 968    0.40487299999999998  -0.23780999999999999  0.78319000000000005
 969    0.97911700000000002  -0.057942  0.77719099999999997
 970    -0.056916000000000001  -0.096841999999999998  0.84104500000000004
 971    -0.093116000000000004  -0.15842600000000001  0.82599
 972    -0.030016000000000001  -0.108042  0.84104500000000004
 973    -0.049216000000000003  -0.17672599999999999  0.82599
 974    -0.038516000000000002  -0.065442  0.91994500000000001
 975    -0.073716000000000004  -0.073742000000000002  0.95120000000000005
 976    -0.014737999999999999  -0.052741999999999997  0.88874500000000001
 977    -0.020316000000000001  -0.072942000000000007  0.91994500000000001
 978    -0.052816000000000002  -0.089742000000000002  0.95120000000000005
 979    -0.017115999999999999  -0.061541999999999999  0.86144500000000002
 980    -3.8000000000000002e-05  -0.111942  0.84104500000000004
 981    -3.8000000000000002e-05  -0.18312600000000001  0.82599
 982    -3.8000000000000002e-05  -0.054642000000000003  0.88874500000000001
 983    -3.8000000000000002e-05  -0.075642000000000001  0.91994500000000001
 984    -0.027916  -0.10004200000000001  0.95120000000000005
 985    -3.8000000000000002e-05  -0.063841999999999996  0.86144500000000002
 986    0.017162  -0.061541999999999999  0.86144500000000002
 987    0.014662  -0.052741999999999997  0.88874500000000001
 988    0.020362000000000002  -0.072942000000000007  0.91994500000000001
 989    -3.8000000000000002e-05  -0.103742  0.95120000000000005
 990    0.030061999999999998  -0.108042  0.84104500000000004
 991    0.049161999999999997  -0.17672599999999999  0.82599
 992    0.032461999999999998  -0.055241999999999999  0.86144500000000002
 993    0.056862000000000003  -0.096841999999999998  0.84104500000000004
 994    0.027962000000000001  -0.10004200000000001  0.95120000000000005
 995    0.093038999999999997  -0.15842600000000001  0.82599
 996    0.052762000000000003  -0.089742000000000002  0.95120000000000005
 997    -0.082316  -0.082341999999999999  0.97850000000000004
 998    -0.059015999999999999  -0.100242  0.97850000000000004
 999    -0.031216000000000001  -0.11174199999999999  0.97850000000000004
1000    -3.8000000000000002e-05  -0.115842  0.97850000000000004
1001    0.031161999999999999  -0.11174199999999999  0.97850000000000004
1002    0.058962000000000001  -0.100242  0.97850000000000004
1003    0.082339999999999997  -0.082341999999999999  0.97850000000000004
1004    -0.41402699999999998  -0.24321000000000001  0.047899999999999998
1005    -0.42432700000000001  -0.24920999999999999  0.063899999999999998
1006    -0.231572  -0.23161000000000001  0.0071000000000000004
1007    -0.29094900000000001  -0.29091  0.014999999999999999
1008    -0.16569400000000001  -0.28221000000000002  0.0071000000000000004
1009    -0.087615999999999999  -0.31469399999999997  0.0071000000000000004
1010    -3.8000000000000002e-05  -0.32619399999999998  0.0071000000000000004
1011    0.087540000000000007  -0.31469399999999997  0.0071000000000000004
1012    0.165717  -0.28221000000000002  0.0071000000000000004
1013    0.290995  -0.29091  0.014999999999999999
1014    0.32339499999999999  -0.32339299999999999  0.024799999999999999
1015    0.42425099999999999  -0.24920999999999999  0.063899999999999998
1016    0.449851  -0.26421  0.088653999999999997
1017    -0.48310500000000001  -0.28371000000000002  0.122654
1018    -0.51630500000000001  -0.30329299999999998  0.166654
1019    -0.449905  -0.26421  0.088653999999999997
1020    0.48305100000000001  -0.28371000000000002  0.122654
1021    0.51632900000000004  -0.30329299999999998  0.166654
1022    0.54182900000000001  -0.31829400000000002  0.22120899999999999
1023    -0.541883  -0.31829400000000002  0.22120899999999999
1024    0.61570599999999998  -0.17132600000000001  0.287163
1025    0.55212899999999998  -0.324293  0.287163
1026    -0.55208299999999999  -0.324293  0.287163
1027    0.60960599999999998  -0.169626  0.36081800000000003
1028    0.54662900000000003  -0.32109300000000002  0.36081800000000003
1029    0.61330600000000002  -0.15432599999999999  0.34171800000000002
1030    -0.54668300000000003  -0.32109300000000002  0.36081800000000003
1031    0.53162900000000002  -0.31229299999999999  0.43787300000000001
1032    -0.53168300000000002  -0.31229299999999999  0.43787300000000001
1033    0.50892899999999996  -0.29889399999999999  0.51752699999999996
1034    -0.50900500000000004  -0.29889399999999999  0.51752699999999996
1035    0.48055100000000001  -0.28221000000000002  0.59918199999999999
1036    -0.48050500000000002  -0.28221000000000002  0.59918199999999999
1037    0.44825100000000001  -0.26330999999999999  0.68213599999999996
1038    -0.44830500000000001  -0.26330999999999999  0.68213599999999996
1039    0.414051  -0.24321000000000001  0.765791
1040    -0.29444900000000002  -0.29450999999999999  0.765791
1041    -0.27914899999999998  -0.27921000000000001  0.78608999999999996
1042    -0.23997199999999999  -0.24001  0.80118999999999996
1043    -0.17169400000000001  -0.29241  0.80118999999999996
1044    -0.133794  -0.22771  0.81359099999999995
1045    -0.070716000000000001  -0.25401000000000001  0.81359099999999995
1046    -3.8000000000000002e-05  -0.26321  0.81359099999999995
1047    0.070638999999999993  -0.25401000000000001  0.81359099999999995
1048    0.13374  -0.22771  0.81359099999999995
1049    0.186917  -0.18692600000000001  0.81359099999999995
1050    0.23999500000000001  -0.24001  0.80118999999999996
1051    0.27919500000000003  -0.27921000000000001  0.78608999999999996
1052    0.29449500000000001  -0.29450999999999999  0.765791
1053    -0.33984900000000001  -0.33979399999999998  0.047899999999999998
1054    -0.34814899999999999  -0.34819299999999997  0.063899999999999998
1055    -0.33704899999999999  -0.337094  0.035999999999999997
1056    -0.32344899999999999  -0.32339299999999999  0.024799999999999999
1057    -0.20827200000000001  -0.35459400000000002  0.014999999999999999
1058    0.20821700000000001  -0.35459400000000002  0.014999999999999999
1059    0.11004  -0.39537699999999998  0.014999999999999999
1060    0.231517  -0.394177  0.024799999999999999
1061    0.33707300000000001  -0.337094  0.035999999999999997
1062    0.33977299999999999  -0.33979399999999998  0.047899999999999998
1063    0.34817300000000001  -0.34819299999999997  0.063899999999999998
1064    0.36917299999999997  -0.36919299999999999  0.088653999999999997
1065    -0.36912699999999998  -0.36919299999999999  0.088653999999999997
1066    -0.39642699999999997  -0.39647700000000002  0.122654
1067    0.39647300000000002  -0.39647700000000002  0.122654
1068    0.42375099999999999  -0.42367700000000003  0.166654
1069    -0.41762700000000003  -0.41767700000000002  0.51752699999999996
1070    -0.39432699999999998  -0.39437699999999998  0.59918199999999999
1071    0.36787300000000001  -0.367894  0.68213599999999996
1072    0.39437299999999997  -0.39437699999999998  0.59918199999999999
1073    -0.36782700000000002  -0.367894  0.68213599999999996
1074    -0.31714900000000001  -0.31719399999999998  0.765791
1075    -0.32164900000000002  -0.32159300000000002  0.75003600000000004
1076    -0.30534899999999998  -0.305394  0.75083599999999995
1077    0.30539500000000003  -0.305394  0.75083599999999995
1078    0.32159500000000002  -0.32159300000000002  0.75003600000000004
1079    0.317195  -0.31719399999999998  0.765791
1080    0.33977299999999999  -0.33979399999999998  0.765791
1081    -0.33984900000000001  -0.33979399999999998  0.765791
1082    -0.33224900000000002  -0.33219300000000002  0.78319000000000005
1083    -0.32444899999999999  -0.32449299999999998  0.79369100000000004
1084    -0.31784899999999999  -0.31789400000000001  0.79718999999999995
1085    -0.31294899999999998  -0.31289400000000001  0.78319000000000005
1086    -0.31354900000000002  -0.31359399999999998  0.79369100000000004
1087    -0.21857199999999999  -0.37209300000000001  0.75083599999999995
1088    -0.21077199999999999  -0.35889399999999999  0.765791
1089    -0.19977200000000001  -0.340194  0.78608999999999996
1090    -0.10559399999999999  -0.37939400000000001  0.78608999999999996
1091    -0.090716000000000005  -0.32609300000000002  0.80118999999999996
1092    -3.8000000000000002e-05  -0.33799400000000002  0.80118999999999996
1093    0.090740000000000001  -0.32609300000000002  0.80118999999999996
1094    0.17171700000000001  -0.29241  0.80118999999999996
1095    0.19981699999999999  -0.340194  0.78608999999999996
1096    0.21851699999999999  -0.37209300000000001  0.75083599999999995
1097    0.210817  -0.35889399999999999  0.765791
1098    0.31289499999999998  -0.31289400000000001  0.78319000000000005
1099    0.31359500000000001  -0.31359399999999998  0.79369100000000004
1100    0.31789499999999998  -0.31789400000000001  0.79718999999999995
1101    0.32449499999999998  -0.32449299999999998  0.79369100000000004
1102    0.33227299999999999  -0.33219300000000002  0.78319000000000005
1103    -0.243172  -0.41407699999999997  0.047899999999999998
1104    -0.249172  -0.42427700000000002  0.063899999999999998
1105    -0.24127199999999999  -0.41067700000000001  0.035999999999999997
1106    -0.23147200000000001  -0.394177  0.024799999999999999
1107    -0.10999399999999999  -0.39537699999999998  0.014999999999999999
1108    -3.8000000000000002e-05  -0.409777  0.014999999999999999
1109    0.12234  -0.43947700000000001  0.024799999999999999
1110    0.24119499999999999  -0.41067700000000001  0.035999999999999997
1111    0.24319499999999999  -0.41407699999999997  0.047899999999999998
1112    0.249195  -0.42427700000000002  0.063899999999999998
1113    0.26419500000000001  -0.44987700000000003  0.088653999999999997
1114    -0.42372700000000002  -0.42367700000000003  0.166654
1115    -0.26417200000000002  -0.44987700000000003  0.088653999999999997
1116    0.28369499999999997  -0.48306100000000002  0.122654
1117    0.44465100000000002  -0.44467699999999999  0.22120899999999999
1118    -0.44470500000000002  -0.44467699999999999  0.22120899999999999
1119    0.45305099999999998  -0.45307700000000001  0.287163
1120    -0.45310499999999998  -0.45307700000000001  0.287163
1121    0.44865100000000002  -0.448577  0.36081800000000003
1122    -0.44860499999999998  -0.448577  0.36081800000000003
1123    0.436251  -0.43627700000000003  0.43787300000000001
1124    -0.43632700000000002  -0.43627700000000003  0.43787300000000001
1125    0.41765099999999999  -0.41767700000000002  0.51752699999999996
1126    -0.28224900000000003  -0.48056100000000002  0.59918199999999999
1127    -0.26327200000000001  -0.44827699999999998  0.68213599999999996
1128    -0.23017199999999999  -0.39197700000000002  0.75003600000000004
1129    -0.115494  -0.41497699999999998  0.75083599999999995
1130    0.11544  -0.41497699999999998  0.75083599999999995
1131    0.230217  -0.39197700000000002  0.75003600000000004
1132    0.24319499999999999  -0.41407699999999997  0.765791
1133    0.263295  -0.44827699999999998  0.68213599999999996
1134    -0.243172  -0.41407699999999997  0.765791
1135    -0.23777200000000001  -0.40487699999999999  0.78319000000000005
1136    -0.23227200000000001  -0.39537699999999998  0.79369100000000004
1137    -0.22747200000000001  -0.38737700000000003  0.79718999999999995
1138    -0.223972  -0.38129400000000002  0.78319000000000005
1139    -0.22697200000000001  -0.38647700000000001  0.765791
1140    -0.224472  -0.38209300000000002  0.79369100000000004
1141    -0.120194  -0.431977  0.79718999999999995
1142    -0.118594  -0.42607699999999998  0.79369100000000004
1143    -0.118394  -0.42527700000000002  0.78319000000000005
1144    -0.11139400000000001  -0.400177  0.765791
1145    -3.8000000000000002e-05  -0.41477700000000001  0.765791
1146    -3.8000000000000002e-05  -0.393177  0.78608999999999996
1147    0.10553999999999999  -0.37939400000000001  0.78608999999999996
1148    0.11133899999999999  -0.400177  0.765791
1149    0.223917  -0.38129400000000002  0.78319000000000005
1150    0.22441700000000001  -0.38209300000000002  0.79369100000000004
1151    0.227017  -0.38647700000000001  0.765791
1152    0.118339  -0.42527700000000002  0.78319000000000005
1153    0.119939  -0.430977  0.765791
1154    0.11863899999999999  -0.42607699999999998  0.79369100000000004
1155    0.227517  -0.38737700000000003  0.79718999999999995
1156    0.23221700000000001  -0.39537699999999998  0.79369100000000004
1157    0.237817  -0.40487699999999999  0.78319000000000005
1158    -0.128494  -0.46177699999999999  0.047899999999999998
1159    -0.13169400000000001  -0.473161  0.063899999999999998
1160    -0.127494  -0.45797700000000002  0.035999999999999997
1161    -0.122294  -0.43947700000000001  0.024799999999999999
1162    -3.8000000000000002e-05  -0.47476099999999999  0.035999999999999997
1163    -3.8000000000000002e-05  -0.47856100000000001  0.047899999999999998
1164    -3.8000000000000002e-05  -0.45557700000000001  0.024799999999999999
1165    0.127439  -0.45797700000000002  0.035999999999999997
1166    0.12853999999999999  -0.46177699999999999  0.047899999999999998
1167    0.13163900000000001  -0.473161  0.063899999999999998
1168    -3.8000000000000002e-05  -0.49046099999999998  0.063899999999999998
1169    0.13963900000000001  -0.50166100000000002  0.088653999999999997
1170    -0.28374899999999997  -0.48306100000000002  0.122654
1171    -0.30324899999999999  -0.51636099999999996  0.166654
1172    -0.139594  -0.50166100000000002  0.088653999999999997
1173    0.14993999999999999  -0.53876100000000005  0.122654
1174    0.30329499999999998  -0.51636099999999996  0.166654
1175    0.31829499999999999  -0.54186100000000004  0.22120899999999999
1176    -0.318249  -0.54186100000000004  0.22120899999999999
1177    0.324295  -0.55206100000000002  0.287163
1178    -0.32424900000000001  -0.55206100000000002  0.287163
1179    0.32109500000000002  -0.54666099999999995  0.36081800000000003
1180    -0.32104899999999997  -0.54666099999999995  0.36081800000000003
1181    0.31229499999999999  -0.53166100000000005  0.43787300000000001
1182    -0.312249  -0.53166100000000005  0.43787300000000001
1183    0.29889500000000002  -0.508961  0.51752699999999996
1184    -0.29894900000000002  -0.508961  0.51752699999999996
1185    0.28219499999999997  -0.48056100000000002  0.59918199999999999
1186    -0.149094  -0.53586100000000003  0.59918199999999999
1187    -0.139094  -0.499861  0.68213599999999996
1188    -0.12159399999999999  -0.43707699999999999  0.75003600000000004
1189    -0.119994  -0.430977  0.765791
1190    -3.8000000000000002e-05  -0.45297700000000002  0.75003600000000004
1191    -3.8000000000000002e-05  -0.43007699999999999  0.75083599999999995
1192    -3.8000000000000002e-05  -0.44667699999999999  0.765791
1193    0.121639  -0.43707699999999999  0.75003600000000004
1194    0.12853999999999999  -0.46177699999999999  0.765791
1195    0.13914000000000001  -0.499861  0.68213599999999996
1196    -0.128494  -0.46177699999999999  0.765791
1197    -0.125694  -0.45147700000000002  0.78319000000000005
1198    -0.122694  -0.44097700000000001  0.79369100000000004
1199    -3.8000000000000002e-05  -0.51806099999999999  0.68213599999999996
1200    -3.8000000000000002e-05  -0.47856100000000001  0.765791
1201    -3.8000000000000002e-05  -0.46787699999999999  0.78319000000000005
1202    -3.8000000000000002e-05  -0.45707700000000001  0.79369100000000004
1203    -3.8000000000000002e-05  -0.44767699999999999  0.79718999999999995
1204    -3.8000000000000002e-05  -0.44077699999999997  0.78319000000000005
1205    -3.8000000000000002e-05  -0.44167699999999999  0.79369100000000004
1206    0.120239  -0.431977  0.79718999999999995
1207    0.122739  -0.44097700000000001  0.79369100000000004
1208    0.125639  -0.45147700000000002  0.78319000000000005
1209    -3.8000000000000002e-05  -0.51996100000000001  0.088653999999999997
1210    -0.149894  -0.53876100000000005  0.122654
1211    -0.16029399999999999  -0.57574499999999995  0.166654
1212    -3.8000000000000002e-05  -0.55834499999999998  0.122654
1213    0.160217  -0.57574499999999995  0.166654
1214    -3.8000000000000002e-05  -0.59674499999999997  0.166654
1215    0.16821700000000001  -0.60424500000000003  0.22120899999999999
1216    -0.16819400000000001  -0.60424500000000003  0.22120899999999999
1217    0.171317  -0.615645  0.287163
1218    -0.17139399999999999  -0.615645  0.287163
1219    0.16961699999999999  -0.60964499999999999  0.36081800000000003
1220    -0.16969400000000001  -0.60964499999999999  0.36081800000000003
1221    0.165017  -0.59284499999999996  0.43787300000000001
1222    -0.164994  -0.59284499999999996  0.43787300000000001
1223    0.157917  -0.56754499999999997  0.51752699999999996
1224    -0.157994  -0.56754499999999997  0.51752699999999996
1225    0.14913899999999999  -0.53586100000000003  0.59918199999999999
1226    -3.8000000000000002e-05  -0.58824500000000002  0.51752699999999996
1227    -3.8000000000000002e-05  -0.55544499999999997  0.59918199999999999
1228    -3.8000000000000002e-05  -0.62634500000000004  0.22120899999999999
1229    -3.8000000000000002e-05  -0.63814499999999996  0.287163
1230    -3.8000000000000002e-05  -0.63184499999999999  0.36081800000000003
1231    -3.8000000000000002e-05  -0.61454500000000001  0.43787300000000001
# Generated by ./tetgen /home/yuzhang/repos/Gaia/Data/mesh_models/UnitTest/Teapot/teapot.ply 
