2000  1
    0    206   659   765    -1
    1     20   164    21    -1
    2    388    27   390    -1
    3    940   859   329    -1
    4    433   442   641    -1
    5    541   760   871    -1
    6    282   106    96    -1
    7    739   621    65    -1
    8    815   925   781    -1
    9     83   265   856    -1
   10    879   556   805    -1
   11    620   845   617    -1
   12    520    63   753    -1
   13    516   520   522    -1
   14    836   731   949    -1
   15    718   997    40    -1
   16    839   721    45    -1
   17    234   952   259    -1
   18    830   247   249    -1
   19    800   716    38    -1
   20    736   331   891    -1
   21    829   250   772    -1
   22    383   862   759    -1
   23    108   504   497    -1
   24    904   982   161    -1
   25    324   311   780    -1
   26    115   888   119    -1
   27     48   980   519    -1
   28    656   191   192    -1
   29    562   241   772    -1
   30    331   328   147    -1
   31    679   303   682    -1
   32    235   726   232    -1
   33     30   201   225    -1
   34    729   573    64    -1
   35    427   642   746    -1
   36    410   150   417    -1
   37     12   139   404    -1
   38    445   324   780    -1
   39    975   780   311    -1
   40    978   510   213    -1
   41    948   580   278    -1
   42    987   539   399    -1
   43    849   977   763    -1
   44    975   585   117    -1
   45    655   548   221    -1
   46    843   912   369    -1
   47    474    87   464    -1
   48    850    33   848    -1
   49    298   293   590    -1
   50    354   606   345    -1
   51    864   405   626    -1
   52    151   149   785    -1
   53    248   664   883    -1
   54    509   973   217    -1
   55    956   628    28    -1
   56    795   692   928    -1
   57    858   676   312    -1
   58    880   202   873    -1
   59    338   582   110    -1
   60    684   784   445    -1
   61      6   813   281    -1
   62     69   496    56    -1
   63     97   493   490    -1
   64    398    94     8    -1
   65    761   920    43    -1
   66    835    95   530    -1
   67     71   102    98    -1
   68    735   975   317    -1
   69    304   924   986    -1
   70    921   237   964    -1
   71    505   497   504    -1
   72    311    86   975    -1
   73    924   304   126    -1
   74    749   435   439    -1
   75    374   384   368    -1
   76    886    23   118    -1
   77    938   315   925    -1
   78    851   951   178    -1
   79    239   255   566    -1
   80    415   403   630    -1
   81    187   194   188    -1
   82    217   872   225    -1
   83    926   364   325    -1
   84    204   717   654    -1
   85    495   930   918    -1
   86     36   693   842    -1
   87    125   129   462    -1
   88    491   486    88    -1
   89    820   395   694    -1
   90    602   707   645    -1
   91    827   989   203    -1
   92    531   778   155    -1
   93    191   138   388    -1
   94    151   859   788    -1
   95     97    99   752    -1
   96    107   114   837    -1
   97    650    47   200    -1
   98    276   755   813    -1
   99    701   410    17    -1
  100    117   292   316    -1
  101    152   729   285    -1
  102    750   747   422    -1
  103     42   194   990    -1
  104     59   516   522    -1
  105    997   184   730    -1
  106    663   989    57    -1
  107    798   864   626    -1
  108    250   829   533    -1
  109    779   353   351    -1
  110    305   589    86    -1
  111    208   196   215    -1
  112    761    30   174    -1
  113    263   946   258    -1
  114    681   304   321    -1
  115    935    82   256    -1
  116    809   564   242    -1
  117    991   268   101    -1
  118    361   962   961    -1
  119    110   605   337    -1
  120    559   215   196    -1
  121    352  1001   132    -1
  122     57    58   558    -1
  123    307   308   314    -1
  124    578   155   778    -1
  125    927   375   963    -1
  126    222    50    19    -1
  127     31   850   848    -1
  128    464    79   474    -1
  129     32   431    31    -1
  130    156   157     7    -1
  131    530    95   529    -1
  132    286    49   270    -1
  133    526   753   100    -1
  134    546   216   545    -1
  135    456    29   958    -1
  136    271   778   936    -1
  137    105   579   269    -1
  138    149   981   797    -1
  139    836   680   731    -1
  140    964   469   921    -1
  141    385    36   819    -1
  142    191   135   366    -1
  143    344   838     0    -1
  144    808    11   947    -1
  145    593   322   983    -1
  146    191   366   528    -1
  147    816   600   327    -1
  148    372   135   390    -1
  149    283   291   580    -1
  150    215   769   853    -1
  151    632   958   823    -1
  152    890   582   114    -1
  153    201    30   990    -1
  154    760   541   872    -1
  155    199   213    54    -1
  156     68   225   201    -1
  157    697   537   995    -1
  158    879    61   556    -1
  159    845   759   862    -1
  160    456   958   632    -1
  161    814   586   319    -1
  162    790   386   961    -1
  163    942   190   742    -1
  164     16   161   162    -1
  165    822   367   695    -1
  166    905    82   563    -1
  167    699   966   365    -1
  168    261   953    80    -1
  169    146   331   147    -1
  170    917   506   231    -1
  171    772   561   248    -1
  172     55    62   969    -1
  173    377   610   913    -1
  174    941    15   884    -1
  175    429   144   749    -1
  176    926   136   614    -1
  177    752   103    97    -1
  178    378   839    65    -1
  179    553   548    41    -1
  180    331   736   601    -1
  181    370   620    39    -1
  182     67   969   654    -1
  183    726   946   570    -1
  184    487   922   950    -1
  185    791   798   416    -1
  186     65   614   378    -1
  187    172   171   653    -1
  188    619   379   740    -1
  189    501   994   133    -1
  190    454    90   455    -1
  191    832   564   809    -1
  192    520   516   503    -1
  193    885   106   577    -1
  194     68    66    62    -1
  195    983   322   682    -1
  196    107   891   690    -1
  197    698   360   741    -1
  198    308   681   314    -1
  199    642   425   421    -1
  200    897   718    40    -1
  201    697    26   624    -1
  202    364   927   963    -1
  203    332   786   609    -1
  204    397   485   492    -1
  205    406   887   743    -1
  206    494   499   166    -1
  207    755   276   272    -1
  208    492   494    25    -1
  209    860   979   359    -1
  210    828   944   211    -1
  211     82   244   664    -1
  212    805   218   879    -1
  213    707   795   640    -1
  214    368   363   789    -1
  215    656   138   191    -1
  216    694   790   820    -1
  217    590   127   595    -1
  218    160    16   163    -1
  219    999   657   547    -1
  220    847   443   629    -1
  221    811   279   274    -1
  222    262   241   562    -1
  223    460   898   125    -1
  224    942   192   190    -1
  225     50   214   902    -1
  226     67   877    55    -1
  227    783   319   119    -1
  228    235   247   726    -1
  229    697   380    26    -1
  230    435   916   440    -1
  231    351   582   890    -1
  232    457   444   455    -1
  233    492   496   494    -1
  234     87   474   484    -1
  235    976   114   107    -1
  236     24    42   805    -1
  237    773   238   265    -1
  238    381   979   186    -1
  239    917   710   506    -1
  240    333   350   339    -1
  241    961   325   790    -1
  242    680   938   591    -1
  243    149   151   357    -1
  244    389   962   387    -1
  245    926   362   136    -1
  246     46    41   965    -1
  247    187   188   546    -1
  248    647   224   515    -1
  249     38   184   997    -1
  250    576   899   288    -1
  251    161   982   162    -1
  252    228   943    60    -1
  253    569   882   563    -1
  254    408     9   418    -1
  255    556   212   803    -1
  256    172   870   704    -1
  257    431   434    31    -1
  258    496   480    56    -1
  259    438   424   639    -1
  260    293   301   297    -1
  261    308   307   181    -1
  262    894   410   402    -1
  263    306   675   450    -1
  264    647   515   980    -1
  265    178   988   823    -1
  266    257   649   259    -1
  267    167   536   169    -1
  268    711   517   512    -1
  269    643   667   413    -1
  270    264   263   772    -1
  271    571   835   530    -1
  272    147   889     1    -1
  273    889   344   911    -1
  274    378   614   136    -1
  275    223    60   230    -1
  276    514   978   519    -1
  277    362   914   136    -1
  278    902   650    19    -1
  279    666   807   570    -1
  280    404   139    14    -1
  281    976     4   890    -1
  282    931   218   498    -1
  283    299   733   588    -1
  284    451   326   468    -1
  285     77   770   867    -1
  286    495   760   973    -1
  287    392   623   173    -1
  288    876   221   550    -1
  289     58   827   200    -1
  290    988   715   177    -1
  291    756   907     7    -1
  292    533   245   855    -1
  293    318   939   780    -1
  294    123   784   594    -1
  295    669   101   273    -1
  296    982   929   964    -1
  297    282   922   674    -1
  298    113   483   779    -1
  299     21   164   660    -1
  300    444   592   826    -1
  301    575   284   281    -1
  302    230   211   766    -1
  303    950   922   282    -1
  304    468   326   397    -1
  305    750   641   747    -1
  306    728   237   921    -1
  307    134   347   348    -1
  308    205   932   902    -1
  309    293   181   301    -1
  310     92   593   585    -1
  311     93   476   482    -1
  312    384   615   741    -1
  313    709   495   973    -1
  314    775   833   899    -1
  315    434   428   747    -1
  316     69   224   499    -1
  317    823   144   632    -1
  318     49   279   500    -1
  319     13    83    84    -1
  320    774   725     2    -1
  321    850    31   434    -1
  322    618   843   394    -1
  323    356   838   340    -1
  324    122   986   324    -1
  325    820   790   364    -1
  326    359   963   375    -1
  327     98   527   518    -1
  328    104   525   521    -1
  329    979   185   186    -1
  330    745    32   141    -1
  331    666   725   774    -1
  332    960    91   346    -1
  333    160   242   161    -1
  334    340   332   356    -1
  335    233   236    79    -1
  336    469   929   471    -1
  337    542   184    38    -1
  338    381   543   979    -1
  339     35   420   896    -1
  340    642   427   425    -1
  341    970   220   723    -1
  342    698   610   377    -1
  343    176   540   622    -1
  344    828   211   943    -1
  345    287   278   776    -1
  346    467   475   480    -1
  347    286   668   280    -1
  348    479   475   129    -1
  349    318   735   300    -1
  350     59   980   515    -1
  351    676   302   312    -1
  352    572   668   286    -1
  353    455   465   457    -1
  354    909   127   297    -1
  355    821   382   616    -1
  356    572   270    51    -1
  357    676   300   313    -1
  358    431   112   793    -1
  359    499   498   166    -1
  360    416   415   121    -1
  361    958   846   393    -1
  362    861   138   974    -1
  363    519   978    48    -1
  364    587   310   679    -1
  365    323   123   683    -1
  366    364   790   325    -1
  367    894   968   405    -1
  368    742   999   193    -1
  369    865    33   850    -1
  370    104   972   514    -1
  371    812   275   972    -1
  372    840   359   610    -1
  373    177   749   144    -1
  374    558   197   944    -1
  375    159    13   799    -1
  376    254   826   413    -1
  377    954   781   858    -1
  378    682   295   679    -1
  379    362   926   325    -1
  380    384   360   368    -1
  381    625   791     9    -1
  382    988   144   823    -1
  383    194   992   201    -1
  384    510   229   213    -1
  385    908   937    22    -1
  386    738   797   335    -1
  387    765    50   222    -1
  388    714    30   540    -1
  389    544   717   545    -1
  390    532   777   156    -1
  391    962   361   612    -1
  392    813     6   532    -1
  393    942   742   193    -1
  394    680   592   731    -1
  395    800    38   718    -1
  396    930   432   918    -1
  397     32   848   141    -1
  398    871   760   918    -1
  399    856   935   566    -1
  400    675   684   949    -1
  401    989    58    57    -1
  402    507   506    63    -1
  403    924    86   311    -1
  404    794   449   862    -1
  405    259   649   234    -1
  406    757   180   303    -1
  407    418   703    94    -1
  408    975   117   317    -1
  409    188    24   546    -1
  410    341   340   737    -1
  411    634   707   142    -1
  412     94   398   408    -1
  413    647   980    48    -1
  414    337   787   338    -1
  415    795   957   640    -1
  416    111   689   583    -1
  417    128   326   451    -1
  418     72   519   980    -1
  419    509   514   508    -1
  420    233    79   464    -1
  421    658   510   217    -1
  422    627  1000   968    -1
  423    605   110   348    -1
  424    203   208    46    -1
  425    251   728   854    -1
  426    137   397   326    -1
  427    417    17   410    -1
  428      0   687   583    -1
  429    671   530   289    -1
  430    332   609   356    -1
  431     21   970    20    -1
  432    315   300   676    -1
  433    319   115   119    -1
  434     72    71   519    -1
  435    333   597   327    -1
  436    159    10    11    -1
  437    838   344   889    -1
  438    294   298   595    -1
  439    334   889   712    -1
  440    496   492   485    -1
  441     69   503   516    -1
  442    797   981   335    -1
  443    591   413   592    -1
  444    320   886   814    -1
  445    867   444   826    -1
  446    607   350   600    -1
  447    703   418   121    -1
  448    467   480   137    -1
  449    282    99   950    -1
  450    567   808   262    -1
  451    912   611   377    -1
  452    913   610   979    -1
  453    597   816   327    -1
  454    396   173   623    -1
  455    197    58    47    -1
  456    981   357   336    -1
  457    739   185   860    -1
  458    652   466   538    -1
  459     96   752    99    -1
  460    970    47    20    -1
  461     30   872   541    -1
  462    882   771   257    -1
  463    444   457   446    -1
  464    142   109   634    -1
  465     16   160   161    -1
  466    173   396   622    -1
  467    555   550   553    -1
  468    437   440   916    -1
  469    648   711   133    -1
  470     53    57   806    -1
  471    514   972   508    -1
  472    337   910   787    -1
  473    558    58   197    -1
  474    959   709   158    -1
  475    155   777   754    -1
  476    394   843   369    -1
  477    183   800   312    -1
  478    528   366    45    -1
  479    454   267   665    -1
  480    871   918   635    -1
  481    180   983   682    -1
  482    898   463   984    -1
  483     73   774   831    -1
  484    189   801    44    -1
  485    896   441    35    -1
  486    362   389   914    -1
  487      3   345   343    -1
  488    389   387   617    -1
  489    984   478   479    -1
  490    540   951   173    -1
  491    532   276   813    -1
  492     90   465   455    -1
  493    766   661   557    -1
  494    690   148     4    -1
  495    192   942   656    -1
  496    424   438   633    -1
  497   1001   131   816    -1
  498    503    69    56    -1
  499    841   368   360    -1
  500    287   776   775    -1
  501    414   404   703    -1
  502    601   686   985    -1
  503    577   777   578    -1
  504    972   104   812    -1
  505    756   157   158    -1
  506    381   379   696    -1
  507    374   368   789    -1
  508     50   875   214    -1
  509    971   957   429    -1
  510    429   749   971    -1
  511    154   754     6    -1
  512    425   825   421    -1
  513     20   651   164    -1
  514    863   623   392    -1
  515    994   505   133    -1
  516    948   103   580    -1
  517    782   119   888    -1
  518    267    74   665    -1
  519    295   116   732    -1
  520    634   432   930    -1
  521    243   953    10    -1
  522    698   818   840    -1
  523    880   873   206    -1
  524    148   146   343    -1
  525    941    84   832    -1
  526     17   459   904    -1
  527     48   199   557    -1
  528    852   243   253    -1
  529    435   637   638    -1
  530    537   697   624    -1
  531    717   204   546    -1
  532    855   666   250    -1
  533    180   682   303    -1
  534    812   948   576    -1
  535    394   369   696    -1
  536    610   359   979    -1
  537    696   369   543    -1
  538    624   391   367    -1
  539    223   933    62    -1
  540    720   802   839    -1
  541    688   330   609    -1
  542     30   871   540    -1
  543    401   700   956    -1
  544    185   739   801    -1
  545    651    20   932    -1
  546    518   525    98    -1
  547     35   633   824    -1
  548    546   204   187    -1
  549    731   675   949    -1
  550    269    64   573    -1
  551    474   481   484    -1
  552    571   285   834    -1
  553    426   640   957    -1
  554     77   832   770    -1
  555    162   163    16    -1
  556    664   248   568    -1
  557    794   409   309    -1
  558    352   132   786    -1
  559    204   654   992    -1
  560    129   475   462    -1
  561    763   423   849    -1
  562    563   568   569    -1
  563    531   154   574    -1
  564    738   335   869    -1
  565    817   346   260    -1
  566    306   784   684    -1
  567    260   346    18    -1
  568    446   460   452    -1
  569    793   109   428    -1
  570    800   183   716    -1
  571    387   612    39    -1
  572    752   580   103    -1
  573    806   724    53    -1
  574    448   482   796    -1
  575    118   908   586    -1
  576    239   240    74    -1
  577    712   985   596    -1
  578    540   173   622    -1
  579    454   770   267    -1
  580    526   522   520    -1
  581    737   340   334    -1
  582    679   310   303    -1
  583    115   319   586    -1
  584    331   146   891    -1
  585    322   295   682    -1
  586    526   102   523    -1
  587    225   872    30    -1
  588    488   493   505    -1
  589    250   570   264    -1
  590    912   915   611    -1
  591    296   307   314    -1
  592    436   642   423    -1
  593    212    52   803    -1
  594    312   296   762    -1
  595    645   113   602    -1
  596    895   744  1000    -1
  597    455   867   454    -1
  598    291   885   271    -1
  599    790   619   386    -1
  600    739   860   927    -1
  601    365   613   955    -1
  602    408   400   625    -1
  603    336     4   335    -1
  604    546    24   216    -1
  605    389   617   914    -1
  606    891   146   690    -1
  607    984   125   898    -1
  608     56   231    70    -1
  609    910   911    81    -1
  610    744   403   415    -1
  611     85   934   256    -1
  612    628   700   402    -1
  613    277   105   268    -1
  614    893   120   139    -1
  615    281   284   581    -1
  616     46   965   210    -1
  617    660   164   651    -1
  618    308   126   681    -1
  619     95   274    49    -1
  620    939   996   780    -1
  621    908    22   888    -1
  622    714   176   175    -1
  623    606   869   342    -1
  624     80   257   259    -1
  625    529    95   280    -1
  626    644   306   450    -1
  627    779   483   673    -1
  628     19    50   902    -1
  629    642   421   423    -1
  630    412   792   407    -1
  631    451   468   450    -1
  632    545   220    21    -1
  633    441   140   849    -1
  634    174   713   761    -1
  635    815   591   925    -1
  636     81   787   910    -1
  637    484    88    87    -1
  638    506    70   231    -1
  639    987   399   743    -1
  640    636   706   112    -1
  641    804   207   878    -1
  642    673   490   145    -1
  643    765   875    50    -1
  644    791   625   892    -1
  645    432   706   918    -1
  646    602   788   692    -1
  647    551   722   198    -1
  648    872   217   760    -1
  649    811   672   572    -1
  650    757   909   297    -1
  651    148   345   342    -1
  652    885   577   271    -1
  653     93   482   472    -1
  654    358   605   817    -1
  655    709   508   907    -1
  656    367   461   624    -1
  657     26   914   391    -1
  658    419   887   406    -1
  659    695   914   617    -1
  660    837   111   608    -1
  661    636    34   706    -1
  662    837   114   338    -1
  663    893   414   121    -1
  664    406   743   399    -1
  665    944   197   970    -1
  666    297   127   293    -1
  667    415   120   893    -1
  668    661    52   212    -1
  669    499   224   498    -1
  670    917   231   479    -1
  671    912   377   913    -1
  672    602   113   357    -1
  673    611   955   841    -1
  674    817   354   358    -1
  675    426   638   640    -1
  676    917   478   796    -1
  677    360   377   611    -1
  678     60   943   230    -1
  679    542   683   184    -1
  680    296   314   762    -1
  681     25   473   901    -1
  682    123   324   445    -1
  683    103   948   812    -1
  684    609   330   356    -1
  685    844   366   135    -1
  686    523    71    72    -1
  687    371   361   386    -1
  688     54   766   557    -1
  689    547   863   193    -1
  690    415   416   744    -1
  691    327   350   333    -1
  692     56   480   231    -1
  693     93   465   470    -1
  694    748   142   640    -1
  695     76   245   882    -1
  696    371   612   361    -1
  697    524   711   648    -1
  698    262   952   241    -1
  699    261   947   953    -1
  700     87   486    89    -1
  701    471   134   145    -1
  702    549   552   875    -1
  703    410   701   411    -1
  704    269   273   105    -1
  705    702   627   700    -1
  706    789   693   385    -1
  707    232    73   727    -1
  708    690   976   107    -1
  709    725   666   855    -1
  710     55    60    62    -1
  711    482   448   472    -1
  712    110   691   348    -1
  713    203   989   560    -1
  714     54   557   199    -1
  715    869   335     4    -1
  716    615   384   819    -1
  717    321   122   323    -1
  718    165   166   498    -1
  719    281   581     6    -1
  720    463    93   472    -1
  721    826   592   413    -1
  722    509   217   510    -1
  723    364   621   927    -1
  724    218   931   879    -1
  725    411   701    28    -1
  726    383   376   846    -1
  727    648   513   527    -1
  728    581   152   574    -1
  729    166   165   535    -1
  730    784   123   445    -1
  731    211   230   943    -1
  732    585    86   589    -1
  733    273   101   105    -1
  734    130   919   453    -1
  735    808   265    83    -1
  736    522   523    59    -1
  737    222    19   722    -1
  738    975   735   780    -1
  739    909   937   118    -1
  740     75   262   562    -1
  741     53   554    57    -1
  742    394   696   382    -1
  743    290   670   275    -1
  744    321   304   122    -1
  745    515   224    69    -1
  746    113   645   483    -1
  747    908   118   937    -1
  748    769   555   553    -1
  749    606   738   869    -1
  750    195   880   804    -1
  751    962   362   325    -1
  752    810   152   571    -1
  753    613   842   373    -1
  754    851   173   951    -1
  755      2   247   235    -1
  756    338   114   582    -1
  757    518   513   521    -1
  758    919   644   450    -1
  759     54   229   223    -1
  760    614   621   926    -1
  761    683    37   734    -1
  762    433   437   746    -1
  763    123   594   184    -1
  764    640   142   707    -1
  765    928   458   631    -1
  766    120    14   139    -1
  767    979   860   185    -1
  768    241   234   829    -1
  769    317   117   316    -1
  770    553   550   221    -1
  771    641   442   436    -1
  772    945   246   881    -1
  773    127    23   595    -1
  774    339   350   341    -1
  775    226   196   663    -1
  776    334   599   737    -1
  777    238   773   244    -1
  778    157   922   158    -1
  779    585   589    92    -1
  780    353   691   582    -1
  781    597   333   598    -1
  782    452   451   675    -1
  783    427    33   425    -1
  784    396   657   967    -1
  785    544   545    21    -1
  786     80   259   261    -1
  787    393   861   974    -1
  788    514   519   525    -1
  789    505   994   484    -1
  790    771   649   257    -1
  791    429   957   795    -1
  792    568   248   561    -1
  793    816   597   685    -1
  794    151   329   859    -1
  795    881   246   906    -1
  796    464    87    89    -1
  797    248   883   562    -1
  798    698   741   818    -1
  799    379   381   740    -1
  800    136   380   378    -1
  801    576   278   287    -1
  802    769   227   873    -1
  803     25   397   492    -1
  804    509   510   978    -1
  805      9   408   625    -1
  806    785   329   151    -1
  807    901   397    25    -1
  808    965   548   655    -1
  809    146     3   343    -1
  810    923   584   936    -1
  811    296   312   302    -1
  812    316   181   307    -1
  813     72   980    59    -1
  814    783   119   782    -1
  815    373   842   363    -1
  816    605   347   817    -1
  817    458   692   940    -1
  818    770   832   255    -1
  819    439   971   749    -1
  820    493    97   497    -1
  821    887   401   956    -1
  822    866    34   745    -1
  823     34   636   745    -1
  824    144   429   632    -1
  825     17   458   459    -1
  826    662   529   280    -1
  827    886   116    23    -1
  828    102    71   523    -1
  829    585   975    86    -1
  830    485   397   137    -1
  831    152   153   574    -1
  832    351   353   582    -1
  833    777   155   578    -1
  834    320   732   886    -1
  835    452   460   128    -1
  836    190   721   380    -1
  837    588   305   299    -1
  838    840   963   359    -1
  839    965   655   219    -1
  840     90   233   464    -1
  841    137   480   485    -1
  842    953   243   905    -1
  843    351   336   113    -1
  844    880   206   804    -1
  845    178   179   988    -1
  846    720   839    45    -1
  847    414   703   121    -1
  848    380   721   839    -1
  849    995   537   751    -1
  850    560   989   663    -1
  851     11   808    13    -1
  852    759   376   383    -1
  853    815   781   309    -1
  854     70   503    56    -1
  855    725    76   249    -1
  856    755   899   833    -1
  857    936   778   923    -1
  858    778   531   923    -1
  859    301   180   297    -1
  860    232   807    73    -1
  861    398   627   702    -1
  862    597   598   685    -1
  863    483   950   673    -1
  864    848   427   141    -1
  865    409   958    29    -1
  866     40   997   730    -1
  867    282   674   106    -1
  868    681   321   182    -1
  869    533   771   245    -1
  870    184   594   124    -1
  871    482   476   489    -1
  872    125   984   129    -1
  873    236    74   854    -1
  874    237   945   964    -1
  875    405   864   412    -1
  876    444   867   455    -1
  877    193   863   656    -1
  878     91   459   940    -1
  879    531   153   923    -1
  880    463   898   457    -1
  881    296   316   307    -1
  882     22   857   888    -1
  883    122   304   986    -1
  884    969    62    66    -1
  885    329   785    91    -1
  886    799   534   252    -1
  887    812   576   275    -1
  888    537   624   461    -1
  889    235   232   727    -1
  890    348   998   134    -1
  891    502   708   489    -1
  892    509   508   973    -1
  893    913   979   543    -1
  894     61   931    48    -1
  895    566   935   934    -1
  896    658   217   225    -1
  897    294    92   589    -1
  898    293   733   181    -1
  899    733   126   308    -1
  900     80   905   565    -1
  901    140   420   824    -1
  902    209   555   202    -1
  903      2   235   831    -1
  904    379   619   382    -1
  905    318   300   315    -1
  906    462   475   467    -1
  907    681   126   304    -1
  908    875   874   767    -1
  909    882   257   565    -1
  910    285   571   152    -1
  911    502   489   491    -1
  912    743   887   956    -1
  913    417   458    17    -1
  914    770   454   867    -1
  915    696   379   382    -1
  916    253   906    85    -1
  917    869     4   342    -1
  918    809    15   941    -1
  919    175   900   713    -1
  920    154   531   155    -1
  921    446   457   898    -1
  922     51   270   500    -1
  923     13   808    83    -1
  924    622   477   176    -1
  925    206   227   559    -1
  926    753   526   520    -1
  927    708   482   489    -1
  928    915   955   611    -1
  929    983   677   292    -1
  930    549   764   877    -1
  931    109   793   112    -1
  932    665    74   236    -1
  933    921   469    79    -1
  934    890   114   976    -1
  935    670   508   972    -1
  936    288   290   275    -1
  937    903   943   764    -1
  938    292   677   316    -1
  939    180   677   983    -1
  940    783   857   587    -1
  941    488   490   493    -1
  942    123   122   324    -1
  943    438   639   763    -1
  944    348   347   605    -1
  945    763   639   436    -1
  946    579   668    64    -1
  947    260   354   817    -1
  948    146     1     3    -1
  949    441   421    35    -1
  950    670   907   508    -1
  951    715   706    34    -1
  952    889     3     1    -1
  953    491    88   501    -1
  954    727    73   831    -1
  955    412   406   399    -1
  956    908   115   586    -1
  957    402   411   628    -1
  958    834    64   672    -1
  959   1001   603   132    -1
  960    807   232   726    -1
  961    159    11    13    -1
  962    851   393   392    -1
  963    291   936   776    -1
  964    524   527   100    -1
  965    649   771   829    -1
  966    844   186   189    -1
  967    395   820   818    -1
  968    791   416     9    -1
  969    413   667   254    -1
  970    159   253    10    -1
  971    503   507    63    -1
  972    947   261   952    -1
  973    897   794   309    -1
  974    743   629   409    -1
  975    526   100   102    -1
  976    720    45   366    -1
  977    433   746   442    -1
  978    969    67    55    -1
  979    705   631   417    -1
  980      1   146   147    -1
  981    758   652   538    -1
  982    642   442   746    -1
  983    717   544   654    -1
  984    895   403   744    -1
  985    593   117   585    -1
  986    622   396   967    -1
  987    208   853    46    -1
  988    989   827    58    -1
  989    859   692   788    -1
  990    542    38   716    -1
  991    290   288   755    -1
  992    316   302   317    -1
  993    458   417   631    -1
  994    124   730   184    -1
  995    956   700   628    -1
  996    270    49   500    -1
  997    922   157   674    -1
  998    551   203    46    -1
  999    478   984   448    -1
 1000    726   247   830    -1
 1001     71   525   519    -1
 1002    822   845   862    -1
 1003    150   705   417    -1
 1004    149   797   738    -1
 1005    145   481   471    -1
 1006    915   912   843    -1
 1007    180   301   677    -1
 1008    988   177   144    -1
 1009    758   170   652    -1
 1010    704   792   539    -1
 1011    141   427   746    -1
 1012    666    73   807    -1
 1013    994    88   484    -1
 1014    134   471   960    -1
 1015    162   881    15    -1
 1016    402   410   411    -1
 1017    587   320   814    -1
 1018    920   761   713    -1
 1019    645   707   143    -1
 1020    294   595   116    -1
 1021    794   383   846    -1
 1022    638   748   640    -1
 1023    909   757   678    -1
 1024    543   369   913    -1
 1025     94   404     8    -1
 1026    754   154   155    -1
 1027    882   245   771    -1
 1028    857   310   587    -1
 1029     36   842   613    -1
 1030    990    43   719    -1
 1031    671   268   991    -1
 1032    512   511   502    -1
 1033    815   309   443    -1
 1034    295   322   116    -1
 1035    386   740   371    -1
 1036    856   265   238    -1
 1037    900   477   751    -1
 1038     13    84   884    -1
 1039    865   424    33    -1
 1040    723   803    52    -1
 1041    552   214   875    -1
 1042    933    68    62    -1
 1043    570   250   666    -1
 1044    987   409   171    -1
 1045    890     4   336    -1
 1046     67   214   552    -1
 1047    219   202   880    -1
 1048    651   932   205    -1
 1049    258   561   263    -1
 1050    168   900   536    -1
 1051    471   474   469    -1
 1052     13   884   799    -1
 1053    959   487   930    -1
 1054     30   541   871    -1
 1055     75   562   883    -1
 1056     93   470   476    -1
 1057    673    99    97    -1
 1058    534   884    15    -1
 1059     26   391   624    -1
 1060    258   569   561    -1
 1061    167   169   166    -1
 1062    744   626  1000    -1
 1063    246   251   906    -1
 1064    955   613   373    -1
 1065    945   237   246    -1
 1066   1001   685   603    -1
 1067    522   526   523    -1
 1068    334   340   838    -1
 1069    302   316   296    -1
 1070    733   299   126    -1
 1071    122   123   323    -1
 1072    517    63   511    -1
 1073    446   898   460    -1
 1074    615   395   741    -1
 1075    714   540   176    -1
 1076    468   901   450    -1
 1077    241   829   772    -1
 1078    340   341   349    -1
 1079    686   688   604    -1
 1080      7   157   756    -1
 1081    210   195   878    -1
 1082    868   502   491    -1
 1083    498   647   931    -1
 1084    318   938   939    -1
 1085    613   365   615    -1
 1086    153   531   574    -1
 1087    799   884   534    -1
 1088    390   135   388    -1
 1089    728   251   246    -1
 1090    571   834   835    -1
 1091    328   601   985    -1
 1092    768   724   549    -1
 1093    607   131   352    -1
 1094    954   309   781    -1
 1095    930   707   634    -1
 1096    960   471   929    -1
 1097    249     2   725    -1
 1098     58   200    47    -1
 1099    306   644   124    -1
 1100    106   885   283    -1
 1101    569   258   882    -1
 1102    400   702   700    -1
 1103    638   637   748    -1
 1104      8   403   895    -1
 1105    977   633   438    -1
 1106    241   952   234    -1
 1107    557   661    61    -1
 1108    239   770   255    -1
 1109    927   860   375    -1
 1110    486    87    88    -1
 1111    943   903   828    -1
 1112    376   370    27    -1
 1113    551   198   827    -1
 1114    556   216   805    -1
 1115    401   892   400    -1
 1116    608   891   107    -1
 1117    242   667   161    -1
 1118    720   366   189    -1
 1119    945   881   162    -1
 1120    656   942   193    -1
 1121    175   713   714    -1
 1122    857   782   888    -1
 1123    207   804   206    -1
 1124     82   664   563    -1
 1125    877   764   228    -1
 1126    259   952   261    -1
 1127    879   931    61    -1
 1128    998   348   691    -1
 1129    917   796   710    -1
 1130    477   900   175    -1
 1131     70   507   503    -1
 1132    695   845   822    -1
 1133    711   868   501    -1
 1134     14     8   404    -1
 1135    836   445   996    -1
 1136    313   735   317    -1
 1137    690   146   148    -1
 1138    184   683   123    -1
 1139    729   152   573    -1
 1140    409   629   443    -1
 1141    280   668   662    -1
 1142      3   889   911    -1
 1143    238   935   856    -1
 1144    385   693    36    -1
 1145    521   513   108    -1
 1146    467   128   462    -1
 1147    285   729    64    -1
 1148     49   274   279    -1
 1149    634   112   432    -1
 1150    863   396   623    -1
 1151    981   336   335    -1
 1152    785   149   738    -1
 1153    954   858   800    -1
 1154    866   435   749    -1
 1155    695   367   391    -1
 1156    189    44   802    -1
 1157     89   470    90    -1
 1158    732   116   886    -1
 1159    161   667   904    -1
 1160     14   120   630    -1
 1161    600   131   607    -1
 1162    810     5   153    -1
 1163      8    14   403    -1
 1164    280    49   286    -1
 1165    968   700   627    -1
 1166    453   538   461    -1
 1167    861   376    27    -1
 1168    689   787   355    -1
 1169    959   495   709    -1
 1170      2   249   247    -1
 1171    595   298   590    -1
 1172    328   985   712    -1
 1173    521   525   518    -1
 1174    986   311   324    -1
 1175    988   179   715    -1
 1176    704   539   172    -1
 1177    449   453   822    -1
 1178    256    82   852    -1
 1179     19   650   198    -1
 1180    700   968   402    -1
 1181    338   689   837    -1
 1182    644   730   124    -1
 1183    414   893    12    -1
 1184    395   615   966    -1
 1185    776   584   669    -1
 1186    205   902   214    -1
 1187    738    18   785    -1
 1188    189   186   801    -1
 1189    136   914    26    -1
 1190     33   427   848    -1
 1191    974   863   392    -1
 1192    728   921   236    -1
 1193    381   372   740    -1
 1194    172   539   987    -1
 1195    494   169    25    -1
 1196    660   651   214    -1
 1197      0   330   687    -1
 1198    239   566   240    -1
 1199    355   583   689    -1
 1200    665   233   454    -1
 1201    680   939   938    -1
 1202    564   254   242    -1
 1203    126   299   924    -1
 1204    278   576   948    -1
 1205    533   829   771    -1
 1206    266   358   354    -1
 1207    561   772   263    -1
 1208    473    25   169    -1
 1209    534    15   881    -1
 1210    699   618   966    -1
 1211     77   254   564    -1
 1212     37   183   734    -1
 1213    759   845   620    -1
 1214    183   312   762    -1
 1215     42    24   194    -1
 1216    693   789   363    -1
 1217    354   260   738    -1
 1218    999   967   657    -1
 1219     51   279   811    -1
 1220    213    48   978    -1
 1221    422   437   750    -1
 1222    209   655   876    -1
 1223     86   924   305    -1
 1224    539   792   399    -1
 1225    468   397   901    -1
 1226    456   870   653    -1
 1227    870   456   928    -1
 1228    106   674   577    -1
 1229    657   863   547    -1
 1230    592   680   591    -1
 1231    100   527   102    -1
 1232    660   544    21    -1
 1233    772   248   562    -1
 1234    819   613   615    -1
 1235     44    65   802    -1
 1236    985   604   596    -1
 1237    593    92   322    -1
 1238    554   663    57    -1
 1239    846   958   794    -1
 1240    577   156   777    -1
 1241    326   467   137    -1
 1242    441   896   140    -1
 1243    659   206   559    -1
 1244    842   693   363    -1
 1245    958   851   823    -1
 1246    777   532   754    -1
 1247    517   100   753    -1
 1248    563   882   565    -1
 1249    951   179   178    -1
 1250    360   611   841    -1
 1251     23   116   595    -1
 1252    266   354   345    -1
 1253    190   192   528    -1
 1254    463   457   465    -1
 1255    130   447    40    -1
 1256    699   915   843    -1
 1257    928   692   458    -1
 1258    441   849   421    -1
 1259    852    85   256    -1
 1260     46   853    41    -1
 1261    947    11    10    -1
 1262    494   496   499    -1
 1263    534   881   252    -1
 1264    588   298   294    -1
 1265    954   718   897    -1
 1266    599   334   712    -1
 1267    740   372   371    -1
 1268    223   230    54    -1
 1269    473   170   901    -1
 1270    704   631   705    -1
 1271    618   382   821    -1
 1272    354   738   606    -1
 1273    318   315   938    -1
 1274    221   548   553    -1
 1275    108   497   103    -1
 1276    697   742   380    -1
 1277    552   877    67    -1
 1278    709   756   158    -1
 1279     66   654   969    -1
 1280    995   751   477    -1
 1281    608   687   736    -1
 1282      4   148   342    -1
 1283    755   288   899    -1
 1284    957   971   426    -1
 1285    478   448   796    -1
 1286     28   628   411    -1
 1287    691   353   998    -1
 1288    801   739    44    -1
 1289    960   929   982    -1
 1290    684   675   306    -1
 1291    834   811   274    -1
 1292    768   767   874    -1
 1293    174   714   713    -1
 1294    920   713   646    -1
 1295    786   132   688    -1
 1296    954   800   718    -1
 1297    419   412   864    -1
 1298     67   660   214    -1
 1299    965   195   210    -1
 1300    358   910   337    -1
 1301    162    15   163    -1
 1302    964   162   982    -1
 1303    579   662   668    -1
 1304    138   863   974    -1
 1305    861    27   388    -1
 1306    808   567   265    -1
 1307    170   758   919    -1
 1308    695   391   914    -1
 1309    669   584   991    -1
 1310    854   934    85    -1
 1311    599   603   737    -1
 1312    768   874   226    -1
 1313    443   847   643    -1
 1314    423   763   436    -1
 1315    390   612   371    -1
 1316    769   873   555    -1
 1317    466   751   461    -1
 1318    543   381   696    -1
 1319    639   641   436    -1
 1320    861   388   138    -1
 1321    864   798   892    -1
 1322    350   327   600    -1
 1323    911   910   266    -1
 1324    279    51   500    -1
 1325    274    95   835    -1
 1326    407   405   412    -1
 1327    692   859   940    -1
 1328     78   830   249    -1
 1329    204   992   187    -1
 1330    941   832   809    -1
 1331    736   686   601    -1
 1332    705   894   407    -1
 1333    935   256   934    -1
 1334    142   748   109    -1
 1335    490   488   481    -1
 1336    646   165   218    -1
 1337    200   827   198    -1
 1338    113   336   357    -1
 1339    550   209   876    -1
 1340    224   647   498    -1
 1341    461   822   453    -1
 1342    313   302   676    -1
 1343     63   520   503    -1
 1344    195   219   880    -1
 1345    488   484   481    -1
 1346    892   401   887    -1
 1347    504   133   505    -1
 1348    422   440   437    -1
 1349    268   105   101    -1
 1350    283   580   752    -1
 1351    687   686   736    -1
 1352    744   798   626    -1
 1353    612   387   962    -1
 1354    166   169   494    -1
 1355     40   447   897    -1
 1356     44   739    65    -1
 1357    865   639   424    -1
 1358    620   387    39    -1
 1359    688   609   786    -1
 1360    527   513   518    -1
 1361    289   268   671    -1
 1362    694   821   616    -1
 1363    429   795   632    -1
 1364    281   833   575    -1
 1365     30   714   174    -1
 1366    963   820   364    -1
 1367    209   202   219    -1
 1368    148   343   345    -1
 1369    509   978   514    -1
 1370    268   289   277    -1
 1371    725   245    76    -1
 1372    465    90   470    -1
 1373    833   813   755    -1
 1374    834   285    64    -1
 1375    930   495   959    -1
 1376    213   229    54    -1
 1377    497   505   493    -1
 1378    528   721   190    -1
 1379    344   355    81    -1
 1380    911   344    81    -1
 1381    581   573   152    -1
 1382     85   906   251    -1
 1383    727   831   235    -1
 1384     96    99   282    -1
 1385    201   992    66    -1
 1386    995   477   999    -1
 1387    596   603   599    -1
 1388    748   637   430    -1
 1389    939   680   836    -1
 1390     26   380   136    -1
 1391    760   495   918    -1
 1392    486   476   470    -1
 1393    323   683   734    -1
 1394    387   620   617    -1
 1395    322   294   116    -1
 1396    645   143   950    -1
 1397    547   193   999    -1
 1398    523    72    59    -1
 1399    258    78    76    -1
 1400    554   226   663    -1
 1401     34   866   177    -1
 1402    414    12   404    -1
 1403    802   720   189    -1
 1404    733   308   181    -1
 1405    764   724   903    -1
 1406    749   177   866    -1
 1407    819   374   385    -1
 1408    525   104   514    -1
 1409    694   395   821    -1
 1410    818   741   395    -1
 1411    686   604   985    -1
 1412    480   475   231    -1
 1413    181   316   677    -1
 1414    873   227   206    -1
 1415    201   990   194    -1
 1416    631   870   928    -1
 1417    723   944   970    -1
 1418    233   665   236    -1
 1419    267   239    74    -1
 1420    831   774     2    -1
 1421    339   603   598    -1
 1422    443   309   409    -1
 1423    584     5   991    -1
 1424    449   897   447    -1
 1425    428   430   422    -1
 1426    820   963   840    -1
 1427    460   125   128    -1
 1428    558   828   806    -1
 1429    437   141   746    -1
 1430    233    90   454    -1
 1431    277   289   662    -1
 1432   1000   405   968    -1
 1433    189   366   844    -1
 1434    551   827   203    -1
 1435    751   466   536    -1
 1436    810   530   671    -1
 1437     43    30   761    -1
 1438    646   900   165    -1
 1439    629   743   956    -1
 1440    944   828   558    -1
 1441    253   243    10    -1
 1442    708   796   482    -1
 1443     96   106   283    -1
 1444    466   473   536    -1
 1445    878   222   722    -1
 1446    315   781   925    -1
 1447    339   341   737    -1
 1448    581   284   573    -1
 1449    751   537   461    -1
 1450    141   866   745    -1
 1451    650   932    20    -1
 1452     47   650    20    -1
 1453     18   738   260    -1
 1454    154     6   574    -1
 1455    592   444   446    -1
 1456    171    29   653    -1
 1457    450   901   919    -1
 1458    431   636   112    -1
 1459      7   272   532    -1
 1460   1001   352   131    -1
 1461    686   330   688    -1
 1462    607   349   341    -1
 1463     99   673   950    -1
 1464    851   958   393    -1
 1465    895  1000   627    -1
 1466    712   147   328    -1
 1467     63   517   753    -1
 1468    321   734   182    -1
 1469     42   920   646    -1
 1470    538   466   461    -1
 1471    390    39   612    -1
 1472     41   769   553    -1
 1473    273   269   575    -1
 1474    780   996   445    -1
 1475    750   437   433    -1
 1476    981   149   357    -1
 1477    787   689   338    -1
 1478    205   214   651    -1
 1479    182   762   314    -1
 1480     77   867   826    -1
 1481     66   992   654    -1
 1482    863   657   396    -1
 1483    228    60    55    -1
 1484    275   670   972    -1
 1485     89    90   464    -1
 1486    864   892   419    -1
 1487    253    85   852    -1
 1488    477   622   967    -1
 1489    278   291   776    -1
 1490    919   758   538    -1
 1491    355   787    81    -1
 1492    297   180   757    -1
 1493      7   907   272    -1
 1494    707   930   143    -1
 1495    730   644   130    -1
 1496    130    40   730    -1
 1497    298   733   293    -1
 1498    318   780   735    -1
 1499    365   955   699    -1
 1500    789   385   374    -1
 1501    670   272   907    -1
 1502     35   824   420    -1
 1503    408   398   702    -1
 1504    207   222   878    -1
 1505    329    91   940    -1
 1506    410   894   150    -1
 1507    234   649   829    -1
 1508     27    39   390    -1
 1509    916   435   866    -1
 1510    191   528   192    -1
 1511    594   784   306    -1
 1512    570   807   726    -1
 1513    887   419   892    -1
 1514     84   255   832    -1
 1515    339   737   603    -1
 1516    930   487   143    -1
 1517    726   830   946    -1
 1518     80   565   257    -1
 1519    668   572   672    -1
 1520    392   393   974    -1
 1521    647    48   931    -1
 1522    744   416   798    -1
 1523    269   573   284    -1
 1524    841   955   373    -1
 1525    240   854    74    -1
 1526    331   601   328    -1
 1527    997   718    38    -1
 1528    272   290   755    -1
 1529    604   603   596    -1
 1530    552   549   877    -1
 1531    849   140   977    -1
 1532    865   850   747    -1
 1533      9   416   121    -1
 1534    381   844   372    -1
 1535    896   420   140    -1
 1536    317   302   313    -1
 1537     52   661   944    -1
 1538    456   653    29    -1
 1539    113   779   351    -1
 1540    165   498   218    -1
 1541    661   212    61    -1
 1542    626   405  1000    -1
 1543    140   824   977    -1
 1544    386   619   740    -1
 1545    409   794   958    -1
 1546    762   734   183    -1
 1547    194    24   188    -1
 1548    440   430   637    -1
 1549    201    66    68    -1
 1550    860   359   375    -1
 1551    824   633   977    -1
 1552    560   663   196    -1
 1553    641   865   747    -1
 1554    481   145   490    -1
 1555    765   659   875    -1
 1556    763   977   438    -1
 1557     98   102   527    -1
 1558    349   332   340    -1
 1559    253   159   252    -1
 1560     42   719   920    -1
 1561    109   430   428    -1
 1562    792   704   407    -1
 1563    353   673   998    -1
 1564    607   352   349    -1
 1565    118   586   814    -1
 1566    272   670   290    -1
 1567    629   956    28    -1
 1568    560   196   208    -1
 1569    724   764   549    -1
 1570    686   687   330    -1
 1571    733   298   588    -1
 1572    768    53   724    -1
 1573    965    41   548    -1
 1574    959   158   487    -1
 1575    487   158   922    -1
 1576    654   660    67    -1
 1577    360   384   741    -1
 1578    881   906   252    -1
 1579     29   171   409    -1
 1580    766   211   661    -1
 1581    141   916   866    -1
 1582    529   662   289    -1
 1583    306   124   594    -1
 1584    925   591   938    -1
 1585    890   336   351    -1
 1586    125   462   128    -1
 1587    430   440   422    -1
 1588    786   332   349    -1
 1589    960   459    91    -1
 1590    220   970    21    -1
 1591    549   875   767    -1
 1592    374   819   384    -1
 1593    839   802    65    -1
 1594     76    78   249    -1
 1595    646   805    42    -1
 1596    644   919   130    -1
 1597    853   769    41    -1
 1598    627   398   895    -1
 1599    252   159   799    -1
 1600    465    93   463    -1
 1601    894   405   407    -1
 1602    121   418     9    -1
 1603    100   517   524    -1
 1604    473   169   536    -1
 1605    292   117   593    -1
 1606    852   905   243    -1
 1607    127   590   293    -1
 1608    900   646   713    -1
 1609    608   736   891    -1
 1610    882   258    76    -1
 1611    535   165   168    -1
 1612    167   535   168    -1
 1613    436   442   642    -1
 1614    742   190   380    -1
 1615    186   185   801    -1
 1616    604   132   603    -1
 1617    479   231   475    -1
 1618    330     0   356    -1
 1619    178   823   851    -1
 1620    176   477   175    -1
 1621    264   772   250    -1
 1622    888   115   908    -1
 1623    469   474    79    -1
 1624    654   544   660    -1
 1625    732   679   295    -1
 1626    524   648   527    -1
 1627    987   171   172    -1
 1628    209   219   655    -1
 1629    754   532     6    -1
 1630    424   425    33    -1
 1631    242   160   809    -1
 1632    515    69   516    -1
 1633    565   905   563    -1
 1634    621   364   926    -1
 1635    221   876   655    -1
 1636    788   602   357    -1
 1637    451   452   128    -1
 1638    598   333   339    -1
 1639    321   323   734    -1
 1640    897   449   794    -1
 1641    532   272   276    -1
 1642    310   857    22    -1
 1643    783   587   319    -1
 1644    955   915   699    -1
 1645    266   910   358    -1
 1646    131   600   816    -1
 1647    236   854   728    -1
 1648    572   286   270    -1
 1649    711   524   517    -1
 1650    557    61    48    -1
 1651    912   913   369    -1
 1652    370    39    27    -1
 1653    852    82   905    -1
 1654    894   705   150    -1
 1655     48   213   199    -1
 1656     59   515   516    -1
 1657    973   508   709    -1
 1658    271   936   291    -1
 1659    535   167   166    -1
 1660    563   664   568    -1
 1661    424   825   425    -1
 1662    424   633   825    -1
 1663    284   575   269    -1
 1664    672   811   834    -1
 1665     69   499   496    -1
 1666    919   538   453    -1
 1667    451   450   675    -1
 1668    613   819    36    -1
 1669    993   108   513    -1
 1670    504   108   993    -1
 1671    722   210   878    -1
 1672    128   467   326    -1
 1673    673    97   490    -1
 1674     14   630   403    -1
 1675    598   603   685    -1
 1676    347   346   817    -1
 1677    951   540   871    -1
 1678      7   532   156    -1
 1679    966   821   395    -1
 1680    691   110   582    -1
 1681    702   400   408    -1
 1682    838   889   334    -1
 1683    715   635   706    -1
 1684    211   944   661    -1
 1685    739   927   621    -1
 1686    378   380   839    -1
 1687    664   244   883    -1
 1688      5   671   991    -1
 1689    322    92   294    -1
 1690    305   924   299    -1
 1691    747   428   422    -1
 1692    344   583   355    -1
 1693    841   373   368    -1
 1694    560   208   203    -1
 1695      5   923   153    -1
 1696    577   578   271    -1
 1697    954   897   309    -1
 1698    264   570   263    -1
 1699    751   536   900    -1
 1700    984   463   472    -1
 1701    472   448   984    -1
 1702    993   513   648    -1
 1703    521   108   103    -1
 1704    551    46   210    -1
 1705    449   447   453    -1
 1706    961   962   325    -1
 1707    840   610   698    -1
 1708    239   267   770    -1
 1709    559   196   226    -1
 1710    659   559   226    -1
 1711    934   240   566    -1
 1712    966   618   821    -1
 1713    616   790   694    -1
 1714    421   825    35    -1
 1715    778   271   578    -1
 1716    337   605   358    -1
 1717    240   934   854    -1
 1718    555   873   202    -1
 1719    678   303   310    -1
 1720    724   806   903    -1
 1721    818   820   840    -1
 1722    833   281   813    -1
 1723     71    98   525    -1
 1724    479   478   917    -1
 1725    579   277   662    -1
 1726    732   320   587    -1
 1727    701   643   847    -1
 1728    576   287   899    -1
 1729     62    60   223    -1
 1730    496   485   480    -1
 1731     80   953   905    -1
 1732    459   458   940    -1
 1733    946    78   258    -1
 1734    658   933   229    -1
 1735    581   574     6    -1
 1736    361   961   386    -1
 1737    571   530   810    -1
 1738     68   933   658    -1
 1739    689   111   837    -1
 1740    187   992   194    -1
 1741    223   229   933    -1
 1742    765   207   206    -1
 1743    195   965   219    -1
 1744    274   835   834    -1
 1745    907   756   709    -1
 1746    418    94   408    -1
 1747    775   776   669    -1
 1748     49   280    95    -1
 1749    383   794   862    -1
 1750    426   971   439    -1
 1751    659   874   875    -1
 1752      8   895   398    -1
 1753    350   607   341    -1
 1754    439   638   426    -1
 1755    163    15   809    -1
 1756    182   314   681    -1
 1757    345     3   266    -1
 1758      3   911   266    -1
 1759    545   216   220    -1
 1760    550   555   209    -1
 1761     37   683   542    -1
 1762    964   945   162    -1
 1763    179   951   871    -1
 1764    511   710   502    -1
 1765    635   918   706    -1
 1766    242   254   667    -1
 1767    732   587   679    -1
 1768    222   207   765    -1
 1769    803   220   216    -1
 1770    512   517   511    -1
 1771    593   983   292    -1
 1772    836   996   939    -1
 1773    132   604   688    -1
 1774    564   832    77    -1
 1775      0   838   356    -1
 1776     51   811   572    -1
 1777    731   452   675    -1
 1778    814   319   587    -1
 1779    431   793   434    -1
 1780    273   775   669    -1
 1781    849   423   421    -1
 1782    742   697   995    -1
 1783    650   902   932    -1
 1784    632   795   928    -1
 1785    376   861   846    -1
 1786    861   393   846    -1
 1787    947    10   953    -1
 1788    871   635   179    -1
 1789    456   632   928    -1
 1790    368   373   363    -1
 1791    244   935   238    -1
 1792    643   413   443    -1
 1793    815   443   413    -1
 1794    946   263   570    -1
 1795    990    30    43    -1
 1796    987   743   409    -1
 1797    901   170   919    -1
 1798    990   719    42    -1
 1799    230   766    54    -1
 1800    721   528    45    -1
 1801    909   118   127    -1
 1802    118    23   127    -1
 1803    262   947   952    -1
 1804    892   798   791    -1
 1805    215   227   769    -1
 1806    506   511    63    -1
 1807    641   639   865    -1
 1808    447   130   453    -1
 1809    584   923     5    -1
 1810    556    61   212    -1
 1811    107   837   608    -1
 1812    576   288   275    -1
 1813    120   415   630    -1
 1814     91    18   346    -1
 1815     18    91   785    -1
 1816    851   392   173    -1
 1817    703   404    94    -1
 1818    505   484   488    -1
 1819    960   982   459    -1
 1820    782   857   783    -1
 1821    310    22   678    -1
 1822    767   768   549    -1
 1823    843   618   699    -1
 1824    529   289   530    -1
 1825    156   674   157    -1
 1826    315   858   781    -1
 1827    909   678   937    -1
 1828    669   991   101    -1
 1829     28   701   847    -1
 1830    889   147   712    -1
 1831    121   415   893    -1
 1832    584   776   936    -1
 1833    717   546   545    -1
 1834    759   370   376    -1
 1835    589   305   588    -1
 1836    111   687   608    -1
 1837    111   583   687    -1
 1838    413   591   815    -1
 1839    916   141   437    -1
 1840    631   704   870    -1
 1841     35   825   633    -1
 1842    652   170   473    -1
 1843    533   855   250    -1
 1844    558   806    57    -1
 1845    431    32   636    -1
 1846     17   904   643    -1
 1847    347   134   346    -1
 1848    707   602   795    -1
 1849    479   129   984    -1
 1850    616   382   619    -1
 1851    510   658   229    -1
 1852    428   434   793    -1
 1853    970   197    47    -1
 1854     52   944   723    -1
 1855    678    22   937    -1
 1856    877   228    55    -1
 1857      0   583   344    -1
 1858     83   255    84    -1
 1859    830    78   946    -1
 1860    433   641   750    -1
 1861    471   481   474    -1
 1862    747   850   434    -1
 1863    172   653   870    -1
 1864    504   993   133    -1
 1865    191   388   135    -1
 1866    705   407   704    -1
 1867    638   439   435    -1
 1868    145   998   673    -1
 1869    300   735   313    -1
 1870      4   976   690    -1
 1871     64   668   672    -1
 1872    868   711   512    -1
 1873    167   168   536    -1
 1874    725   855   245    -1
 1875    277   579   105    -1
 1876    430   109   748    -1
 1877    929   469   964    -1
 1878    684   445   949    -1
 1879    168   165   900    -1
 1880    394   382   618    -1
 1881     32    31   848    -1
 1882    883   244   773    -1
 1883    883   773    75    -1
 1884    195   804   878    -1
 1885    874   659   226    -1
 1886    342   345   606    -1
 1887     28   847   629    -1
 1888    225    68   658    -1
 1889    805   646   218    -1
 1890     43   920   719    -1
 1891    656   863   138    -1
 1892    715   179   635    -1
 1893    507    70   506    -1
 1894    153   152   810    -1
 1895    217   973   760    -1
 1896     84   941   884    -1
 1897    381   186   844    -1
 1898    303   678   757    -1
 1899    994   501    88    -1
 1900    868   491   501    -1
 1901     53   768   554    -1
 1902    357   151   788    -1
 1903    868   512   502    -1
 1904    273   575   833    -1
 1905    273   833   775    -1
 1906    445   836   949    -1
 1907    133   993   648    -1
 1908     65   621   614    -1
 1909    412   419   406    -1
 1910    491   476   486    -1
 1911    236   921    79    -1
 1912    253   252   906    -1
 1913    637   435   440    -1
 1914    198   650   200    -1
 1915    774    73   666    -1
 1916    790   616   619    -1
 1917    362   962   389    -1
 1918     82   935   244    -1
 1919    745   636    32    -1
 1920    301   181   677    -1
 1921    701    17   643    -1
 1922    752    96   283    -1
 1923    728   246   237    -1
 1924     19   198   722    -1
 1925    412   399   792    -1
 1926    459   982   904    -1
 1927    228   764   943    -1
 1928    966   615   365    -1
 1929    283   885   291    -1
 1930    886   118   814    -1
 1931    652   473   466    -1
 1932    800   858   312    -1
 1933    254    77   826    -1
 1934    400   892   625    -1
 1935    542   716    37    -1
 1936    352   786   349    -1
 1937    489   476   491    -1
 1938     37   716   183    -1
 1939    960   346   134    -1
 1940    899   287   775    -1
 1941    579    64   269    -1
 1942    828   903   806    -1
 1943    567   773   265    -1
 1944    854    85   251    -1
 1945    734   762   182    -1
 1946    135   372   844    -1
 1947    856   255    83    -1
 1948    255   856   566    -1
 1949    773   567    75    -1
 1950    706   432   112    -1
 1951    667   643   904    -1
 1952    599   712   596    -1
 1953    808   947   262    -1
 1954    109   112   634    -1
 1955    143   487   950    -1
 1956    227   215   559    -1
 1957    506   710   511    -1
 1958     97   103   497    -1
 1959    731   446   452    -1
 1960    617   845   695    -1
 1961    163   809   160    -1
 1962    795   602   692    -1
 1963    676   858   315    -1
 1964    486   470    89    -1
 1965    337   338   110    -1
 1966    133   711   501    -1
 1967    400   700   401    -1
 1968    145   134   998    -1
 1969    645   950   483    -1
 1970    580   291   278    -1
 1971    461   367   822    -1
 1972    139    12   893    -1
 1973    216   556   803    -1
 1974    371   372   390    -1
 1975    402   968   894    -1
 1976    685  1001   816    -1
 1977    995   999   742    -1
 1978    521   103   812    -1
 1979    759   620   370    -1
 1980    215   853   208    -1
 1981    156   577   674    -1
 1982    710   708   502    -1
 1983    294   589   588    -1
 1984    805   216    24    -1
 1985    671     5   810    -1
 1986    986   924   311    -1
 1987    446   731   592    -1
 1988    698   377   360    -1
 1989    568   561   569    -1
 1990    723   220   803    -1
 1991    477   967   999    -1
 1992    567   262    75    -1
 1993    710   796   708    -1
 1994    554   768   226    -1
 1995    862   449   822    -1
 1996    104   521   812    -1
 1997     34   177   715    -1
 1998    779   673   353    -1
 1999    210   722   551    -1
# Generated by ./tetgen /home/yuzhang/repos/Gaia/Data/mesh_models/ModelsDifferentRes/octopus/octopus_2KFaces_reset.ply 
