1002  3  0  0
   0    -0.23161470000000001  -0.088486330000000002  -0.22372243
   1    -0.24286749999999999  -0.089083200000000001  -0.17370848
   2    -0.43564170000000002  -0.055629596000000003  0.039164259999999999
   3    -0.24245920000000001  -0.068674680000000002  -0.14039209999999999
   4    -0.18482299999999999  -0.071092754999999994  -0.081141900000000003
   5    -0.028470929999999998  0.0037064328999999998  -0.2841552
   6    -0.034133419999999998  -0.018710642999999999  -0.23037603000000001
   7    -0.044978730000000001  -0.047105519999999998  -0.14884484000000001
   8    -0.15101020000000001  0.017122789999999999  0.18379947999999999
   9    -0.12239659999999999  0.021843970000000001  0.20530418
  10    -0.23502980000000001  0.07436864  0.081561129999999996
  11    -0.2350904  0.084220500000000004  0.095413945999999999
  12    -0.23440449999999999  -0.00064035505000000002  0.17120891999999999
  13    -0.2019252  0.087270916000000004  0.1078812
  14    -0.1849198  0.015337326  0.18075627
  15    -0.1506178  0.038092769999999998  0.095027044000000005
  16    -0.10566559  0.0082744270000000009  0.075603139999999999
  17    -0.044157910000000002  -0.039813376999999997  0.037952479999999997
  18    -0.14441960000000001  -0.044825546000000001  -0.011639362
  19    0.31825540000000002  0.057647816999999997  -0.14033064000000001
  20    0.2253037  0.039998646999999998  -0.15303195999999999
  21    0.20134189999999999  0.027308216  -0.14898407
  22    -0.14329410000000001  -0.0055485292999999996  0.35027849999999999
  23    -0.1479519  0.051517702999999998  0.30820809999999998
  24    0.12995570000000001  -0.0083421245000000008  -0.11052821
  25    0.10072159999999999  0.064922599999999997  -0.00066022016
  26    0.1571902  -0.028050586999999998  0.041848637000000001
  27    0.1536893  -0.058542505000000002  0.089900690000000005
  28    -0.026677240000000001  -0.027274159999999999  0.09796125
  29    0.01146865  -0.063180509999999995  0.030743792999999998
  30    0.055204472999999997  -0.046472274000000001  -0.067507005999999994
  31    0.043531210000000001  -0.102731794  -0.13700599999999999
  32    0.038795389999999999  -0.11399761999999999  -0.13223663999999999
  33    0.091375600000000001  -0.091184645999999994  -0.14648958000000001
  34    0.01967327  -0.11738633  -0.085775784999999993
  35    0.1573205  -0.11283169999999999  -0.096942299999999995
  36    0.12361490999999999  -0.011452004  0.42209544999999998
  37    0.041555740000000001  0.055430717999999997  0.17702392
  38    0.049005523000000002  0.021078348  0.13213462000000001
  39    0.17119870000000001  -0.040425500000000003  0.11118155
  40    0.052671969999999999  0.0059611500000000001  0.099771609999999997
  41    0.46044950000000001  0.018647190000000001  -0.071513430000000003
  42    0.11633339500000001  -0.02119971  -0.099008990000000005
  43    0.096272800000000006  -0.034901210000000002  -0.089787119999999998
  44    0.24658240000000001  -0.011775646000000001  0.14833075000000001
  45    0.22073039999999999  -0.03825655  0.10081392
  46    0.42164698  0.044091287999999999  -0.080403139999999998
  47    0.25070946999999999  0.064356073999999999  -0.15269384
  48    0.058162153000000001  0.012643808499999999  -0.10217675
  49    0.088698700000000005  -0.1045585  -0.34386915000000001
  50    0.31278869999999998  0.052413985000000003  -0.15700740999999999
  51    0.094177800000000006  -0.111481026  -0.32846903999999999
  52    0.14721049999999999  0.034518979999999998  -0.14983730000000001
  53    0.27509549999999999  0.081517900000000004  -0.17548034000000001
  54    0.11035590000000001  0.015309121  -0.15932674999999999
  55    0.1732168  0.016802158000000001  -0.18972647000000001
  56    0.062905130000000004  0.15170755999999999  -0.030292100999999998
  57    0.30403997999999999  0.089552074999999995  -0.15328816000000001
  58    0.28792180000000001  0.081342200000000003  -0.14738825
  59    0.055975302999999997  0.09076062  -0.10110138
  60    0.15354889999999999  0.022054810000000001  -0.1849626
  61    0.087302599999999994  0.016166415  -0.12350105
  62    0.1363347  -0.0056763589999999997  -0.17422476000000001
  63    0.0074926380000000002  0.17097951  -0.067903950000000005
  64    0.040893310000000002  -0.0083928700000000002  -0.29162290000000002
  65    0.2439702  0.0060278772999999997  0.14623752000000001
  66    0.13206019999999999  -0.022199515  -0.15275732
  67    0.2133285  0.017454273999999999  -0.18294669999999999
  68    0.096387500000000001  -0.028533340000000001  -0.14242991999999999
  69    0.078637280000000004  0.11711934  -0.060212269999999998
  70    0.03765698  0.17129876999999999  -0.035934753999999999
  71    0.023578650999999999  0.061665878  -0.11967252
  72    0.040857369999999997  0.063178780000000004  -0.11465437000000001
  73    -0.43433951999999998  -0.042770453  0.047113530000000001
  74    -0.10896471000000001  0.065452314999999997  0.060640725999999999
  75    -0.29754989999999998  0.10620955  0.058794341999999999
  76    -0.37907740000000001  0.018739345000000001  0.0086569860000000002
  77    -0.081484440000000005  0.048191495000000001  0.092251609999999998
  78    -0.39960869999999998  0.0061656515999999996  0.010765798
  79    -0.086320430000000004  0.032156563999999999  0.021717589999999998
  80    -0.28819220000000001  0.079728759999999996  0.041948452999999997
  81    -0.23150029999999999  -0.042608715999999998  -0.13898938999999999
  82    -0.25677460000000002  0.10294405  0.04656163
  83    -0.202543  0.10669397999999999  0.098842219999999995
  84    -0.16294169999999999  0.080490030000000004  0.11163843399999999
  85    -0.18723970000000001  0.083248509999999998  0.066427390000000003
  86    -0.04598344  0.109072484  0.21320868000000001
  87    -0.094190510000000005  0.075247649999999999  -0.0045389200000000001
  88    -0.09263499  0.098979800000000007  -0.023708046999999999
  89    -0.085735190000000003  0.090861306000000003  0.019551096
  90    -0.074318380000000003  0.082403799999999999  0.040956520000000003
  91    -0.10648375  -0.048992420000000002  0.0054137669999999999
  92    -0.10384989999999999  0.085270299999999993  0.24778075999999999
  93    -0.057494080000000003  0.12637365  0.041058097000000002
  94    -0.14994150000000001  0.029312096999999999  0.18298655999999999
  95    0.06595935  -0.053129195999999997  -0.33403417000000002
  96    -0.081947969999999995  -0.026862259999999999  -0.11467115
  97    -0.075832725000000004  -0.0044513119999999998  -0.065501959999999998
  98    -0.0049587440000000002  0.072430270000000005  -0.12076987
  99    -0.064477489999999998  -0.032061167000000002  -0.06414947
 100    -0.0098625589999999999  0.13620732999999999  -0.099933270000000005
 101    -0.0093328070000000003  0.02332557  -0.27886936000000001
 102    0.0063810489999999997  0.090638510000000005  -0.11802707
 103    -0.0561988  -0.00068359262999999999  -0.09215371
 104    -0.010087344999999999  0.012812182  -0.11677996
 105    0.015514539000000001  0.016641326000000001  -0.2866146
 106    -0.08585711  -0.027913339999999998  -0.14165723
 107    -0.20386480000000001  -0.060094120000000001  -0.13243669999999999
 108    -0.061519839999999999  0.025890514  -0.094328980000000007
 109    -0.023124602000000001  -0.094218330000000003  -0.10118510999999999
 110    -0.17165559999999999  -0.032091862999999998  -0.073050976000000004
 111    -0.2139616  -0.051560494999999998  -0.15474531
 112    -0.00096407066999999996  -0.093670240000000002  -0.108105004
 113    -0.087631940000000005  -0.065037659999999997  -0.038750336000000003
 114    -0.18306819999999999  -0.049364119999999997  -0.099429130000000004
 115    -0.1516353  -0.042194776000000003  0.41129445999999997
 116    -0.14629439999999999  0.053569489999999997  0.29303574999999998
 117    -0.05665531  0.085418149999999998  0.22094510000000001
 118    -0.1591958  0.011862487  0.34358351999999998
 119    -0.14063110000000001  -0.055516057000000001  0.43736446000000001
 120    -0.20419870000000001  0.0057182609999999997  0.18454180000000001
 121    -0.16918910000000001  0.024306346  0.20021236000000001
 122    0.021099179999999999  0.096274070000000003  0.19024888000000001
 123    0.041787320000000003  0.079345330000000006  0.15201282999999999
 124    0.060163452999999999  0.042255714999999999  0.098871630000000002
 125    0.014384459  0.12805902999999999  0.059176159999999998
 126    -0.030448072  0.10918071999999999  0.24331768000000001
 127    -0.13657180999999999  0.058809422  0.31096736000000003
 128    0.040904610000000001  0.101953074  0.063336409999999996
 129    0.027475461  0.148508  0.039853826000000002
 130    0.058109418000000003  0.0028576404  0.054405224000000002
 131    -0.2310123  -0.24568488999999999  -0.26671755000000003
 132    -0.21984390000000001  -0.20021510000000001  -0.26071909999999998
 133    -0.069884760000000004  0.097854570000000002  -0.082613190000000003
 134    -0.098252179999999995  -0.020032910000000001  -0.014366358500000001
 135    0.20576900000000001  -0.044584416000000002  0.12755558
 136    0.2022187  -0.010581393  0.087604760000000004
 137    0.074799099999999993  0.11776161  0.022021684999999999
 138    0.1412427  -0.075786665000000003  0.057870246
 139    -0.2350817  -0.0075990036000000002  0.17104059999999999
 140    0.1700873  -0.12480009  -0.097568505
 141    0.037910119999999999  -0.120819606  -0.14708847
 142    -0.034832639999999998  -0.090466859999999996  -0.054450539999999999
 143    -0.041123472000000001  -0.067828834000000005  -0.049690742000000003
 144    0.0022207490000000002  -0.11256244  -0.030164972000000002
 145    -0.080055009999999996  -0.023016992999999999  -0.03245601
 146    -0.23260449999999999  -0.083460119999999999  -0.15342828999999999
 147    -0.23777909999999999  -0.10205048  -0.19173148000000001
 148    -0.21441569999999999  -0.074218889999999996  -0.106018245
 149    -0.13609381000000001  -0.071663484  -0.023794565
 150    -0.040840460000000002  -0.056929357  0.10096999
 151    -0.120695  -0.068464644000000005  -0.010213491999999999
 152    -0.0018326314000000001  -0.015491708999999999  -0.29066702999999999
 153    -0.026716630000000002  -0.0079040970000000006  -0.28071800000000002
 154    -0.040850602  -0.021164201000000001  -0.2433517
 155    -0.061604989999999998  -0.025520042  -0.21946083999999999
 156    -0.0558419  -0.044126287  -0.18234300000000001
 157    -0.051709419999999999  -0.054633316000000001  -0.13187831999999999
 158    -0.042262620000000001  -0.056561875999999997  -0.1179084
 159    -0.2159642  0.068181629999999993  0.093288189999999993
 160    -0.10151486  0.019252486999999999  0.090423790000000004
 161    -0.099761810000000006  0.0096412230000000008  0.073559360000000004
 162    -0.1185398  0.018371426  0.074682020000000002
 163    -0.1163833  0.020919755000000002  0.086588499999999999
 164    0.2219911  0.023003142000000001  -0.15499718000000001
 165    0.094420500000000004  0.016847648  -0.055958763000000002
 166    0.10122399999999999  0.042895358000000001  -0.044615870000000002
 167    0.1099168  0.032493214999999999  -0.026532055999999998
 168    0.10352500000000001  0.0037257470000000002  -0.032751231999999998
 169    0.10348980000000001  0.036339815999999997  -0.016513150000000001
 170    0.098414699999999994  0.033595152000000003  0.025878517
 171    0.013226478  -0.057514905999999998  0.056057035999999998
 172    0.0031750192999999999  -0.069339626000000001  0.067008349999999994
 173    0.051367924000000002  -0.064951339999999996  -0.017638609999999999
 174    0.067432060000000002  -0.046570063000000002  -0.058742836
 175    0.078576359999999998  -0.034761712  -0.042033479999999998
 176    0.069821099999999997  -0.046509377999999997  -0.033436812000000003
 177    0.0092023285000000007  -0.12441240000000001  -0.071708339999999995
 178    0.029252509999999999  -0.089691969999999996  -0.022330481999999999
 179    0.029674180000000001  -0.094461400000000001  -0.036971616999999998
 180    -0.10683447  0.059776425000000001  0.28666764
 181    -0.069309615000000005  0.087172509999999995  0.2746169
 182    0.012093130000000001  0.075808509999999996  0.21883737
 183    0.030622199999999999  0.044970389999999999  0.18130551
 184    0.057348743000000001  0.046238347999999999  0.13564456
 185    0.25265589999999999  0.014522731000000001  0.21411014
 186    0.2432938  -0.0026786959999999999  0.20138353000000001
 187    0.138123  -0.024656191000000001  -0.12914138
 188    0.1387806  -0.014248148  -0.114116415
 189    0.23983581000000001  -0.021665065000000001  0.15224115999999999
 190    0.1964217  -0.044826299999999999  0.065207760000000003
 191    0.17720369999999999  -0.066631899999999994  0.078820860000000006
 192    0.1899525  -0.058203972999999999  0.065162659999999997
 193    0.14985499999999999  -0.06253264  0.02767211
 194    0.12407529  -0.028220140000000001  -0.120149955
 195    0.42381786999999999  0.026521526  -0.090218149999999997
 196    0.38988790000000001  0.073364150000000003  -0.12582657999999999
 197    0.23822461  0.070639579999999993  -0.1617519
 198    0.31765856999999997  0.066252746000000001  -0.13382830000000001
 199    0.056724027000000003  0.0082664939999999992  -0.10960602999999999
 200    0.28740706999999999  0.068836270000000005  -0.14341709
 201    0.094218999999999997  -0.038030095  -0.11815185
 202    0.47069316999999999  -0.011109051999999999  -0.084490283999999999
 203    0.37345007000000002  0.075051989999999999  -0.107523434
 204    0.14564969999999999  -0.016945314  -0.13521021999999999
 205    0.25296046999999999  0.034549919999999998  -0.16530575
 206    0.41296598000000001  0.047203742  -0.11555348999999999
 207    0.37704490000000002  0.051021802999999998  -0.1260473
 208    0.40336618000000002  0.070204145999999995  -0.10398947
 209    0.49074309999999999  -0.035918249999999999  -0.082526920000000004
 210    0.40656100000000001  0.041247520000000003  -0.089947189999999996
 211    0.16950760000000001  0.046745464  -0.17266007
 212    0.12626409999999999  0.027180536000000002  -0.14108962
 213    0.04141077  -0.0022296122999999998  -0.10601209
 214    0.25772657999999998  0.035999021999999999  -0.17547842999999999
 215    0.42407587000000002  0.056066297000000001  -0.10394844
 216    0.13299528999999999  0.0059134102999999997  -0.11562161
 217    0.035458040000000003  -0.036030712999999999  -0.091866690000000001
 218    0.084938589999999994  0.0072477720000000004  -0.070567030000000003
 219    0.45726876999999999  -0.0038313883999999999  -0.076622670000000004
 220    0.18006720000000001  0.028347344999999999  -0.14426725000000001
 221    0.5082449  -0.047638975  -0.074301790000000006
 222    0.34971930000000001  0.055338085000000002  -0.13154899
 223    0.116425395  0.0094757269999999998  -0.16859821999999999
 224    0.0857179  0.090785734000000007  -0.068112480000000003
 225    0.072056690000000007  -0.040494250000000002  -0.10914021
 226    0.36061697999999998  0.077528920000000001  -0.14709907999999999
 227    0.43913677000000001  0.037777699999999997  -0.1002547
 228    0.1951164  0.037099235000000001  -0.19416304000000001
 229    0.07248251  -0.0048307180000000003  -0.13671127
 230    0.15526129999999999  0.035019874999999999  -0.1791423
 231    0.039340279999999998  0.16952907  -0.0059348530000000004
 232    -0.46530222999999998  -0.06710853  0.063389180000000003
 233    -0.080068249999999994  0.052651980000000001  0.035572060000000003
 234    -0.32587250000000001  0.070617120000000005  0.051028579999999997
 235    -0.46753990000000001  -0.078382549999999995  0.06158752
 236    -0.099228720000000006  0.045545509999999997  0.039818443000000002
 237    -0.12107560000000001  0.03276242  0.051436067000000002
 238    -0.23890710000000001  0.11654793500000001  0.067632109999999995
 239    -0.1220238  0.081068249999999994  0.081361409999999995
 240    -0.143452  0.080716540000000003  0.070809839999999999
 241    -0.33043610000000001  0.080022679999999999  0.052365080000000001
 242    -0.079678100000000002  0.017914638  0.085985414999999996
 243    -0.24182580000000001  0.080143930000000002  0.062993629999999995
 244    -0.2645573  0.11303926  0.051132124000000001
 245    -0.38035681999999998  0.0092211350000000001  0.018201107000000001
 246    -0.1456982  0.043977633000000002  0.063962370000000004
 247    -0.44405210000000001  -0.053554933999999998  0.037376850000000003
 248    -0.33730072  0.086833259999999995  0.03128529
 249    -0.41493281999999998  -0.024123519999999999  0.019090363999999999
 250    -0.38016372999999998  0.024630334  0.032526392000000001
 251    -0.15742539999999999  0.062438868000000002  0.064920249999999999
 252    -0.18149960000000001  0.056106534  0.078747209999999998
 253    -0.20693030000000001  0.071680809999999998  0.070465520000000004
 254    -0.038416199999999998  0.0144438185  0.067083299999999998
 255    -0.1468681  0.090847230000000001  0.099844723999999996
 256    -0.21026149999999999  0.097760239999999998  0.063122330000000004
 257    -0.31929619999999997  0.063898700000000003  0.031806561999999997
 258    -0.37695190000000001  0.041992344000000001  0.010634294000000001
 259    -0.30159432000000003  0.072323634999999997  0.050406727999999998
 260    -0.17569570000000001  -0.042989520000000003  -0.032892234999999999
 261    -0.2716247  0.078762349999999995  0.070057969999999997
 262    -0.29251862000000001  0.098470463999999994  0.070964260000000001
 263    -0.39161462000000002  0.034211539999999999  0.020564922999999999
 264    -0.39401441999999998  0.026346537999999999  0.031228098999999999
 265    -0.24497459999999999  0.11404502399999999  0.081865400000000005
 266    -0.22887969999999999  -0.050907283999999997  -0.099619343999999999
 267    -0.08839603  0.063090499999999994  0.068152069999999995
 268    0.012071248999999999  0.010772861999999999  -0.30334148
 269    0.0061014490000000001  0.0094021780000000006  -0.26600772
 270    0.097789799999999996  -0.099623980000000001  -0.33417713999999998
 271    -0.084840769999999996  -0.007484231  -0.18747084
 272    -0.033888559999999998  -0.031782020000000001  -0.15582894999999999
 273    -0.025458511  0.024154882999999999  -0.2473052
 274    0.075672310000000007  -0.08269079  -0.33138308
 275    -0.029023170000000001  -0.011396091000000001  -0.12596884
 276    -0.036838799999999998  -0.022769227999999999  -0.19255534999999999
 277    0.033239369999999997  0.0067642555  -0.30073436999999997
 278    -0.071163690000000002  0.0088484549999999999  -0.17274903999999999
 279    0.085342210000000002  -0.12157074  -0.33718886999999997
 280    0.078973669999999996  -0.050596139999999998  -0.33348796000000003
 281    -0.023939150999999999  -0.0034541785999999998  -0.22877559
 282    -0.074688539999999998  -0.044009834999999997  -0.10641405
 283    -0.082260710000000001  -0.012045938500000001  -0.13101436
 284    -0.0045182323000000002  -0.0055733099999999997  -0.26173073000000002
 285    0.045536260000000002  -0.031513289999999999  -0.30364239999999998
 286    0.090756699999999996  -0.069538329999999995  -0.33210932999999998
 287    -0.058735330000000002  0.0076929779999999996  -0.16703999
 288    -0.039529010000000003  -0.0064349473000000004  -0.15324599999999999
 289    0.035932560000000002  -0.0039317681999999996  -0.31754961999999998
 290    -0.033110880000000002  -0.016800068000000001  -0.15088162999999999
 291    -0.079679059999999996  0.0041688530000000001  -0.1731753
 292    -0.077682119999999993  0.076340913999999996  0.24741578
 293    -0.094808820000000002  0.094882040000000001  0.28304917000000002
 294    -0.11294021  0.08810867  0.25787544000000001
 295    -0.14204169999999999  0.042226634999999998  0.28529963000000003
 296    -0.02497046  0.070958779999999999  0.22925151999999999
 297    -0.10774060000000001  0.073664084000000005  0.29577576999999999
 298    -0.1019251  0.10032335000000001  0.26872765999999998
 299    -0.053817990000000003  0.11501899  0.24545302999999999
 300    -0.0024953708000000001  0.047044339999999997  0.16635206
 301    -0.088009770000000001  0.079334920000000003  0.28387987999999997
 302    -0.021242216000000001  0.065529260000000006  0.21224393999999999
 303    -0.1252211  0.040927373000000003  0.29496109999999998
 304    -0.0045644379999999997  0.10700195999999999  0.22181886000000001
 305    -0.055855679999999998  0.11439535000000001  0.23062244000000001
 306    0.055375800000000003  0.039247967000000002  0.064825809999999998
 307    -0.03680108  0.08023131  0.24955234000000001
 308    -0.03898488  0.096541669999999996  0.2569977
 309    0.021137380000000001  -0.017841484000000001  0.062763600000000003
 310    -0.14631749999999999  -0.0012334734  0.32304576000000002
 311    -0.02020067  0.10760823  0.19652799000000001
 312    0.015582528999999999  0.044153918  0.18515538000000001
 313    -0.015682396000000001  0.061270600000000001  0.19111081999999999
 314    -0.031637060000000002  0.086511980000000002  0.25182231999999999
 315    0.0054570690000000002  0.030172563999999999  0.14704953000000001
 316    -0.050518210000000001  0.074654460000000006  0.2388004
 317    -0.035269759999999997  0.076437846000000004  0.20693048999999999
 318    -0.0031965905999999998  0.052064819999999998  0.15211764
 319    -0.1555764  -0.044616759999999998  0.39882173999999998
 320    -0.16193479999999999  0.00056602059999999997  0.33619744000000001
 321    0.019026398999999999  0.089647619999999997  0.20648569999999999
 322    -0.1329996  0.053484067000000003  0.27460718000000001
 323    0.035434350000000003  0.083071710000000007  0.1792947
 324    0.0110528385  0.098745940000000004  0.17337677000000001
 325    0.21949050000000001  0.018455251999999998  0.15823124
 326    0.07151855  0.097870834000000004  0.041059791999999998
 327    -0.26334320999999999  -0.30151874000000001  -0.25847256000000002
 328    -0.2353036  -0.113698445  -0.20722473
 329    -0.096519430000000003  -0.057467600000000001  0.0049545485999999998
 330    -0.2191362  -0.12313137  -0.24340692
 331    -0.22278480000000001  -0.096352010000000002  -0.19322647000000001
 332    -0.23249500000000001  -0.16103866999999999  -0.2653992
 333    -0.25349801999999999  -0.27082519999999999  -0.25850784999999998
 334    -0.2440977  -0.13273977000000001  -0.24082774000000001
 335    -0.1654862  -0.073290616000000003  -0.049941957000000002
 336    -0.13792080000000001  -0.068669160000000007  -0.052941266000000001
 337    -0.20309289999999999  -0.030367142  -0.095482800000000007
 338    -0.19453670000000001  -0.034538195000000001  -0.10095338500000001
 339    -0.24016770000000001  -0.22496167  -0.25968360000000001
 340    -0.23910339999999999  -0.15456333999999999  -0.25996602000000002
 341    -0.24253340000000001  -0.23614523000000001  -0.27024346999999999
 342    -0.19423090000000001  -0.071884219999999999  -0.075587556
 343    -0.23635239999999999  -0.074962585999999998  -0.13524417999999999
 344    -0.2443833  -0.066821530000000004  -0.18790686000000001
 345    -0.22573319999999999  -0.068349460000000001  -0.10209322
 346    -0.13330069999999999  -0.033206746000000002  -0.0095006090000000001
 347    -0.14108490000000001  -0.025919778000000001  -0.028194825999999999
 348    -0.13502749999999999  -0.027769967999999999  -0.040656060000000001
 349    -0.2292583  -0.19776824000000001  -0.27258270000000001
 350    -0.24949769999999999  -0.26684580000000002  -0.26727142999999998
 351    -0.12892619999999999  -0.057280472999999998  -0.056637079999999999
 352    -0.22254080000000001  -0.21320206  -0.26739249999999998
 353    -0.1160699  -0.045800649999999998  -0.05155933
 354    -0.2054858  -0.051832891999999998  -0.061784095999999997
 355    -0.2309967  -0.051386255999999998  -0.16839924000000001
 356    -0.2309542  -0.12307116999999999  -0.24932407000000001
 357    -0.11112553999999999  -0.074715030000000002  -0.028858702999999999
 358    -0.21101310000000001  -0.036430879999999999  -0.078635720000000006
 359    0.2359366  0.048082954999999997  0.27184009999999997
 360    0.18107309999999999  0.024860770000000001  0.37976739999999998
 361    0.20680999999999999  0.00047006830000000002  0.15992091999999999
 362    0.2066267  0.0013810843  0.11548035
 363    0.11947189  -0.047230884000000001  0.44914776000000001
 364    0.23048630000000001  0.038739773999999998  0.20193902
 365    0.16967869999999999  0.034171180000000002  0.34999950000000002
 366    0.21506600000000001  -0.045154627000000003  0.11785764999999999
 367    0.11383430999999999  -0.023584574000000001  0.036006910000000003
 368    0.1603745  0.0095081929999999999  0.40463727999999999
 369    0.22107560000000001  0.026441461999999999  0.29786881999999998
 370    0.14496990000000001  -0.052648805  0.088178610000000004
 371    0.20690459999999999  -0.014916967999999999  0.16070229999999999
 372    0.22253029999999999  -0.01857549  0.17392129000000001
 373    0.14003260000000001  -0.013048074999999999  0.41400036000000001
 374    0.14422270000000001  0.0031192005000000001  0.42050943000000002
 375    0.24252470000000001  0.044445680000000001  0.24021803999999999
 376    0.1102221  -0.064242190000000005  0.064004420000000006
 377    0.20931649999999999  0.033575260000000003  0.33650493999999997
 378    0.22511  -0.0097843370000000006  0.10593916
 379    0.22485189999999999  0.0085712519999999997  0.22806533000000001
 380    0.2084165  -0.021947334999999998  0.079651949999999999
 381    0.23586879999999999  -0.0011090188999999999  0.21207827000000001
 382    0.21673980000000001  0.021198532999999999  0.25568253000000002
 383    0.082502880000000001  -0.052298865999999999  0.055995280000000001
 384    0.16639329999999999  0.031692825000000001  0.3885998
 385    0.12710189999999999  -0.0098275689999999995  0.43044444999999998
 386    0.2138005  0.0050002225000000001  0.18899888000000001
 387    0.17685600000000001  -0.021622200000000001  0.11104962
 388    0.15422949999999999  -0.067727129999999997  0.079567260000000001
 389    0.18618699999999999  -0.0098476350000000004  0.10445089
 390    0.19256970000000001  -0.042168517000000003  0.12567645
 391    0.15463250000000001  -0.022934427  0.051363209999999999
 392    0.080916859999999993  -0.078855010000000003  0.017792763
 393    0.070237690000000005  -0.07311231  0.034534483999999997
 394    0.21612690000000001  0.023148946  0.2851168
 395    0.19402449999999999  0.053470603999999998  0.31543595000000002
 396    0.095483399999999996  -0.068905530000000006  0.00030941144000000003
 397    0.090701400000000001  0.086487179999999997  0.017924032999999999
 398    -0.1242885  0.023900728999999999  0.18215972
 399    -0.0051585575999999996  -0.055164690000000002  0.120856926
 400    -0.079143790000000006  0.017659951  0.18215400000000001
 401    -0.042929500000000002  -0.0022480078000000001  0.16353206000000001
 402    -0.05318987  -0.030107707000000001  0.12996194999999999
 403    -0.14823159999999999  0.0097855254999999995  0.190052
 404    -0.19036149999999999  0.021577992000000001  0.17745042
 405    -0.068626489999999998  -0.028825396999999999  0.17351306999999999
 406    -0.0016807606000000001  -0.04267058  0.12449762
 407    -0.037053500000000003  -0.056538400000000003  0.13177965999999999
 408    -0.11261855  0.029573720000000001  0.18971147999999999
 409    0.013701217999999999  -0.045279100000000003  0.048031047
 410    -0.044209900000000003  -0.044937855999999998  0.096888219999999997
 411    -0.038960370000000001  -0.032284300000000002  0.10279938
 412    -0.028657070999999999  -0.04649085  0.15270305000000001
 413    -0.024183191  0.0042706094999999996  0.06931023
 414    -0.20425360000000001  0.023243677000000001  0.18458540000000001
 415    -0.1701397  0.014282588000000001  0.19823046
 416    -0.13041910000000001  0.011882617999999999  0.20534021999999999
 417    -0.037907521999999999  -0.061627040000000001  0.068275420000000003
 418    -0.13934450000000001  0.032901755999999997  0.19718763
 419    -0.020745731999999999  -0.031359262999999998  0.15717278000000001
 420    0.16841500000000001  -0.12687498  -0.082423850000000007
 421    0.13518230000000001  -0.1101589  -0.13061692999999999
 422    0.00065958870000000004  -0.10253644000000001  -0.15081185
 423    0.1393519  -0.10512121000000001  -0.13931780999999999
 424    0.12118050499999999  -0.081113270000000001  -0.13514812000000001
 425    0.116899595  -0.10410223  -0.14005469000000001
 426    -0.035452842999999998  -0.11176681500000001  -0.063896164000000005
 427    0.081141290000000005  -0.10711332  -0.15200195999999999
 428    -0.010489480000000001  -0.092441424999999994  -0.1362063
 429    -0.020007181999999998  -0.10751636000000001  -0.023665234
 430    -0.022605053999999999  -0.10284243  -0.12549162
 431    0.022995270000000002  -0.10238878  -0.11840603500000001
 432    -0.0028550606000000002  -0.089142490000000005  -0.077597429999999995
 433    0.06155981  -0.0953098  -0.17106885999999999
 434    0.029253758000000001  -0.08868848  -0.14251536000000001
 435    -0.013151314000000001  -0.12878495000000001  -0.097733273999999995
 436    0.10747080000000001  -0.088858514999999999  -0.16206013
 437    0.031661210000000002  -0.11021995499999999  -0.16237620999999999
 438    0.1384476  -0.082422376000000006  -0.13089120000000001
 439    -0.022080794000000001  -0.12467117  -0.073578550000000006
 440    -0.0041168686000000003  -0.11935809999999999  -0.13510287000000001
 441    0.15904760000000001  -0.12680414000000001  -0.1070817
 442    0.090422299999999997  -0.096700250000000001  -0.16676593000000001
 443    -0.0032361113  -0.026170298000000002  0.061317913000000002
 444    -0.029641852  0.058679080000000002  0.075043774999999993
 445    0.029353748999999998  0.078643080000000004  0.13671520000000001
 446    -0.010266355  0.075076180000000006  0.078259990000000001
 447    0.048911408000000003  -0.0099560470000000009  0.054897264000000001
 448    -0.030355960000000001  0.16078576  0.031658903000000002
 449    0.046661340000000003  -0.031666725999999999  0.043935620000000002
 450    0.066366320000000006  0.047960366999999997  0.056793110000000001
 451    0.051787390000000003  0.079011715999999996  0.063903169999999995
 452    0.024149790000000001  0.081073426000000004  0.074758980000000003
 453    0.062782370000000004  -0.020765151999999999  0.038753822
 454    -0.063118980000000005  0.054851204000000001  0.055663842999999998
 455    -0.053505030000000002  0.075134320000000004  0.061342567000000001
 456    -0.0033566412000000001  -0.070738659999999995  0.019520900000000001
 457    -0.037197309999999997  0.087420079999999997  0.068126619999999999
 458    -0.043915372000000001  -0.054678655999999999  0.022400527999999999
 459    -0.061195859999999998  -0.040486521999999997  0.017321095000000002
 460    0.00059761945000000002  0.10405071  0.071927905
 461    0.078493129999999994  -0.015386566500000001  0.022799106
 462    0.037040570000000002  0.13372834  0.04795663
 463    -0.035597520000000001  0.12166919  0.058031770000000003
 464    -0.089505589999999996  0.060131236999999997  0.017423556999999999
 465    -0.060008880000000001  0.099244929999999995  0.051282210000000002
 466    0.090834799999999993  7.1137445000000004e-05  0.0087678059999999995
 467    0.058541327999999997  0.12672108000000001  0.036230930000000001
 468    0.080209470000000005  0.069760225999999995  0.040843195999999998
 469    -0.085443469999999994  0.018120767999999999  0.018457580000000001
 470    -0.076381760000000007  0.12316415  0.019527908
 471    -0.083753129999999995  -0.015590569  -0.010428450000000001
 472    -0.039348851999999997  0.14229311  0.043712015999999999
 473    0.099219000000000002  0.033241020000000003  0.0058709354999999996
 474    -0.094022159999999994  0.033363240000000002  -0.0054905500000000003
 475    0.04785851  0.152645  0.018080786000000001
 476    -0.068831539999999997  0.14718482999999999  0.0091879549999999994
 477    0.07315265  -0.044084775999999999  -0.020942083
 478    -0.0035014310000000002  0.17208994999999999  0.022764823999999999
 479    0.015681710000000001  0.16585150000000001  0.025870540000000001
 480    0.069102670000000005  0.13872166  0.0040347203999999996
 481    -0.092579410000000001  0.016339965000000001  -0.023405068000000001
 482    -0.051427059999999997  0.15736347000000001  0.020889923000000001
 483    -0.064662404000000007  -0.046051837999999998  -0.045804292000000003
 484    -0.095793740000000002  0.061889476999999998  -0.030003196999999999
 485    0.087823600000000002  0.112819895  -0.0064824820000000003
 486    -0.086174459999999994  0.12019344999999999  -0.0034305751
 487    -0.034753199999999998  -0.0617551  -0.067054559999999999
 488    -0.093217019999999998  0.034466214000000002  -0.038033850000000001
 489    -0.05973262  0.16381789999999999  -0.0072653329999999997
 490    -0.085067649999999995  -0.0015824419000000001  -0.043853193999999998
 491    -0.077738860000000007  0.14232623999999999  -0.029053915
 492    0.098063999999999998  0.085903939999999998  -0.0097803060000000008
 493    -0.086585270000000006  0.019730562  -0.055127664999999999
 494    0.100371  0.075704389999999996  -0.032628690000000002
 495    -0.0028256409999999998  -0.067255510000000004  -0.071945906000000004
 496    0.084470939999999994  0.1224552  -0.026306561999999999
 497    -0.078185019999999994  0.02523069  -0.074277380000000004
 498    0.0910382  0.046446398  -0.070213124000000002
 499    0.095578499999999997  0.082602380000000003  -0.050714995999999998
 500    0.0912327  -0.14874135999999999  -0.34634494999999998
 501    -0.08030611  0.11985387  -0.056178946
 502    -0.052975920000000003  0.16918816  -0.032561229999999997
 503    0.055212058000000001  0.14706711  -0.062552794999999994
 504    -0.073980470000000007  0.052295960000000002  -0.083581509999999998
 505    -0.086780510000000005  0.059725630000000002  -0.063042864000000004
 506    0.010758189  0.18248147000000001  -0.038145422999999998
 507    0.028995018000000001  0.17321228999999999  -0.046036596999999999
 508    -0.0049731200000000001  -0.032086782000000001  -0.10203077000000001
 509    0.017164327  -0.024328075000000001  -0.10401279500000001
 510    0.032790119999999999  -0.019550675999999999  -0.10218871
 511    -0.02391047  0.18105228000000001  -0.048576146000000001
 512    -0.042687163  0.16382144000000001  -0.065815200000000004
 513    -0.046231109999999999  0.065274239999999997  -0.10876121
 514    0.011370028000000001  0.0022855102999999998  -0.11465731
 515    0.071361389999999997  0.088658529999999999  -0.088731409999999997
 516    0.060114898  0.12563777000000001  -0.079124550000000002
 517    -0.026366471999999998  0.16123006000000001  -0.078090779999999999
 518    -0.032415579999999999  0.06446702  -0.11473555000000001
 519    0.029167950000000002  0.028983943000000002  -0.11760557000000001
 520    0.034586430000000001  0.14598277000000001  -0.082856100000000002
 521    -0.035965532000000001  0.029597129999999999  -0.11235645399999999
 522    0.045984860000000002  0.12142253  -0.093323439999999994
 523    0.034653349999999999  0.098069359999999994  -0.109886505
 524    -0.026930560999999999  0.12455674999999999  -0.10190294
 525    -0.0050029810000000001  0.035705924  -0.12168031999999999
 526    0.022514649000000001  0.12095438  -0.10484424000000001
 527    -0.021968462000000001  0.10352989999999999  -0.11124484
 528    0.2096191  -0.051779494000000002  0.088659940000000007
 529    0.05973009  -0.029980883  -0.32971662000000002
 530    0.031613130000000003  -0.019892178  -0.32085678000000001
 531    -0.048249519999999997  -0.014239847999999999  -0.25362727000000002
 532    -0.046362090000000002  -0.032990779999999997  -0.19091967000000001
 533    -0.36432582000000002  0.030558825000000001  0.027542483
 534    -0.1769934  0.052257820000000003  0.092083200000000004
 535    0.1030184  0.020035269000000001  -0.05049294
 536    0.096427100000000002  0.0018515586999999999  -0.016631043000000002
 537    0.1085928  -0.031035121999999998  0.0073365560000000002
 538    0.080348260000000005  0.00060851126999999995  0.031144080000000001
 539    -0.0019746506999999999  -0.066736840000000006  0.091951735000000007
 540    0.052432917000000002  -0.064142870000000005  -0.035132136000000001
 541    0.045714100000000001  -0.057277516000000001  -0.06530155
 542    0.055137560000000002  0.036283894999999997  0.14192793000000001
 543    0.23767589  0.021345145999999999  0.26325235000000002
 544    0.18331749999999999  0.0012492612000000001  -0.14833038000000001
 545    0.16915369999999999  0.0092355119999999995  -0.13818525000000001
 546    0.1466189  -0.0073870756000000001  -0.124947086
 547    0.14293439999999999  -0.060882576000000001  0.017112570000000001
 548    0.48619985999999998  -0.020590687  -0.06729309
 549    0.26135557999999998  0.051229007999999999  -0.18955557000000001
 550    0.51087009999999999  -0.046626814000000003  -0.082898070000000004
 551    0.38263340000000001  0.062511264999999996  -0.099710419999999994
 552    0.24676940999999999  0.035721004000000001  -0.18587988999999999
 553    0.49216247000000002  -0.016110638  -0.074570590000000006
 554    0.32015038000000001  0.087115209999999998  -0.16156265
 555    0.48508646999999999  -0.012268163  -0.082997600000000005
 556    0.1156546  0.015828418  -0.11457338
 557    0.072154449999999995  0.0073865316999999998  -0.12726804999999999
 558    0.24361830000000001  0.075347510000000006  -0.16717472999999999
 559    0.40389596999999999  0.062322154999999997  -0.121182024
 560    0.37993368999999999  0.080655320000000003  -0.1196791
 561    -0.36472582999999997  0.062620659999999995  0.021515843999999999
 562    -0.32178511999999998  0.095904110000000001  0.047233466000000002
 563    -0.32034633000000001  0.079134209999999996  0.019482098999999999
 564    -0.082477369999999994  0.034790907000000003  0.093495430000000004
 565    -0.29992580000000002  0.07992109  0.030191055000000001
 566    -0.1791625  0.10429593  0.080430509999999997
 567    -0.26716050000000002  0.11034941  0.077726855999999997
 568    -0.34361370000000002  0.074381950000000002  0.018238799999999999
 569    -0.35323589999999999  0.059907686000000002  0.011765937000000001
 570    -0.41613220000000001  7.8884885e-05  0.03106625
 571    0.035052109999999997  -0.030679985999999999  -0.31390625
 572    0.0887429  -0.070220840000000007  -0.31982830000000001
 573    0.017157390000000002  -0.013391256000000001  -0.28243731999999999
 574    -0.030515090000000002  -0.015769102  -0.26313132
 575    -0.015410099999999999  0.01297798  -0.24539459999999999
 576    -0.049769760000000003  0.00051748379999999995  -0.13627354999999999
 577    -0.081526570000000007  -0.030846372  -0.17420405
 578    -0.078707959999999993  -0.019208603000000001  -0.20410623
 579    0.038486729999999997  0.0021404922  -0.29452938000000001
 580    -0.069114149999999999  -0.0078358839999999996  -0.10150689
 581    -0.016109480999999998  -0.013724603  -0.26167119999999999
 582    -0.1639747  -0.0396356  -0.074294899999999997
 583    -0.22555520000000001  -0.065861790000000003  -0.19385841000000001
 584    -0.051005059999999998  0.017267398999999999  -0.25378147000000001
 585    -0.074865020000000004  0.09680018  0.22815049000000001
 586    -0.15632579999999999  -0.035497784999999997  0.39556205
 587    -0.15853980000000001  -0.013953521999999999  0.34200589999999997
 588    -0.081399399999999997  0.11003502  0.25057112999999998
 589    -0.075461150000000005  0.10528068  0.23244712000000001
 590    -0.1213057  0.083295024999999995  0.28908109999999998
 591    -0.0067892129999999997  0.0097918060000000001  0.074808180000000002
 592    -0.0043400506999999996  0.031667332999999999  0.079509659999999996
 593    -0.091067809999999999  0.080959290000000003  0.2437907
 594    0.05141838  0.064640924000000002  0.13098783999999999
 595    -0.13175539999999999  0.076139070000000003  0.28635934000000002
 596    -0.22822580000000001  -0.16489522000000001  -0.24443823000000001
 597    -0.26785973000000002  -0.30848049999999999  -0.24869927999999999
 598    -0.24012430000000001  -0.247693  -0.25671509999999997
 599    -0.23960239999999999  -0.15149397000000001  -0.24300632
 600    -0.24174660000000001  -0.2694338  -0.26548260000000001
 601    -0.22092719999999999  -0.109310955  -0.21225218000000001
 602    -0.04905582  -0.068936769999999994  -0.020317445999999999
 603    -0.22778989999999999  -0.21607159000000001  -0.25603712000000001
 604    -0.21903210000000001  -0.16894102  -0.25024607999999998
 605    -0.19249060000000001  -0.028033870999999998  -0.070386329999999997
 606    -0.1978705  -0.064912780000000003  -0.060003384999999999
 607    -0.2330689  -0.23409511  -0.27207687000000003
 608    -0.21453040000000001  -0.063865140000000001  -0.16899507999999999
 609    -0.2208154  -0.14536099999999999  -0.25710403999999998
 610    0.23335420000000001  0.039689189999999999  0.29304722
 611    0.18163000000000001  0.019129746  0.3632321
 612    0.18806719999999999  -0.021021152000000001  0.13046305
 613    0.14749660000000001  0.01693774  0.38435316000000003
 614    0.226434  0.0035967156000000001  0.12186302
 615    0.1707302  0.043101445000000002  0.35518777000000001
 616    0.214088  0.033805700000000001  0.24003473
 617    0.16224379999999999  -0.023673936999999999  0.090983614000000004
 618    0.20212150000000001  0.034577772  0.28993089999999999
 619    0.2172086  0.016108504999999999  0.22166739999999999
 620    0.15665090000000001  -0.038513749999999999  0.097471416000000005
 621    0.24121939000000001  0.026607055000000001  0.17331920000000001
 622    0.063827800000000004  -0.053642187000000001  -0.023087396999999999
 623    0.081466769999999994  -0.076200829999999997  0.0067484733000000002
 624    0.1257045  -0.029137251999999999  0.021709415999999999
 625    -0.082109100000000004  0.017417080000000001  0.19333304000000001
 626    -0.074732720000000002  -0.015615575  0.19039407
 627    -0.090391730000000003  -0.0021133609999999998  0.17162727999999999
 628    -0.039056443000000003  -0.021919600000000001  0.12514386
 629    -0.0013470807999999999  -0.033254010000000001  0.080214750000000001
 630    -0.17034299999999999  0.010953911  0.19131479000000001
 631    -0.027506161000000001  -0.070839920000000001  0.060417663000000003
 632    -0.0053343773000000001  -0.096083639999999998  -0.0046343132999999998
 633    0.14520189999999999  -0.089434849999999996  -0.118010774
 634    -0.023404128999999999  -0.08742395  -0.066772910000000005
 635    0.022943730999999998  -0.089069780000000001  -0.057579371999999997
 636    0.022834651000000001  -0.11230497  -0.105908856
 637    -0.024370960000000001  -0.11709649  -0.1110169
 638    -0.035652530000000002  -0.11261288999999999  -0.080064640000000006
 639    0.11173791  -0.074134140000000001  -0.15076690000000001
 640    -0.037476740000000001  -0.096295179999999994  -0.044784053999999997
 641    0.074901830000000003  -0.076543849999999997  -0.16903925
 642    0.1174631  -0.103435576  -0.15261930000000001
 643    -0.03519535  -0.027460312000000001  0.052133872999999997
 644    0.062186529999999997  0.020904328999999999  0.057010576
 645    -0.056855799999999998  -0.05827214  -0.040097742999999998
 646    0.085469630000000005  -0.0089436940000000003  -0.056904024999999997
 647    0.079600110000000002  0.054416336000000003  -0.087081389999999995
 648    -0.047679659999999999  0.10389346000000001  -0.10019622
 649    -0.32744371999999999  0.063002299999999997  0.045459248000000001
 650    0.27311229999999997  0.055351377  -0.14948823
 651    0.2302932  0.028287020999999999  -0.15882051
 652    0.097467700000000004  0.0050833876999999998  0.01561602
 653    0.0036082891999999998  -0.070131570000000004  0.049551646999999997
 654    0.17862720000000001  -0.0027338601999999999  -0.16047515000000001
 655    0.49105650000000001  -0.040200010000000001  -0.072958480000000006
 656    0.17625089999999999  -0.066682619999999998  0.057731480000000002
 657    0.12752769999999999  -0.068613530000000006  0.015468376000000001
 658    0.074424799999999999  -0.022050459000000001  -0.13610191999999999
 659    0.38300817999999998  0.061696609999999999  -0.13494718
 660    0.2098092  0.015121251  -0.15938345000000001
 661    0.1246254  0.027580606000000001  -0.15307258000000001
 662    0.063105229999999998  -0.017733387999999999  -0.31475334999999999
 663    0.35504787999999998  0.086538539999999997  -0.13995671000000001
 664    -0.2995505  0.099544499999999994  0.031698532000000001
 665    -0.08693845  0.055480696000000003  0.047163480000000001
 666    -0.40768581999999998  -0.0093307365000000007  0.035247184000000001
 667    -0.048291100000000003  -0.0069767385999999999  0.05481428
 668    0.069635509999999998  -0.027216292999999999  -0.31007466
 669    -0.041711020000000001  0.024027519000000001  -0.25329289999999999
 670    -0.016216234999999999  -0.025917523000000001  -0.11700176
 671    0.0026476300000000002  -0.0013933032999999999  -0.30583268000000002
 672    0.071073380000000005  -0.046470829999999998  -0.30974617999999998
 673    -0.071785204000000005  -0.036285764999999998  -0.043349100000000002
 674    -0.074574634000000001  -0.043847209999999998  -0.14971277
 675    0.043438940000000002  0.051714629999999998  0.071682049999999997
 676    0.0035932781000000001  0.045436799999999999  0.18208621
 677    -0.083410639999999994  0.073160045000000007  0.27320739999999999
 678    -0.13825879999999999  0.021860898  0.32654142000000003
 679    -0.14440539999999999  0.016708865999999999  0.30436918000000002
 680    0.00065508859999999995  0.036380589999999997  0.097211270000000002
 681    -0.010830556999999999  0.096093999999999999  0.23641870000000001
 682    -0.12533630000000001  0.045952640000000003  0.28055282999999998
 683    0.046998560000000002  0.065986890000000006  0.16469698999999999
 684    0.043660629999999999  0.052617564999999998  0.083286755000000004
 685    -0.2402572  -0.26261909999999999  -0.25509431999999999
 686    -0.21754970000000001  -0.12139177  -0.23030064
 687    -0.2216997  -0.088310613999999996  -0.2170714
 688    -0.2167886  -0.1581978  -0.25215393000000003
 689    -0.21943879999999999  -0.048528216999999998  -0.15796122000000001
 690    -0.20616770000000001  -0.070820960000000002  -0.11874471
 691    -0.13884959999999999  -0.035239007000000003  -0.055201712999999999
 692    -0.047650869999999998  -0.065555790000000003  -0.00074039769999999997
 693    0.1101704  -0.050685108  0.45048080000000001
 694    0.21499679999999999  0.044503473000000002  0.24849384999999999
 695    0.13321620000000001  -0.024840528000000001  0.055259234999999997
 696    0.22933729999999999  0.0162782  0.25676405000000002
 697    0.1591282  -0.033768090000000001  0.036215310000000001
 698    0.20786930000000001  0.044220135000000001  0.33764424999999998
 699    0.1758699  0.033727206000000003  0.34049773
 700    -0.056318380000000001  -0.0040063820000000002  0.15558113000000001
 701    -0.037849279999999999  -0.035389076999999998  0.065072279999999996
 702    -0.089145940000000007  0.014548708  0.17617758
 703    -0.16780909999999999  0.033265570000000001  0.19048915999999999
 704    -0.017260892  -0.072833750000000003  0.079913429999999994
 705    -0.035072180000000001  -0.063168269999999999  0.10004317
 706    0.017861861999999999  -0.10065794  -0.081375909999999996
 707    -0.032247449999999997  -0.078344209999999997  -0.034338332999999999
 708    -0.043137160000000001  0.1747629  -0.0010012388000000001
 709    -0.0084176370000000004  -0.050652615999999998  -0.089349954999999995
 710    -0.01899609  0.18647385  -0.023135810999999999
 711    -0.050544810000000003  0.13762817999999999  -0.083288669999999995
 712    -0.2419094  -0.11979920400000001  -0.21706671999999999
 713    0.07672387  -0.031952605000000002  -0.049760576000000001
 714    0.071036959999999996  -0.049035839999999997  -0.042860292000000001
 715    0.02021322  -0.11540511000000001  -0.067528740000000004
 716    0.046704559999999999  0.027128026  0.14749925
 717    0.16882169999999999  -0.0029999725999999998  -0.14318434999999999
 718    0.043523180000000002  0.0020891427999999998  0.10414383000000001
 719    0.114437  -0.024476092000000001  -0.092216939999999997
 720    0.23373969999999999  -0.029044278  0.11261121
 721    0.21409800000000001  -0.039764628000000003  0.082162369999999998
 722    0.36789247000000003  0.059587076000000003  -0.1103831
 723    0.17602139999999999  0.038068704000000002  -0.14955004999999999
 724    0.26203197  0.066436510000000004  -0.18925194000000001
 725    -0.40289999999999998  -0.017994966000000001  0.024875334999999998
 726    -0.44110189999999999  -0.03527686  0.035134106999999998
 727    -0.47902401999999999  -0.089182830000000005  0.084191820000000001
 728    -0.12559980000000001  0.042051949999999998  0.052744289999999999
 729    0.035408170000000003  -0.020164408000000002  -0.29352242000000001
 730    0.062291957000000002  0.025855802000000001  0.099589839999999999
 731    0.010306030000000001  0.045542254999999997  0.080863790000000005
 732    -0.154387  0.021640456999999998  0.30865110000000001
 733    -0.069030985000000003  0.10666050000000001  0.26660066999999998
 734    0.034868929999999999  0.064070119999999994  0.18978107999999999
 735    -0.017468648  0.073982939999999997  0.17913989999999999
 736    -0.2178677  -0.085096433999999999  -0.20244169000000001
 737    -0.2399386  -0.18165943000000001  -0.25722086
 738    -0.17029340000000001  -0.056604195000000003  -0.028580714
 739    0.25232090000000001  0.016155735000000001  0.18534811000000001
 740    0.22203809999999999  -0.0047643892  0.19521078
 741    0.1874864  0.04894747  0.35304819999999998
 742    0.1752686  -0.040433727000000003  0.043234948000000002
 743    -0.00051183070000000003  -0.039641228000000001  0.11722415999999999
 744    -0.116567  0.0013290941999999999  0.19748520999999999
 745    0.023654930000000001  -0.12404527999999999  -0.11607005400000001
 746    0.064952350000000006  -0.10934624  -0.16268184999999999
 747    0.031855179999999997  -0.078833749999999994  -0.16108564
 748    -0.035908352999999997  -0.1033251  -0.089379790000000001
 749    -0.0069500719999999998  -0.12525262000000001  -0.059592026999999999
 750    0.026728898000000001  -0.090816765999999993  -0.16688162000000001
 751    0.084765770000000004  -0.022942964  -0.0038739237999999999
 752    -0.06648656  -0.019193515000000001  -0.071183815999999997
 753    0.0070585689999999998  0.14970157000000001  -0.090970609999999993
 754    -0.049414739999999999  -0.028055890999999999  -0.21654429
 755    -0.036550409999999998  -0.0098875049999999996  -0.1804016
 756    -0.031229492000000001  -0.052616704  -0.12705132
 757    -0.12522349999999999  0.044464393999999997  0.30621330000000002
 758    0.087777300000000003  0.01099812  0.036614346999999998
 759    0.1184012  -0.049296520000000003  0.073382944000000006
 760    0.030844139999999999  -0.063869220000000004  -0.069460789999999994
 761    0.077368999999999993  -0.038030000000000001  -0.067511890000000005
 762    0.010626297999999999  0.063419749999999997  0.21091214
 763    0.13996710000000001  -0.092702580000000007  -0.13994934000000001
 764    0.22548209999999999  0.05176861  -0.19515795
 765    0.35987338000000002  0.055780534  -0.13977999999999999
 766    0.13432769999999999  0.030242439999999999  -0.16477375
 767    0.29962060000000001  0.065561110000000006  -0.17870754999999999
 768    0.30470639999999999  0.07614862  -0.17593310000000001
 769    0.45757827000000001  0.026578500000000001  -0.087020844
 770    -0.084771390000000002  0.061398380000000002  0.081385225000000005
 771    -0.34573670000000001  0.045251560000000003  0.026512448000000001
 772    -0.36093681999999999  0.063048564000000001  0.037710734000000003
 773    -0.26834992000000002  0.115134075  0.064114480000000001
 774    -0.42732352000000001  -0.046607580000000003  0.039754517000000003
 775    -0.04549657  0.02169666  -0.22311921000000001
 776    -0.060187900000000003  0.019919533  -0.21658093
 777    -0.062345240000000003  -0.036345205999999998  -0.19442102
 778    -0.071257280000000006  -0.0106079355  -0.22786227000000001
 779    -0.091025410000000001  -0.056709368000000003  -0.044688079999999998
 780    0.00028176885000000002  0.088256570000000006  0.16293229000000001
 781    0.01852376  -0.004296841  0.094774739999999996
 782    -0.14027800000000001  -0.047641902999999999  0.39768997
 783    -0.15093519999999999  -0.045440904999999997  0.3880789
 784    0.042008789999999997  0.070261190000000001  0.12543604999999999
 785    -0.13730980000000001  -0.057955663999999997  -0.0097310420000000005
 786    -0.21917139999999999  -0.17392891999999999  -0.26362276000000001
 787    -0.22124189999999999  -0.042148743000000002  -0.14516878
 788    -0.10266256999999999  -0.072989105999999998  -0.015005881
 789    0.1244171  -0.030275903999999999  0.44493997000000002
 790    0.21940119999999999  0.032330267000000003  0.20636879
 791    -0.083558664000000005  0.0084618780000000008  0.19986414999999999
 792    -0.018174458000000001  -0.062686846000000004  0.11899797600000001
 793    0.0083760799999999993  -0.091431390000000001  -0.12741569
 794    0.036272319999999997  -0.046772002999999999  0.039508442999999997
 795    -0.030472460999999999  -0.078350164  -0.0049587414000000002
 796    -0.02447686  0.18021508999999999  0.0046651736000000001
 797    -0.16397990000000001  -0.071638729999999998  -0.032850206
 798    -0.073111503999999994  -0.0071433149999999999  0.19649774
 799    -0.1994657  0.064568539999999994  0.096470319999999998
 800    0.032692029999999997  0.017086059000000001  0.14010596
 801    0.2517761  0.00065703690000000004  0.18289222999999999
 802    0.23785059  -0.018030034  0.12577630000000001
 803    0.1387852  0.022885164  -0.13211982999999999
 804    0.41039628  0.039324455000000001  -0.10915648
 805    0.1007585  0.00088680910000000005  -0.084832939999999996
 806    0.24914808999999999  0.077526960000000006  -0.17605480000000001
 807    -0.4384883  -0.033317856  0.043251690000000002
 808    -0.2432571  0.10074263999999999  0.093640849999999998
 809    -0.11595419999999999  0.038095094000000003  0.10216096
 810    0.0073894590000000001  -0.014185756000000001  -0.30646402
 811    0.083806080000000005  -0.081513459999999996  -0.32075226000000001
 812    -0.030126110000000001  -0.0037180223000000002  -0.10717975
 813    -0.032438061999999997  -0.014119655  -0.21292749
 814    -0.16318740000000001  -0.011279091  0.35535145000000001
 815    0.0026126700000000001  -0.0089910770000000001  0.069199769999999994
 816    -0.2453979  -0.28423556999999999  -0.25550652000000001
 817    -0.18719930000000001  -0.034957793000000001  -0.048203509999999998
 818    0.2120321  0.055337369999999997  0.31168620000000002
 819    0.141958  0.016953856  0.40251392000000003
 820    0.21908659999999999  0.054338579999999997  0.26382633999999999
 821    0.2021559  0.041566968000000003  0.28387950000000001
 822    0.1005379  -0.029691774000000001  0.051180112999999999
 823    0.012535299  -0.098833400000000002  -0.013639999999999999
 824    0.16294439999999999  -0.10909796500000001  -0.098984440000000007
 825    0.1410554  -0.098784650000000002  -0.11748904
 826    -0.040202389999999998  0.029177198000000001  0.069382139999999995
 827    0.32133489999999998  0.077720399999999995  -0.13122848000000001
 828    0.20763380000000001  0.062706689999999995  -0.1781884
 829    -0.35517693  0.051705870000000001  0.039909090000000001
 830    -0.42593609999999998  -0.020508815  0.022172405999999999
 831    -0.46513912000000002  -0.084318879999999999  0.072940744000000002
 832    -0.121006  0.062545729999999994  0.10706011999999999
 833    -0.036572760000000003  0.0080106629999999995  -0.20858995999999999
 834    0.066272659999999997  -0.056817353000000001  -0.31667894000000002
 835    0.059700727000000002  -0.053319341999999999  -0.32672444
 836    0.013328618  0.056606236999999997  0.107740745
 837    -0.20469399999999999  -0.051632892  -0.13556634000000001
 838    -0.2440454  -0.10704411  -0.23221691999999999
 839    0.2304832  -0.019716351999999999  0.10843682
 840    0.22579379999999999  0.052837856000000002  0.29280978000000002
 841    0.1557694  0.0012254863999999999  0.39958373000000003
 842    0.12252830000000001  -0.027735300000000001  0.42715743
 843    0.19773460000000001  0.027657770000000002  0.31569920000000001
 844    0.22945750000000001  -0.02399917  0.16394465
 845    0.1265231  -0.033857036  0.070155755
 846    0.062929910000000006  -0.060789353999999997  0.043656405000000002
 847    -0.019089127000000001  -0.026726120999999999  0.070553729999999995
 848    0.060358107000000001  -0.110338114  -0.14680657
 849    0.1613975  -0.12082258999999999  -0.114020236
 850    0.054910026000000001  -0.086038130000000004  -0.1490466
 851    0.036819339999999999  -0.071760149999999995  -0.0011999793
 852    -0.23145669999999999  0.089573849999999997  0.058658215999999999
 853    0.4362472  0.046575718000000002  -0.087276919999999994
 854    -0.14191400000000001  0.066418850000000001  0.063498760000000001
 855    -0.38712492999999998  0.0086251790000000002  0.028073872
 856    -0.20152709999999999  0.11250138  0.083349049999999994
 857    -0.1448141  -0.023796879  0.35177216
 858    0.02362436  0.015477832  0.13649628
 859    -0.10446479  -0.068268300000000004  -0.004922254
 860    0.2495317  0.033522389999999999  0.23413514999999999
 861    0.1096621  -0.071100645000000004  0.057880460000000002
 862    0.084336679999999997  -0.041944700000000001  0.055385959999999998
 863    0.13255649999999999  -0.076355339999999994  0.029740136
 864    -0.046390460000000001  -0.023941189000000002  0.18002847999999999
 865    0.076470670000000004  -0.072704784999999994  -0.15671904
 866    0.0099864689999999996  -0.12957742999999999  -0.105719075
 867    -0.048817239999999998  0.043637462000000002  0.065776470000000004
 868    -0.068524269999999998  0.14650067999999999  -0.053130295000000001
 869    -0.1842085  -0.073454194  -0.059466258000000001
 870    -0.011926799  -0.073581439999999998  0.046180483000000001
 871    0.031018522  -0.074364979999999997  -0.047716125999999998
 872    0.042965950000000003  -0.046022646  -0.078414919999999999
 873    0.45299666999999999  0.020394249  -0.093292169999999994
 874    0.34824038000000002  0.070685810000000002  -0.15587036000000001
 875    0.31419638  0.058693460000000003  -0.16943078
 876    0.51577090000000003  -0.064391113999999999  -0.082549594000000004
 877    0.21587970000000001  0.032504577  -0.19333674000000001
 878    0.38064527999999997  0.049479519999999999  -0.11113885
 879    0.098034200000000002  0.013528772  -0.101584435
 880    0.44395570000000001  0.014174832  -0.090903393999999998
 881    -0.15722179999999999  0.042517310000000003  0.077792910000000007
 882    -0.34463692000000001  0.052229064999999998  0.01247857
 883    -0.30210340000000002  0.10546169  0.043136069999999999
 884    -0.17956739999999999  0.06248107  0.1065152
 885    -0.087340879999999996  -0.012267399999999999  -0.16335137
 886    -0.15907360000000001  0.023714826000000001  0.32360119999999998
 887    -0.023333046999999999  -0.016626272000000001  0.15275757000000001
 888    -0.1442148  -0.027046777000000001  0.37838250000000001
 889    -0.2495069  -0.086427203999999994  -0.19218432999999999
 890    -0.14904800000000001  -0.059096225000000002  -0.067376720000000001
 891    -0.21612400000000001  -0.077073470000000005  -0.15965739000000001
 892    -0.04888431  -0.00077012925999999998  0.18030499
 893    -0.22178320000000001  0.0039985105  0.18528645999999999
 894    -0.051270379999999997  -0.045335340000000002  0.1324584
 895    -0.1169524  0.0016374737  0.18607122000000001
 896    0.16975680000000001  -0.14696412  -0.075430973999999998
 897    0.034027450000000001  -0.017514383000000001  0.059000492000000002
 898    -0.014976155  0.11611687  0.066403753999999995
 899    -0.043394410000000001  0.0020749570000000001  -0.17866549000000001
 900    0.091734599999999999  -0.010128046  -0.03154245
 901    0.088969000000000006  0.041619587999999999  0.031741813000000001
 902    0.28335929999999998  0.046434245999999998  -0.15717137
 903    0.22910369999999999  0.064561725  -0.18770919999999999
 904    -0.056641360000000002  -0.011235659  0.045947894000000003
 905    -0.27289321999999999  0.088086403999999993  0.042799259999999999
 906    -0.16792770000000001  0.056646556000000001  0.069817470000000006
 907    -0.025918722000000002  -0.041018546000000003  -0.12845516000000001
 908    -0.152308  -0.010154247  0.36736244000000001
 909    -0.1407948  0.042318849999999998  0.32161107999999999
 910    -0.22277839999999999  -0.03618826  -0.108816944
 911    -0.2431846  -0.056322536999999999  -0.14240902999999999
 912    0.1990711  0.024869308  0.33734905999999998
 913    0.2301764  0.030817278  0.29341813999999999
 914    0.1718768  -0.016911740000000001  0.073280979999999996
 915    0.18074570000000001  0.024883545999999999  0.34481537000000001
 916    0.013926108  -0.124926835  -0.13564317000000001
 917    0.0066206594999999998  0.18220843  -0.0027055069999999998
 918    0.0072547990000000001  -0.076455490000000001  -0.059242337999999999
 919    0.077736459999999993  0.021041399999999998  0.043823149999999998
 920    0.098680599999999993  -0.022851419000000001  -0.080166609999999999
 921    -0.10252915999999999  0.033600129999999999  0.035859126999999998
 922    -0.058811589999999997  -0.05640833  -0.10890686500000001
 923    -0.055363299999999997  0.0025517119999999998  -0.25627154000000002
 924    -0.033175139999999999  0.1162875  0.22631058000000001
 925    0.0033660782999999999  0.012139100999999999  0.104107045
 926    0.2244178  0.015794849999999999  0.14504632000000001
 927    0.24545470999999999  0.037554570000000002  0.21053268
 928    -0.023562047999999999  -0.070198759999999999  0.015589386
 929    -0.080684839999999994  0.0037578111999999999  0.021941103
 930    -0.018718236999999999  -0.077369265000000007  -0.052324629999999997
 931    0.074168440000000002  0.016019941999999999  -0.088871889999999995
 932    0.25166500000000003  0.04014993  -0.15575638
 933    0.087888900000000006  -0.012554657  -0.14870845999999999
 934    -0.17998020000000001  0.093540460000000006  0.069469020000000006
 935    -0.21198729999999999  0.1094338  0.06781922
 936    -0.074154590000000006  0.0072339474999999999  -0.21802789
 937    -0.15025659999999999  0.017018095  0.34158748
 938    0.00071783920000000002  0.033878364000000001  0.11294936999999999
 939    0.0033133281  0.05297777  0.12758768000000001
 940    -0.053792319999999998  -0.051685672000000002  0.014093122
 941    -0.1524459  0.062417300000000002  0.11124669
 942    0.18065390000000001  -0.055374220000000002  0.049972303000000003
 943    0.19238530000000001  0.049932329999999997  -0.18837582
 944    0.19317999999999999  0.056054703999999997  -0.16693375999999999
 945    -0.12045069999999999  0.02234216  0.060001835000000003
 946    -0.40197343000000002  0.016583635999999999  0.014868442000000001
 947    -0.25851010000000002  0.084000900000000003  0.085745689999999999
 948    -0.058748269999999998  -0.0010397397  -0.11645699
 949    0.025197212  0.054734997000000001  0.090241349999999998
 950    -0.056044910000000003  -0.047812734000000003  -0.060234874000000001
 951    0.03917963  -0.073072730000000002  -0.028434497999999999
 952    -0.28551552000000002  0.083768640000000005  0.072882559999999999
 953    -0.2504343  0.077667533999999996  0.068245260000000002
 954    0.031538499999999997  -0.0022081695  0.1017455
 955    0.15556610000000001  0.013661683000000001  0.37902205999999999
 956    -0.018463317  -0.021820045999999999  0.121874884
 957    -0.03214728  -0.10273082  -0.031790600000000002
 958    0.028012660000000002  -0.062409256000000003  0.023790196
 959    -0.016407892  -0.060473666000000002  -0.077781260000000005
 960    -0.074136049999999995  -0.025021071999999998  0.011366482000000001
 961    0.21411179999999999  0.015270982000000001  0.17141960000000001
 962    0.2024725  0.0010809451000000001  0.13327812999999999
 963    0.22869529999999999  0.052640689999999997  0.25298572000000003
 964    -0.098034490000000002  0.01165217  0.040218502000000003
 965    0.45422170000000001  0.0052564589999999998  -0.070033100000000001
 966    0.1887346  0.047186166000000002  0.31646115000000002
 967    0.099702100000000002  -0.058166176  -0.00473479
 968    -0.065213820000000006  -0.024247853  0.15039860999999999
 969    0.16265859999999999  -0.0038896762  -0.17538144999999999
 970    0.21392630000000001  0.052933417000000003  -0.15446536
 971    -0.02580971  -0.11662785000000001  -0.049791205999999998
 972    -0.012950366  -0.015910490999999999  -0.10791923
 973    0.0042196092999999997  -0.048811122999999998  -0.090468674999999998
 974    0.11549110999999999  -0.078712299999999999  0.044556573000000002
 975    -0.034641699999999997  0.095757529999999993  0.19856351999999999
 976    -0.1816778  -0.063087939999999995  -0.092401159999999996
 977    0.1583968  -0.10185194  -0.11454998
 978    0.030620068  0.0017575659000000001  -0.11139304999999999
 979    0.24663568999999999  0.024941020000000001  0.25165999999999999
 980    0.060859673000000003  0.052016041999999998  -0.10474137
 981    -0.15220510000000001  -0.074841099999999994  -0.044063829999999998
 982    -0.068498983999999999  -0.0094856790000000003  0.033841252000000002
 983    -0.1055065  0.063616279999999997  0.26573764999999999
 984    -0.004811994  0.14690810000000001  0.049372856
 985    -0.2249883  -0.14498752000000001  -0.23621333
 986    -0.00080131090000000005  0.10814682  0.19807230000000001
 987    0.0062596489999999999  -0.052461423  0.095369239999999994
 988    0.017480280000000001  -0.107584  -0.034853015000000001
 989    0.34478807  0.087258459999999996  -0.12767065
 990    0.1047068  -0.035492629999999997  -0.10391333
 991    -0.017988774999999999  0.013681240000000001  -0.28908922999999997
 992    0.13171089999999999  -0.02536979  -0.13740267
 993    -0.063465684999999994  0.074685310000000005  -0.093794909999999995
 994    -0.086970320000000004  0.093937939999999998  -0.054406802999999997
 995    0.087259000000000003  -0.038929696999999999  -0.012360482000000001
 996    0.01315391  0.073432590000000006  0.13640752
 997    0.059506379999999998  0.017273113  0.105795786
 998    -0.1094595  -0.029539157  -0.039311085000000003
 999    0.13573180000000001  -0.052312016000000003  0.013849168
1000    -0.091479640000000001  -0.013627484  0.18108356
1001    -0.22738410000000001  -0.23823606999999999  -0.26170668000000002
# Generated by ./tetgen /home/yuzhang/repos/Gaia/Data/mesh_models/ModelsDifferentRes/octopus/octopus_2KFaces_reset.ply 
